SplineFontDB: 3.2
FontName: terriac-RegularItalic
FullName: terriac Regular Italic
FamilyName: terriac
Weight: Regular
Copyright: Copyright (c) 2025, TerribleAtCreating
Version: 2.1
ItalicAngle: 0
UnderlinePosition: -75
UnderlineWidth: 50
Ascent: 819
Descent: 205
InvalidEm: 0
LayerCount: 2
Layer: 0 0 "Back" 1
Layer: 1 0 "Fore" 0
XUID: [1021 308 -610143922 32752]
StyleMap: 0x0001
FSType: 0
OS2Version: 0
OS2_WeightWidthSlopeOnly: 0
OS2_UseTypoMetrics: 1
CreationTime: 1738091749
ModificationTime: 1739298531
PfmFamily: 81
TTFWeight: 400
TTFWidth: 5
LineGap: 94
VLineGap: 0
OS2TypoAscent: 0
OS2TypoAOffset: 1
OS2TypoDescent: 0
OS2TypoDOffset: 1
OS2TypoLinegap: 94
OS2WinAscent: 0
OS2WinAOffset: 1
OS2WinDescent: 0
OS2WinDOffset: 1
HheadAscent: 0
HheadAOffset: 1
HheadDescent: 0
HheadDOffset: 1
OS2Vendor: 'PfEd'
MarkAttachClasses: 1
DEI: 91125

StartChar: a
Encoding: 97 97 0
Width: 541
Flags: HW
LayerCount: 2
Fore
SplineSet
111 28 m 0
 73 49 56 92 59 150 c 2
 61 194 l 1
 86 248 l 2
 127 339 213 423 296 455 c 2
 337 471 l 1
 401 471 l 1
 465 471 l 1
 495 450 l 2
 511 439 525 422 527 413 c 0
 528 411 526 407 525 401 c 0
 521 380 506 335 489 288 c 0
 463 219 449 171 442 140 c 0
 437 117 437 103 440 94 c 2
 446 80 l 1
 478 86 l 1
 510 93 l 1
 520 76 l 1
 531 60 l 1
 516 43 l 2
 508 34 486 21 467 16 c 2
 432 7 l 1
 410 19 l 2
 397 25 381 44 375 61 c 2
 363 92 l 1
 340 72 l 2
 298 34 236 13 181 13 c 0
 155 13 130 18 111 28 c 0
272 105 m 0
 319 134 370 201 414 297 c 2
 453 381 l 1
 445 393 l 1
 435 404 l 1
 379 403 l 1
 322 402 l 1
 277 375 l 2
 221 342 165 275 143 212 c 2
 126 164 l 1
 133 132 l 1
 139 100 l 1
 166 87 l 2
 178 82 189 79 201 79 c 0
 221 79 243 87 272 105 c 0
EndSplineSet
EndChar

StartChar: b
Encoding: 98 98 1
Width: 560
Flags: HW
LayerCount: 2
Fore
SplineSet
109 9 m 0
 93 14 72 29 62 43 c 2
 43 68 l 1
 124 450 l 1
 203 832 l 1
 224 836 l 1
 245 840 l 1
 254 821 l 1
 264 803 l 1
 226 626 l 2
 205 529 190 448 194 448 c 0
 198 448 211 456 223 465 c 0
 260 493 333 510 401 510 c 0
 432 510 463 507 488 499 c 0
 535 485 579 438 593 383 c 2
 605 339 l 1
 595 291 l 2
 581 227 552 182 483 122 c 2
 425 72 l 1
 360 45 l 2
 288 16 223 1 170 1 c 0
 147 1 127 4 109 9 c 0
305 93 m 0
 331 101 375 123 404 142 c 2
 458 177 l 1
 494 228 l 1
 530 279 l 1
 528 317 l 2
 525 365 503 404 466 425 c 2
 437 441 l 1
 380 441 l 1
 322 440 l 1
 280 422 l 1
 238 404 l 1
 204 365 l 1
 169 325 l 1
 144 229 l 2
 137 203 132 182 128 164 c 0
 115 104 118 82 137 76 c 0
 144 74 156 73 169 73 c 0
 208 73 267 81 305 93 c 0
EndSplineSet
EndChar

StartChar: c
Encoding: 99 99 2
Width: 515
Flags: HW
LayerCount: 2
Fore
SplineSet
155 27 m 0
 110 38 72 68 60 100 c 2
 49 128 l 1
 65 200 l 1
 80 271 l 1
 104 314 l 2
 117 338 146 377 169 401 c 2
 211 446 l 1
 268 473 l 1
 324 501 l 1
 406 507 l 1
 487 512 l 1
 528 490 l 1
 569 467 l 1
 576 438 l 2
 579 427 579 416 577 407 c 0
 576 403 573 399 572 397 c 0
 566 390 558 386 548 386 c 0
 532 386 514 396 502 413 c 2
 483 440 l 1
 403 435 l 1
 324 431 l 1
 286 413 l 1
 248 395 l 1
 209 349 l 2
 187 323 158 277 145 246 c 2
 122 190 l 1
 128 152 l 1
 134 115 l 1
 167 103 l 2
 186 96 230 90 268 90 c 2
 336 89 l 1
 402 108 l 2
 431 116 451 121 464 121 c 0
 481 121 486 113 483 98 c 0
 482 95 481 92 480 88 c 2
 471 64 l 1
 400 41 l 1
 328 18 l 1
 256 19 l 2
 217 19 171 23 155 27 c 0
EndSplineSet
EndChar

StartChar: d
Encoding: 100 100 3
Width: 684
Flags: HW
LayerCount: 2
Fore
SplineSet
134 30 m 1
 96 49 l 1
 76 88 l 1
 54 126 l 1
 66 199 l 1
 78 271 l 1
 112 329 l 1
 145 387 l 1
 199 436 l 1
 252 484 l 1
 309 508 l 1
 365 532 l 1
 424 532 l 2
 457 532 499 525 517 517 c 2
 550 502 l 1
 555 515 l 2
 558 522 570 551 580 579 c 0
 604 650 654 757 678 791 c 2
 698 819 l 1
 719 819 l 2
 736 819 742 813 738 792 c 0
 734 772 720 738 694 682 c 2
 644 575 l 1
 618 469 l 2
 598 391 564 249 549 178 c 0
 546 162 543 150 542 143 c 0
 540 134 544 118 550 107 c 2
 561 88 l 1
 606 102 l 1
 652 116 l 1
 665 98 l 1
 679 81 l 1
 639 51 l 1
 599 20 l 1
 559 20 l 1
 519 20 l 1
 495 57 l 1
 471 94 l 1
 434 67 l 2
 414 52 379 33 357 25 c 2
 318 10 l 1
 245 10 l 1
 172 11 l 1
 134 30 l 1
375 105 m 0
 399 117 430 142 445 160 c 2
 472 192 l 1
 486 261 l 1
 501 331 l 1
 485 396 l 1
 468 461 l 1
 415 461 l 1
 362 461 l 1
 314 440 l 1
 265 418 l 1
 226 377 l 2
 204 354 174 308 156 272 c 2
 125 207 l 1
 130 172 l 2
 137 111 190 75 259 75 c 0
 295 75 335 85 375 105 c 0
EndSplineSet
EndChar

StartChar: e
Encoding: 101 101 4
Width: 599
Flags: HW
LayerCount: 2
Fore
SplineSet
255 19 m 0
 144 35 89 72 72 146 c 2
 62 188 l 1
 76 255 l 1
 91 323 l 1
 116 368 l 2
 169 460 294 532 436 553 c 2
 507 563 l 1
 548 551 l 2
 571 544 599 528 610 514 c 2
 630 488 l 1
 616 452 l 2
 588 375 479 288 381 263 c 2
 337 252 l 1
 253 259 l 2
 207 263 163 269 155 272 c 2
 140 278 l 1
 138 233 l 2
 133 150 169 111 266 89 c 2
 320 77 l 1
 386 88 l 2
 422 94 481 111 515 125 c 0
 547 138 568 145 582 145 c 0
 599 145 603 135 599 115 c 2
 594 91 l 1
 540 66 l 2
 463 31 392 14 321 14 c 0
 299 14 277 16 255 19 c 0
449 362 m 2
 477 379 511 407 526 426 c 2
 553 460 l 1
 544 471 l 2
 539 477 516 484 492 487 c 2
 447 492 l 1
 383 475 l 2
 297 452 226 413 199 376 c 2
 177 346 l 1
 188 341 l 2
 212 333 243 328 292 328 c 0
 302 328 312 329 324 329 c 2
 398 331 l 1
 449 362 l 2
EndSplineSet
EndChar

StartChar: f
Encoding: 102 102 5
Width: 832
Flags: HW
LayerCount: 2
Fore
SplineSet
107 -202 m 5
 24 -183 -10 -137 6 -64 c 6
 15 -26 l 5
 41 6 l 6
 74 46 122 69 173 69 c 6
 213 69 l 5
 238 43 l 6
 266 14 267 -2 240 -21 c 6
 222 -34 l 5
 189 -14 l 6
 155 7 137 6 103 -19 c 6
 83 -34 l 5
 76 -67 l 5
 69 -101 l 5
 92 -118 l 5
 115 -136 l 5
 186 -136 l 5
 256 -136 l 5
 295 -115 l 6
 349 -87 385 -44 415 29 c 6
 440 90 l 5
 449 185 l 5
 457 280 l 5
 409 273 l 6
 383 269 330 258 292 247 c 4
 254 236 212 227 198 226 c 6
 173 224 l 5
 173 242 l 6
 173 252 180 266 188 274 c 4
 205 290 315 325 376 334 c 4
 399 337 427 342 439 344 c 6
 460 348 l 5
 486 486 l 5
 511 624 l 5
 541 658 l 6
 558 677 594 703 621 716 c 6
 670 739 l 5
 751 739 l 5
 832 739 l 5
 868 720 l 6
 888 710 912 690 922 676 c 6
 941 650 l 5
 935 599 l 5
 929 549 l 5
 910 519 l 5
 891 489 l 5
 866 483 l 6
 817 471 799 500 836 531 c 4
 901 585 872 657 778 673 c 6
 739 680 l 5
 687 669 l 6
 658 663 623 649 608 637 c 6
 581 615 l 5
 556 498 l 6
 542 433 532 374 533 367 c 6
 535 354 l 5
 625 357 l 6
 731 361 851 345 866 326 c 6
 877 313 l 5
 867 296 l 5
 858 280 l 5
 697 286 l 5
 536 292 l 5
 503 133 l 5
 469 -26 l 5
 431 -78 l 6
 392 -131 340 -172 288 -190 c 4
 247 -204 146 -211 107 -202 c 5
 107 -202 l 5
EndSplineSet
EndChar

StartChar: g
Encoding: 103 103 6
Width: 674
Flags: HW
LayerCount: 2
Fore
SplineSet
125 -357 m 0
 86 -342 67 -319 72 -296 c 0
 76 -279 87 -270 105 -270 c 0
 116 -270 129 -274 146 -281 c 0
 169 -291 193 -295 218 -295 c 0
 344 -295 492 -178 564 -6 c 2
 589 56 l 1
 598 128 l 2
 608 207 609 306 600 306 c 0
 597 306 570 278 540 244 c 0
 436 125 285 32 182 23 c 2
 133 19 l 1
 105 40 l 2
 90 52 69 76 62 94 c 2
 49 127 l 1
 58 171 l 2
 63 195 83 239 102 271 c 2
 135 329 l 1
 194 375 l 2
 267 433 335 468 412 487 c 2
 472 502 l 1
 511 495 l 2
 533 491 569 478 591 464 c 0
 613 450 639 440 650 440 c 2
 669 440 l 1
 673 417 l 2
 681 373 681 260 674 172 c 2
 666 83 l 1
 640 12 l 2
 576 -162 484 -267 338 -334 c 2
 278 -362 l 1
 216 -365 l 2
 210 -365 203 -366 197 -366 c 0
 168 -366 138 -362 125 -357 c 0
266 111 m 0
 331 138 438 223 506 301 c 2
 563 368 l 1
 561 384 l 2
 557 404 502 429 464 429 c 0
 423 429 318 387 259 347 c 2
 209 313 l 1
 173 261 l 2
 154 233 135 193 131 174 c 2
 124 139 l 1
 140 115 l 1
 158 92 l 1
 190 92 l 2
 207 92 241 101 266 111 c 0
EndSplineSet
EndChar

StartChar: h
Encoding: 104 104 7
Width: 652
Flags: HW
LayerCount: 2
Fore
SplineSet
52 27 m 2
 41 44 l 1
 121 437 l 1
 201 830 l 1
 217 845 l 2
 227 854 234 859 241 859 c 0
 248 859 253 854 261 844 c 2
 274 828 l 1
 219 571 l 1
 165 315 l 1
 221 358 l 2
 252 382 306 413 341 428 c 2
 405 456 l 1
 487 456 l 1
 569 456 l 1
 611 421 l 1
 654 386 l 1
 667 330 l 1
 681 274 l 1
 656 180 l 1
 631 86 l 1
 611 56 l 2
 599 39 581 24 572 22 c 2
 554 19 l 1
 548 38 l 1
 543 56 l 1
 572 128 l 1
 602 200 l 1
 605 243 l 2
 608 297 586 346 547 372 c 2
 517 392 l 1
 475 391 l 2
 385 389 245 318 179 239 c 2
 147 200 l 1
 128 118 l 2
 118 73 105 30 100 23 c 0
 93 15 85 11 77 11 c 0
 68 11 59 16 52 27 c 2
EndSplineSet
EndChar

StartChar: i
Encoding: 105 105 8
Width: 350
Flags: HW
LayerCount: 2
Fore
SplineSet
194 559 m 0
 189 566 188 579 191 593 c 0
 192 596 193 599 194 602 c 2
 203 631 l 1
 231 643 l 1
 258 655 l 1
 274 646 l 2
 283 641 292 627 293 615 c 2
 294 594 l 1
 266 569 l 2
 248 553 231 545 218 545 c 0
 208 545 200 550 194 559 c 0
75 12 m 0
 66 18 54 37 49 53 c 2
 40 82 l 1
 57 162 l 2
 81 276 139 390 185 415 c 2
 206 426 l 1
 218 410 l 1
 231 394 l 1
 200 342 l 2
 183 314 156 262 143 227 c 2
 118 163 l 1
 116 122 l 2
 114 89 124 73 146 73 c 0
 168 73 203 90 253 124 c 0
 287 147 322 165 333 165 c 0
 350 165 358 151 354 134 c 0
 353 130 353 125 350 121 c 0
 341 105 243 40 195 17 c 0
 174 7 146 2 122 2 c 0
 102 2 86 5 75 12 c 0
EndSplineSet
EndChar

StartChar: j
Encoding: 106 106 9
Width: 463
Flags: HW
LayerCount: 2
Fore
SplineSet
406 650 m 1
 395 675 l 1
 413 698 l 2
 435 727 450 737 478 737 c 0
 503 737 526 708 521 683 c 0
 516 658 472 625 443 625 c 2
 418 625 l 1
 406 650 l 1
41 -245 m 2
 14 -224 -15 -153 -8 -122 c 0
 -4 -102 21 -82 43 -82 c 2
 61 -82 l 1
 64 -120 l 2
 67 -141 74 -166 81 -176 c 2
 93 -194 l 1
 130 -194 l 1
 166 -194 l 1
 204 -174 l 2
 252 -148 316 -73 353 0 c 2
 381 56 l 1
 396 153 l 1
 410 251 l 1
 404 323 l 2
 400 362 399 406 401 420 c 2
 405 446 l 1
 427 449 l 1
 451 452 l 1
 463 426 l 2
 469 412 475 364 478 320 c 2
 482 241 l 1
 457 118 l 1
 431 -5 l 1
 395 -61 l 2
 351 -131 283 -202 228 -235 c 2
 186 -260 l 1
 127 -263 l 1
 69 -267 l 1
 41 -245 l 2
EndSplineSet
EndChar

StartChar: k
Encoding: 107 107 10
Width: 516
Flags: HW
LayerCount: 2
Fore
SplineSet
392 15 m 0
 367 30 297 63 237 90 c 2
 128 139 l 1
 117 89 l 2
 111 62 101 33 96 24 c 2
 86 7 l 1
 63 7 l 1
 39 7 l 1
 37 24 l 2
 35 35 49 105 68 196 c 0
 95 323 134 490 162 593 c 0
 209 761 227 803 256 813 c 2
 273 819 l 1
 285 805 l 1
 296 790 l 1
 275 739 l 2
 256 693 193 442 168 324 c 0
 160 287 156 263 158 263 c 0
 162 263 236 296 322 335 c 2
 479 407 l 1
 494 401 l 1
 509 394 l 1
 504 370 l 1
 498 345 l 1
 346 276 l 2
 262 238 193 205 192 201 c 0
 191 197 228 177 276 156 c 0
 396 104 494 48 497 30 c 0
 497 27 498 25 497 22 c 0
 493 5 473 -13 455 -13 c 0
 454 -13 l 0
 445 -13 417 0 392 15 c 0
EndSplineSet
EndChar

StartChar: l
Encoding: 108 108 11
Width: 436
Flags: HW
LayerCount: 2
Fore
SplineSet
146 -10 m 0
 114 -2 82 45 76 95 c 0
 73 121 76 195 85 259 c 2
 101 376 l 1
 132 482 l 2
 188 670 249 805 280 816 c 0
 285 818 291 819 296 819 c 0
 313 819 324 807 320 788 c 0
 317 776 304 744 290 717 c 0
 254 648 189 457 170 367 c 0
 139 220 139 88 170 62 c 0
 175 58 183 56 192 56 c 0
 230 56 298 88 364 140 c 2
 403 170 l 1
 418 164 l 2
 426 161 434 150 436 140 c 2
 439 123 l 1
 370 69 l 1
 301 16 l 1
 249 0 l 2
 217 -10 199 -15 181 -15 c 0
 170 -15 159 -13 146 -10 c 0
EndSplineSet
EndChar

StartChar: m
Encoding: 109 109 12
Width: 781
Flags: HW
LayerCount: 2
Fore
SplineSet
43 46 m 1
 36 67 l 1
 88 259 l 2
 147 477 161 517 189 532 c 2
 209 543 l 1
 219 530 l 1
 228 518 l 1
 214 459 l 1
 199 400 l 1
 227 422 l 2
 267 453 351 487 391 487 c 0
 433 487 459 472 481 438 c 2
 498 412 l 1
 543 443 l 2
 569 460 607 479 629 486 c 2
 670 498 l 1
 705 492 l 1
 739 485 l 1
 773 450 l 1
 805 415 l 1
 813 369 l 1
 821 323 l 1
 800 244 l 1
 778 164 l 1
 744 111 l 1
 708 57 l 1
 688 51 l 2
 681 49 674 48 669 48 c 0
 656 48 650 56 653 72 c 0
 657 89 670 114 691 149 c 2
 725 205 l 1
 739 267 l 1
 753 328 l 1
 740 361 l 2
 733 379 713 402 696 411 c 2
 665 427 l 1
 638 421 l 2
 623 418 589 398 563 378 c 2
 515 341 l 1
 498 304 l 2
 489 283 468 232 453 189 c 0
 423 102 400 61 374 52 c 2
 357 46 l 1
 345 61 l 1
 333 76 l 1
 364 146 l 1
 395 216 l 1
 410 298 l 1
 426 381 l 1
 416 398 l 1
 405 415 l 1
 375 415 l 2
 318 415 236 359 179 282 c 2
 152 246 l 1
 124 139 l 1
 96 31 l 1
 73 28 l 1
 50 25 l 1
 43 46 l 1
EndSplineSet
EndChar

StartChar: n
Encoding: 110 110 13
Width: 479
Flags: HW
LayerCount: 2
Fore
SplineSet
46 32 m 2
 36 48 l 1
 70 199 l 2
 89 282 114 383 127 425 c 2
 151 501 l 1
 171 512 l 1
 190 522 l 1
 204 508 l 1
 218 494 l 1
 195 417 l 1
 171 340 l 1
 226 382 l 2
 290 431 347 456 395 456 c 0
 419 456 440 450 460 438 c 2
 492 419 l 1
 507 379 l 1
 521 339 l 1
 508 276 l 1
 494 213 l 1
 457 143 l 2
 415 63 403 47 376 47 c 0
 359 47 352 56 357 78 c 0
 361 95 371 119 389 153 c 0
 411 193 432 247 438 273 c 2
 449 321 l 1
 438 348 l 2
 427 372 409 385 384 385 c 0
 354 385 314 367 269 332 c 2
 214 290 l 1
 168 225 l 1
 122 160 l 1
 116 104 l 2
 114 87 112 71 109 58 c 0
 107 47 104 37 102 33 c 0
 96 22 85 17 74 17 c 0
 63 17 52 22 46 32 c 2
EndSplineSet
EndChar

StartChar: o
Encoding: 111 111 14
Width: 578
Flags: HW
LayerCount: 2
Fore
SplineSet
168 20 m 0
 154 25 128 39 111 51 c 2
 79 74 l 1
 66 115 l 1
 54 157 l 1
 73 225 l 1
 91 292 l 1
 124 338 l 2
 143 364 180 405 207 429 c 2
 256 472 l 1
 316 497 l 1
 375 522 l 1
 417 522 l 2
 471 522 539 500 573 472 c 2
 600 450 l 1
 611 402 l 1
 623 353 l 1
 611 295 l 1
 598 236 l 1
 565 190 l 2
 525 132 464 87 375 49 c 2
 305 19 l 1
 249 15 l 2
 241 14 233 14 225 14 c 0
 202 14 178 16 168 20 c 0
321 98 m 0
 347 107 391 126 418 141 c 2
 467 168 l 1
 499 209 l 1
 531 251 l 1
 542 300 l 1
 552 349 l 1
 515 396 l 1
 478 443 l 1
 427 448 l 1
 376 453 l 1
 326 431 l 2
 238 392 153 294 135 208 c 2
 126 166 l 1
 138 138 l 2
 154 103 192 84 241 84 c 0
 265 84 292 89 321 98 c 0
EndSplineSet
EndChar

StartChar: p
Encoding: 112 112 15
Width: 644
Flags: HW
LayerCount: 2
Fore
SplineSet
-45 -356 m 2
 -53 -341 l 1
 -25 -240 l 2
 64 82 164 399 187 437 c 2
 201 460 l 1
 223 457 l 1
 246 454 l 1
 242 422 l 1
 238 389 l 1
 297 424 l 2
 329 443 376 464 400 470 c 2
 445 481 l 1
 483 475 l 2
 542 465 587 434 627 376 c 2
 663 324 l 1
 667 285 l 1
 670 246 l 1
 655 208 l 1
 639 171 l 1
 592 132 l 1
 545 93 l 1
 480 70 l 2
 393 40 273 19 189 19 c 2
 120 19 l 1
 104 -30 l 2
 95 -57 72 -139 52 -212 c 0
 32 -285 11 -351 4 -358 c 0
 -5 -366 -14 -370 -22 -370 c 0
 -31 -370 -39 -365 -45 -356 c 2
302 96 m 0
 331 100 393 115 439 128 c 2
 523 152 l 1
 556 183 l 2
 577 203 589 222 593 242 c 0
 599 272 587 303 557 341 c 0
 522 384 483 405 437 405 c 0
 390 405 337 383 275 337 c 0
 218 295 192 254 164 165 c 2
 141 92 l 1
 158 87 l 2
 165 85 172 84 183 84 c 0
 203 84 237 88 302 96 c 0
EndSplineSet
EndChar

StartChar: q
Encoding: 113 113 16
Width: 577
Flags: HW
LayerCount: 2
Fore
SplineSet
405 -314 m 0
 403 -308 418 -228 440 -125 c 0
 444 -104 450 -81 455 -58 c 0
 465 -9 476 37 484 75 c 0
 498 142 507 186 505 186 c 0
 502 186 468 160 432 130 c 0
 346 59 266 23 196 23 c 0
 177 23 160 26 142 31 c 2
 103 42 l 1
 75 78 l 1
 47 115 l 1
 63 189 l 1
 80 262 l 1
 118 314 l 2
 179 398 279 465 397 503 c 0
 437 515 469 522 498 522 c 0
 547 522 584 503 612 463 c 2
 636 432 l 1
 579 173 l 2
 512 -132 468 -296 450 -314 c 0
 442 -322 432 -326 424 -326 c 0
 416 -326 408 -322 405 -314 c 0
267 104 m 2
 306 114 l 1
 371 163 l 1
 435 211 l 1
 477 272 l 2
 505 312 519 341 525 367 c 0
 529 386 528 404 522 423 c 2
 512 454 l 1
 467 449 l 2
 365 438 221 353 167 273 c 0
 146 242 133 214 128 190 c 0
 116 132 146 95 208 95 c 0
 225 95 245 98 267 104 c 2
EndSplineSet
EndChar

StartChar: r
Encoding: 114 114 17
Width: 533
Flags: HW
LayerCount: 2
Fore
SplineSet
52 49 m 0
 50 59 66 162 88 279 c 2
 127 491 l 1
 144 507 l 2
 154 517 161 522 167 522 c 0
 172 522 177 519 185 513 c 2
 197 504 l 1
 191 441 l 1
 183 378 l 1
 246 425 l 2
 281 451 336 483 369 497 c 2
 429 522 l 1
 513 522 l 1
 597 522 l 1
 603 501 l 1
 611 480 l 1
 596 466 l 1
 581 452 l 1
 504 454 l 1
 425 455 l 1
 385 436 l 2
 326 408 222 330 182 285 c 2
 147 246 l 1
 132 149 l 1
 116 52 l 1
 103 42 l 2
 95 35 85 31 76 31 c 0
 64 31 55 38 52 49 c 0
EndSplineSet
EndChar

StartChar: s
Encoding: 115 115 18
Width: 468
Flags: HW
LayerCount: 2
Fore
SplineSet
113 25 m 2
 76 39 63 56 68 80 c 0
 71 93 81 99 100 99 c 0
 116 99 137 95 166 87 c 2
 230 71 l 1
 290 81 l 2
 323 87 360 100 373 110 c 2
 396 127 l 1
 399 153 l 1
 401 178 l 1
 366 211 l 2
 347 229 288 260 237 282 c 2
 144 321 l 1
 122 349 l 1
 100 377 l 1
 107 407 l 2
 116 448 176 516 228 542 c 2
 271 563 l 1
 326 563 l 1
 381 563 l 1
 401 547 l 1
 421 531 l 1
 410 493 l 1
 399 456 l 1
 374 452 l 1
 349 449 l 1
 348 470 l 1
 348 492 l 1
 325 498 l 1
 301 504 l 1
 261 485 l 2
 239 475 209 454 197 439 c 2
 175 411 l 1
 184 396 l 2
 189 388 220 371 252 358 c 0
 284 345 340 319 374 299 c 2
 435 263 l 1
 458 227 l 1
 480 190 l 1
 471 148 l 1
 462 105 l 1
 434 77 l 2
 419 61 385 40 360 30 c 2
 314 11 l 1
 232 11 l 1
 150 11 l 1
 113 25 l 2
EndSplineSet
EndChar

StartChar: t
Encoding: 116 116 19
Width: 612
Flags: HW
LayerCount: 2
Fore
SplineSet
280 41 m 1
 251 61 l 1
 237 104 l 1
 224 148 l 1
 230 240 l 2
 233 291 246 382 259 442 c 2
 282 552 l 1
 220 555 l 1
 158 558 l 1
 151 575 l 1
 144 592 l 1
 160 608 l 1
 178 625 l 1
 242 625 l 1
 306 625 l 1
 323 673 l 2
 333 700 350 737 362 755 c 2
 382 788 l 1
 407 788 l 2
 429 788 438 781 434 760 c 0
 431 748 424 732 413 711 c 0
 399 684 386 654 384 644 c 2
 380 625 l 1
 539 622 l 1
 700 620 l 1
 706 602 l 1
 713 585 l 1
 697 569 l 1
 680 553 l 1
 519 553 l 1
 358 553 l 1
 340 505 l 2
 337 495 334 481 330 464 c 0
 312 381 295 230 300 178 c 0
 302 152 310 123 318 112 c 2
 332 92 l 1
 365 92 l 2
 410 92 462 110 522 146 c 2
 572 176 l 1
 586 170 l 2
 593 167 601 157 603 147 c 2
 605 129 l 1
 559 96 l 2
 502 55 409 21 351 21 c 2
 308 21 l 1
 280 41 l 1
EndSplineSet
EndChar

StartChar: u
Encoding: 117 117 20
Width: 468
Flags: HW
LayerCount: 2
Fore
SplineSet
392 42 m 0
 387 49 383 75 382 99 c 2
 379 142 l 1
 325 107 l 2
 276 75 230 60 191 60 c 0
 134 60 90 93 74 157 c 2
 64 198 l 1
 83 286 l 1
 101 373 l 1
 130 434 l 2
 163 503 178 521 206 521 c 0
 223 521 230 512 225 490 c 0
 222 476 214 456 201 430 c 2
 173 371 l 1
 156 290 l 1
 138 209 l 1
 146 184 l 2
 150 170 163 151 176 140 c 2
 198 120 l 1
 241 137 l 2
 265 146 307 170 332 191 c 2
 379 229 l 1
 395 265 l 2
 404 285 427 351 444 413 c 0
 461 475 481 535 488 545 c 2
 502 563 l 1
 523 560 l 1
 544 557 l 1
 529 485 l 2
 521 446 499 363 481 301 c 2
 448 188 l 1
 452 124 l 1
 457 60 l 1
 442 45 l 2
 432 35 420 30 411 30 c 0
 403 30 397 34 392 42 c 0
EndSplineSet
EndChar

StartChar: v
Encoding: 118 118 21
Width: 526
Flags: HW
LayerCount: 2
Fore
SplineSet
257 46 m 0
 215 99 148 309 134 429 c 2
 126 499 l 1
 146 515 l 1
 166 532 l 1
 180 522 l 2
 188 516 200 472 209 424 c 0
 227 321 248 246 281 170 c 2
 304 115 l 1
 359 211 l 2
 412 307 489 429 536 497 c 2
 561 532 l 1
 586 532 l 1
 611 532 l 1
 611 514 l 2
 611 504 582 451 548 398 c 0
 514 345 452 243 412 172 c 0
 372 101 332 39 324 34 c 0
 314 29 305 26 296 26 c 0
 281 26 267 33 257 46 c 0
EndSplineSet
EndChar

StartChar: w
Encoding: 119 119 22
Width: 952
Flags: HW
LayerCount: 2
Fore
SplineSet
554 57 m 2
 519 109 502 188 504 283 c 0
 505 327 505 374 505 387 c 2
 505 411 l 1
 486 389 l 2
 475 377 416 302 357 222 c 0
 298 142 238 66 223 53 c 0
 206 38 190 30 178 30 c 0
 155 30 141 56 131 110 c 0
 120 175 112 437 121 477 c 2
 128 510 l 1
 151 521 l 1
 173 531 l 1
 184 509 l 2
 190 496 193 475 190 463 c 0
 184 434 194 170 202 147 c 2
 208 129 l 1
 291 242 l 2
 386 372 505 509 534 525 c 2
 554 536 l 1
 570 525 l 1
 584 514 l 1
 579 382 l 2
 572 232 577 171 604 127 c 2
 622 96 l 1
 671 168 l 2
 727 252 881 449 956 534 c 2
 1008 594 l 1
 1030 591 l 2
 1044 588 1051 576 1050 570 c 0
 1047 558 1007 499 957 438 c 0
 906 375 814 256 754 174 c 2
 645 24 l 1
 612 21 l 1
 580 18 l 1
 554 57 l 2
EndSplineSet
EndChar

StartChar: x
Encoding: 120 120 23
Width: 767
Flags: HW
LayerCount: 2
Fore
SplineSet
511 31 m 5
 451 53 l 5
 419 91 l 5
 387 129 l 5
 369 115 l 6
 359 107 328 91 301 79 c 6
 252 57 l 5
 194 52 l 6
 124 46 71 54 55 75 c 6
 43 90 l 5
 57 109 l 5
 71 128 l 5
 149 122 l 5
 227 116 l 5
 288 144 l 6
 366 180 382 194 413 260 c 4
 427 290 443 322 449 331 c 6
 459 348 l 5
 432 363 l 6
 417 371 388 381 366 385 c 6
 326 392 l 5
 280 375 l 6
 222 354 169 311 151 267 c 6
 137 234 l 5
 115 231 l 5
 93 228 l 5
 86 249 l 5
 79 270 l 5
 93 301 l 5
 106 333 l 5
 166 381 l 5
 226 429 l 5
 284 445 l 5
 342 461 l 5
 383 454 l 6
 434 446 475 430 493 411 c 6
 506 397 l 5
 551 427 l 6
 605 463 655 479 710 479 c 6
 751 479 l 5
 791 456 l 5
 831 434 l 5
 827 403 l 5
 823 372 l 5
 805 360 l 6
 782 344 758 353 757 378 c 4
 755 428 626 415 561 358 c 6
 535 335 l 5
 526 296 l 5
 518 257 l 5
 487 217 l 5
 457 178 l 5
 464 161 l 6
 475 135 523 100 566 88 c 6
 604 77 l 5
 662 83 l 5
 719 90 l 5
 729 74 l 5
 739 58 l 5
 714 38 l 5
 690 17 l 5
 630 13 l 5
 570 9 l 5
 511 31 l 5
EndSplineSet
EndChar

StartChar: y
Encoding: 121 121 24
Width: 649
Flags: HW
LayerCount: 2
Fore
SplineSet
-1 -485 m 5
 -19 -460 l 5
 -13 -411 l 5
 -8 -362 l 5
 21 -306 l 6
 37 -275 71 -222 98 -188 c 4
 143 -131 278 -12 370 52 c 6
 408 79 l 5
 420 135 l 6
 427 166 430 191 427 191 c 4
 424 191 399 164 370 131 c 4
 341 98 298 59 275 44 c 6
 234 17 l 5
 181 13 l 6
 152 11 117 14 103 20 c 4
 71 33 51 83 55 139 c 6
 58 182 l 5
 88 248 l 6
 105 284 136 338 158 369 c 6
 197 426 l 5
 219 429 l 6
 231 431 244 425 249 417 c 6
 258 403 l 5
 214 340 l 6
 190 305 161 252 148 223 c 6
 124 170 l 5
 126 133 l 5
 127 96 l 5
 151 83 l 5
 175 71 l 5
 205 81 l 6
 222 87 248 101 263 113 c 4
 310 150 397 258 436 328 c 4
 457 366 482 401 492 406 c 6
 510 416 l 5
 525 405 l 5
 540 394 l 5
 514 258 l 5
 488 122 l 5
 552 156 l 6
 623 194 645 198 659 176 c 4
 673 153 655 134 592 105 c 4
 560 90 517 68 497 55 c 6
 461 32 l 5
 437 -58 l 5
 412 -147 l 5
 371 -219 l 6
 278 -385 142 -509 52 -509 c 6
 17 -509 l 5
 -1 -485 l 5
157 -391 m 6
 249 -313 350 -154 370 -53 c 6
 378 -14 l 5
 275 -101 l 5
 173 -188 l 5
 127 -253 l 6
 82 -317 50 -394 55 -424 c 4
 56 -433 66 -439 78 -439 c 6
 99 -439 l 5
 157 -391 l 6
EndSplineSet
EndChar

StartChar: z
Encoding: 122 122 25
Width: 722
Flags: HW
LayerCount: 2
Fore
SplineSet
52 24 m 6
 29 53 27 52 173 152 c 4
 396 305 477 362 475 364 c 4
 474 365 423 362 361 357 c 6
 249 347 l 5
 198 328 l 6
 120 299 86 308 95 352 c 4
 99 371 104 374 154 384 c 6
 183 390 l 5
 189 420 l 5
 196 450 l 5
 226 475 l 6
 258 501 287 506 315 489 c 6
 332 479 l 5
 325 449 l 5
 319 420 l 5
 337 420 l 6
 347 420 409 426 476 434 c 6
 597 449 l 5
 614 439 l 6
 623 433 629 420 627 410 c 6
 623 392 l 5
 520 318 l 6
 463 277 371 212 315 174 c 4
 259 136 215 103 216 101 c 4
 217 99 327 107 460 119 c 6
 701 141 l 5
 713 129 l 6
 728 114 726 105 704 87 c 6
 687 72 l 5
 541 60 l 6
 381 47 147 23 97 14 c 6
 65 8 l 5
 52 24 l 6
EndSplineSet
EndChar

StartChar: braceleft
Encoding: 123 123 26
Width: 576
Flags: HW
LayerCount: 2
Fore
SplineSet
179 -127 m 2
 164 -112 148 -86 142 -68 c 2
 131 -36 l 1
 137 -17 l 1
 158 76 161 72 169 96 c 2
 185 139 l 1
 140 161 l 2
 83 188 66 208 72 238 c 2
 77 263 l 1
 128 291 l 2
 156 306 194 326 212 335 c 2
 246 351 l 1
 271 419 l 1
 313 566 l 1
 346 622 l 2
 410 731 489 786 579 786 c 0
 635 786 664 770 684 726 c 2
 700 691 l 1
 690 644 l 1
 680 596 l 1
 659 573 l 1
 638 550 l 1
 617 553 l 1
 595 556 l 1
 604 587 l 2
 609 604 616 630 620 645 c 2
 628 673 l 1
 615 694 l 1
 600 715 l 1
 561 715 l 1
 522 715 l 1
 479 683 l 1
 435 651 l 1
 399 580 l 1
 362 509 l 1
 326 369 l 1
 306 308 l 1
 234 274 l 1
 161 239 l 1
 183 225 l 2
 196 218 219 211 237 211 c 2
 269 211 l 1
 272 191 l 2
 272 187 271 181 270 174 c 0
 267 161 262 146 255 132 c 0
 245 111 237 115 214 19 c 1
 203 -5 l 1
 213 -41 l 1
 225 -77 l 1
 250 -80 l 2
 253 -80 256 -81 259 -81 c 0
 310 -81 386 -36 438 23 c 2
 463 51 l 1
 482 51 l 2
 492 51 505 44 510 35 c 2
 520 19 l 1
 493 -17 l 2
 437 -91 321 -153 238 -153 c 2
 205 -153 l 1
 179 -127 l 2
EndSplineSet
EndChar

StartChar: braceright
Encoding: 125 125 27
Width: 574
Flags: HW
LayerCount: 2
Fore
SplineSet
342 -127 m 2
 304 -153 l 1
 271 -153 l 2
 188 -153 98 -91 74 -17 c 2
 63 19 l 1
 79 35 l 2
 88 44 105 51 115 51 c 2
 134 51 l 1
 147 23 l 2
 173 -36 231 -81 282 -81 c 0
 285 -81 288 -80 291 -80 c 2
 318 -77 l 1
 344 -41 l 1
 370 -5 l 1
 369 19 l 1
 386 115 378 111 376 132 c 0
 375 146 376 161 379 174 c 0
 380 181 383 187 385 191 c 2
 396 211 l 1
 428 211 l 2
 446 211 473 218 488 225 c 2
 516 239 l 1
 457 274 l 1
 399 308 l 1
 405 369 l 1
 429 509 l 1
 422 580 l 1
 416 651 l 1
 386 683 l 1
 357 715 l 1
 318 715 l 1
 279 715 l 1
 256 694 l 1
 233 673 l 1
 229 645 l 2
 227 630 224 604 221 587 c 2
 216 556 l 1
 194 553 l 1
 171 550 l 1
 160 573 l 1
 149 596 l 1
 159 644 l 1
 169 691 l 1
 199 726 l 2
 237 770 274 786 330 786 c 0
 420 786 475 731 493 622 c 2
 502 566 l 1
 482 419 l 1
 479 351 l 1
 505 335 l 2
 519 326 549 306 571 291 c 2
 610 263 l 1
 605 238 l 2
 599 208 572 188 503 161 c 2
 450 139 l 1
 446 96 l 2
 444 72 449 76 430 -17 c 1
 428 -36 l 1
 405 -68 l 2
 391 -86 363 -112 342 -127 c 2
EndSplineSet
EndChar

StartChar: bar
Encoding: 124 124 28
Width: 126
Flags: HW
LayerCount: 2
Fore
SplineSet
51 28 m 2
 41 45 l 1
 122 430 l 1
 204 815 l 1
 224 819 l 2
 226 819 228 820 230 820 c 0
 239 820 249 816 253 811 c 2
 263 799 l 1
 238 684 l 2
 225 621 190 449 161 301 c 0
 153 261 145 224 138 189 c 0
 118 95 102 26 98 22 c 0
 93 15 85 12 78 12 c 0
 68 12 58 17 51 28 c 2
EndSplineSet
EndChar

StartChar: oe
Encoding: 189 339 30
Width: 1048
Flags: HW
LayerCount: 2
Fore
SplineSet
898 362 m 2
 926 379 960 407 975 426 c 2
 1002 460 l 1
 993 471 l 2
 988 477 965 484 941 487 c 2
 896 492 l 1
 832 475 l 2
 746 452 675 413 648 376 c 2
 626 346 l 1
 637 341 l 2
 661 333 692 328 741 328 c 0
 751 328 761 329 773 329 c 2
 847 331 l 1
 898 362 l 2
321 98 m 0
 347 107 391 126 418 141 c 2
 467 168 l 1
 499 209 l 1
 522 238 l 1
 525 255 l 1
 540 323 l 1
 551 343 l 1
 552 349 l 1
 515 396 l 1
 478 443 l 1
 427 448 l 1
 376 453 l 1
 326 431 l 2
 238 392 153 294 135 208 c 2
 126 166 l 1
 138 138 l 2
 154 103 192 84 241 84 c 0
 265 84 292 89 321 98 c 0
168 20 m 0
 154 25 128 39 111 51 c 2
 79 74 l 1
 66 115 l 1
 54 157 l 1
 73 225 l 1
 91 292 l 1
 124 338 l 2
 143 364 180 405 207 429 c 2
 256 472 l 1
 316 497 l 1
 375 522 l 1
 417 522 l 2
 471 522 539 500 573 472 c 2
 600 450 l 1
 607 422 l 1
 671 487 772 536 885 553 c 2
 956 563 l 1
 997 551 l 2
 1020 544 1048 528 1059 514 c 2
 1079 488 l 1
 1065 452 l 2
 1037 375 928 288 830 263 c 2
 786 252 l 1
 702 259 l 2
 659 263 617 268 606 271 c 1
 598 236 l 1
 587 219 l 1
 587 145 623 110 715 89 c 2
 769 77 l 1
 835 88 l 2
 871 94 930 111 964 125 c 0
 996 138 1017 145 1031 145 c 0
 1048 145 1052 135 1048 115 c 2
 1043 91 l 1
 989 66 l 2
 912 31 841 14 770 14 c 0
 748 14 726 16 704 19 c 0
 596 35 542 70 523 140 c 1
 486 105 437 75 375 49 c 2
 305 19 l 1
 249 15 l 2
 241 14 233 14 225 14 c 0
 202 14 178 16 168 20 c 0
EndSplineSet
EndChar

StartChar: question
Encoding: 63 63 31
Width: 560
Flags: HW
LayerCount: 2
Fore
SplineSet
359 224 m 1
 374 203 l 1
 366 167 l 2
 355 116 319 69 209 -34 c 0
 87 -149 53 -189 43 -234 c 0
 30 -296 76 -352 152 -365 c 2
 189 -372 l 1
 247 -349 l 1
 304 -326 l 1
 347 -286 l 1
 391 -245 l 1
 418 -183 l 1
 445 -121 l 1
 463 -111 l 1
 483 -100 l 1
 497 -114 l 1
 511 -129 l 1
 494 -175 l 2
 457 -280 381 -362 279 -407 c 2
 217 -435 l 1
 159 -435 l 1
 101 -435 l 1
 56 -410 l 1
 10 -386 l 1
 -12 -347 l 1
 -35 -309 l 1
 -28 -253 l 1
 -20 -196 l 1
 18 -142 l 2
 39 -112 102 -45 158 7 c 0
 265 106 288 130 293 155 c 2
 296 170 l 1
 267 181 l 2
 247 188 242 200 244 211 c 0
 248 228 272 244 309 244 c 2
 343 244 l 1
 359 224 l 1
380 433 m 2
 400 417 l 1
 394 392 l 1
 389 367 l 1
 359 350 l 1
 330 333 l 1
 297 350 l 1
 266 367 l 1
 270 387 l 2
 276 413 317 449 342 449 c 0
 352 449 369 442 380 433 c 2
EndSplineSet
EndChar

StartChar: exclam
Encoding: 33 33 33
Width: 163
Flags: HW
LayerCount: 2
Fore
SplineSet
95 144 m 2
 86 156 l 1
 147 469 l 1
 206 782 l 1
 224 801 l 1
 241 819 l 1
 260 815 l 1
 280 812 l 1
 213 485 l 1
 146 159 l 1
 132 145 l 2
 123 136 116 132 110 132 c 0
 104 132 99 136 95 144 c 2
35 -37 m 2
 15 -22 l 1
 21 3 l 1
 26 28 l 1
 56 45 l 1
 85 62 l 1
 118 46 l 1
 149 29 l 1
 145 8 l 2
 139 -18 98 -53 73 -53 c 0
 63 -53 46 -46 35 -37 c 2
EndSplineSet
EndChar

StartChar: quotedbl
Encoding: 34 34 34
Width: 257
Flags: HW
LayerCount: 2
Fore
SplineSet
291 585 m 2
 278 603 l 1
 300 675 l 2
 313 715 329 763 337 783 c 2
 352 819 l 1
 378 819 l 1
 403 819 l 1
 376 707 l 1
 348 594 l 1
 334 581 l 2
 325 573 320 569 314 569 c 0
 307 569 300 574 291 585 c 2
168 585 m 2
 155 603 l 1
 177 675 l 2
 190 715 206 763 214 783 c 2
 230 819 l 1
 255 819 l 1
 280 819 l 1
 253 707 l 1
 225 594 l 1
 212 581 l 2
 203 573 197 569 191 569 c 0
 184 569 177 574 168 585 c 2
EndSplineSet
EndChar

StartChar: numbersign
Encoding: 35 35 35
Width: 722
Flags: HW
LayerCount: 2
Fore
SplineSet
184 31 m 0
 183 33 185 39 186 45 c 0
 190 63 198 92 209 123 c 0
 224 165 239 209 241 220 c 2
 245 240 l 1
 214 240 l 2
 164 240 98 261 95 278 c 0
 94 287 99 300 107 308 c 2
 121 322 l 1
 199 316 l 1
 277 309 l 1
 292 349 l 2
 301 371 310 399 313 412 c 2
 317 435 l 1
 241 435 l 2
 199 435 154 440 141 445 c 2
 117 455 l 1
 122 481 l 1
 128 506 l 1
 141 507 l 2
 145 507 159 508 179 508 c 0
 199 508 226 507 253 507 c 2
 350 505 l 1
 375 564 l 2
 438 717 467 768 496 768 c 0
 499 768 503 767 507 766 c 2
 520 760 l 1
 513 728 l 2
 509 710 487 657 466 609 c 0
 445 561 427 518 426 514 c 0
 425 509 441 507 460 507 c 0
 481 507 506 510 515 515 c 0
 523 519 549 568 572 623 c 0
 595 678 618 728 622 733 c 0
 627 739 636 742 645 742 c 0
 658 742 671 735 675 724 c 2
 680 705 l 1
 652 639 l 2
 636 603 619 562 613 550 c 2
 603 528 l 1
 708 525 l 1
 812 522 l 1
 806 496 l 1
 801 471 l 1
 687 460 l 1
 572 450 l 1
 547 390 l 1
 523 330 l 1
 603 338 l 2
 647 342 694 345 707 346 c 2
 731 348 l 1
 739 330 l 1
 746 312 l 1
 728 297 l 1
 710 282 l 1
 599 269 l 1
 489 256 l 1
 448 158 l 2
 400 46 392 35 364 35 c 0
 346 35 339 43 345 70 c 0
 349 89 359 116 375 155 c 0
 393 196 405 233 407 244 c 0
 408 248 408 248 397 248 c 0
 388 248 374 247 361 245 c 2
 319 238 l 1
 287 144 l 2
 269 93 248 43 241 33 c 0
 233 22 218 16 206 16 c 0
 195 16 186 21 184 31 c 0
413 318 m 2
 446 324 l 1
 466 369 l 2
 477 393 488 420 490 428 c 2
 493 443 l 1
 448 438 l 2
 423 435 401 430 396 426 c 0
 391 422 379 396 369 366 c 2
 350 312 l 1
 365 312 l 2
 373 312 395 315 413 318 c 2
EndSplineSet
EndChar

StartChar: dollar
Encoding: 36 36 36
Width: 589
Flags: HW
LayerCount: 2
Fore
SplineSet
219 -143 m 0
 214 -136 215 -103 220 -70 c 2
 230 -9 l 1
 168 4 l 2
 94 20 54 47 60 74 c 0
 61 81 66 88 74 95 c 2
 92 110 l 1
 141 90 l 2
 168 79 205 69 223 69 c 2
 255 69 l 1
 258 117 l 2
 260 143 268 197 277 237 c 2
 293 310 l 1
 228 330 l 1
 163 349 l 1
 136 382 l 1
 110 415 l 1
 120 460 l 1
 129 505 l 1
 167 558 l 1
 204 610 l 1
 264 646 l 2
 297 666 339 685 355 689 c 2
 385 696 l 1
 394 739 l 2
 399 763 412 791 421 801 c 2
 438 819 l 1
 459 812 l 1
 480 805 l 1
 470 757 l 1
 459 708 l 1
 521 707 l 1
 584 705 l 1
 604 689 l 1
 626 673 l 1
 621 647 l 2
 617 626 606 616 590 616 c 0
 581 616 570 620 556 627 c 0
 541 636 510 643 488 643 c 2
 448 643 l 1
 412 509 l 1
 376 375 l 1
 383 367 l 2
 387 363 415 351 447 341 c 0
 522 317 577 282 597 243 c 2
 612 212 l 1
 605 176 l 1
 599 141 l 1
 572 113 l 2
 536 76 473 43 382 17 c 2
 308 -5 l 1
 295 -64 l 1
 283 -124 l 1
 263 -140 l 2
 251 -150 242 -155 235 -155 c 0
 229 -155 224 -151 219 -143 c 0
436 102 m 0
 465 113 500 134 514 148 c 2
 540 174 l 1
 533 193 l 2
 524 220 493 242 422 270 c 2
 360 294 l 1
 336 181 l 1
 312 68 l 1
 348 75 l 2
 367 79 407 91 436 102 c 0
324 440 m 2
 334 470 349 523 356 558 c 2
 369 622 l 1
 358 622 l 2
 352 622 325 609 297 592 c 2
 246 562 l 1
 222 526 l 2
 206 504 197 483 193 466 c 0
 189 449 192 436 200 428 c 0
 213 415 275 388 295 387 c 2
 306 387 l 1
 324 440 l 2
EndSplineSet
EndChar

StartChar: percent
Encoding: 37 37 37
Width: 752
Flags: HW
LayerCount: 2
Fore
SplineSet
168 508 m 1
 145 532 l 1
 152 590 l 1
 160 649 l 1
 183 694 l 2
 223 775 318 848 409 867 c 0
 418 869 427 870 435 870 c 0
 466 870 487 853 514 808 c 2
 544 759 l 1
 535 713 l 2
 530 688 514 651 501 632 c 0
 471 588 393 529 333 504 c 2
 286 485 l 1
 238 485 l 1
 190 484 l 1
 168 508 l 1
349 584 m 0
 407 616 457 670 466 710 c 0
 474 747 474 747 416 770 c 2
 368 789 l 1
 334 771 l 1
 300 753 l 1
 268 706 l 1
 235 660 l 1
 226 616 l 1
 216 573 l 1
 231 560 l 1
 246 546 l 1
 274 552 l 2
 290 555 323 570 349 584 c 0
66 20 m 0
 64 23 62 27 63 31 c 0
 67 50 118 98 324 332 c 0
 474 503 575 631 612 679 c 0
 649 727 661 740 690 777 c 2
 742 844 l 1
 767 844 l 1
 793 844 l 1
 792 821 l 1
 790 799 l 1
 704 692 l 2
 633 603 534 482 481 423 c 0
 428 364 368 288 285 192 c 0
 202 96 142 49 130 36 c 0
 116 21 98 13 84 13 c 0
 77 13 70 15 66 20 c 0
412 -2 m 2
 399 6 382 29 374 48 c 2
 359 82 l 1
 372 139 l 1
 383 195 l 1
 437 256 l 2
 466 290 514 330 539 346 c 2
 585 374 l 1
 632 379 l 1
 679 384 l 1
 728 347 l 2
 786 303 792 286 779 226 c 2
 770 182 l 1
 723 126 l 1
 676 70 l 1
 614 29 l 1
 553 -11 l 1
 494 -14 l 1
 435 -18 l 1
 412 -2 l 2
568 75 m 0
 618 102 654 135 688 187 c 2
 717 232 l 1
 712 249 l 2
 709 258 692 269 675 273 c 0
 658 277 637 287 629 296 c 2
 615 312 l 1
 581 296 l 2
 536 275 471 212 447 166 c 2
 428 129 l 1
 436 99 l 2
 444 70 471 49 498 49 c 0
 503 49 508 50 512 51 c 0
 524 54 549 65 568 75 c 0
EndSplineSet
EndChar

StartChar: ampersand
Encoding: 38 38 38
Width: 838
Flags: HW
LayerCount: 2
Fore
SplineSet
96 15 m 2
 57 37 l 1
 48 66 l 2
 43 83 43 101 47 122 c 0
 58 174 101 241 185 338 c 2
 240 402 l 1
 222 465 l 1
 203 529 l 1
 217 591 l 1
 230 654 l 1
 257 687 l 2
 272 705 305 733 332 750 c 2
 381 780 l 1
 439 792 l 2
 461 796 481 799 497 799 c 0
 534 799 556 787 570 764 c 0
 580 748 583 732 579 713 c 0
 570 671 525 612 424 504 c 0
 380 457 342 413 341 406 c 0
 338 392 507 229 525 229 c 0
 532 229 616 295 711 377 c 0
 806 459 890 526 897 526 c 0
 904 526 911 517 915 506 c 2
 922 487 l 1
 884 447 l 2
 863 425 787 358 713 297 c 0
 640 237 583 187 582 183 c 0
 581 178 676 118 710 106 c 0
 730 99 746 87 747 78 c 0
 747 75 747 71 746 68 c 0
 742 50 721 34 698 34 c 0
 675 34 584 81 540 115 c 2
 514 135 l 1
 429 85 l 1
 343 35 l 1
 272 14 l 2
 227 1 196 -5 170 -5 c 0
 143 -5 121 1 96 15 c 2
302 92 m 0
 351 111 444 165 446 176 c 0
 447 180 428 202 404 224 c 0
 380 246 344 282 324 303 c 0
 304 324 285 341 280 341 c 0
 268 341 177 235 145 184 c 0
 133 165 123 141 120 125 c 0
 120 123 118 120 118 118 c 2
 115 91 l 1
 138 77 l 1
 161 64 l 1
 210 70 l 2
 237 73 279 83 302 92 c 0
384 554 m 0
 464 639 499 684 504 708 c 0
 505 711 506 715 505 717 c 2
 503 733 l 1
 459 726 l 2
 405 718 364 699 324 664 c 2
 293 637 l 1
 285 594 l 2
 277 550 288 474 302 474 c 0
 307 474 344 510 384 554 c 0
EndSplineSet
EndChar

StartChar: quotesingle
Encoding: 39 39 39
Width: 134
Flags: HW
LayerCount: 2
Fore
SplineSet
168 585 m 2
 155 603 l 1
 177 675 l 2
 190 715 206 763 214 783 c 2
 230 819 l 1
 255 819 l 1
 280 819 l 1
 253 707 l 1
 225 594 l 1
 212 581 l 2
 203 573 197 569 191 569 c 0
 184 569 177 574 168 585 c 2
EndSplineSet
EndChar

StartChar: parenleft
Encoding: 40 40 40
Width: 404
Flags: HW
LayerCount: 2
Fore
SplineSet
252 44 m 0
 193 77 119 170 102 232 c 2
 89 280 l 1
 103 367 l 1
 119 454 l 1
 152 518 l 2
 199 607 274 701 349 765 c 2
 413 819 l 1
 434 816 l 2
 446 814 458 805 462 796 c 2
 470 779 l 1
 407 729 l 2
 331 667 282 610 230 522 c 2
 191 455 l 1
 177 393 l 2
 176 390 176 387 175 384 c 0
 152 278 174 215 255 140 c 2
 303 97 l 1
 348 91 l 1
 395 86 l 1
 394 66 l 1
 394 46 l 1
 373 33 l 2
 359 24 344 20 328 20 c 0
 306 20 282 28 252 44 c 0
EndSplineSet
EndChar

StartChar: parenright
Encoding: 41 41 41
Width: 301
Flags: HW
LayerCount: 2
Fore
SplineSet
34 36 m 1
 31 52 l 1
 92 100 l 1
 154 147 l 1
 193 201 l 2
 214 230 244 281 259 313 c 0
 277 351 291 395 300 439 c 0
 327 567 318 703 268 752 c 2
 246 773 l 1
 255 793 l 1
 263 813 l 1
 290 816 l 1
 317 819 l 1
 345 776 l 2
 391 703 400 576 373 448 c 0
 362 395 345 342 321 292 c 0
 273 190 221 122 148 65 c 2
 89 19 l 1
 63 19 l 1
 37 19 l 1
 34 36 l 1
EndSplineSet
EndChar

StartChar: asterisk
Encoding: 42 42 42
Width: 422
Flags: HW
LayerCount: 2
Fore
SplineSet
299 529 m 0
 296 533 297 552 301 571 c 2
 309 607 l 1
 284 599 l 2
 270 595 243 591 223 590 c 2
 187 589 l 1
 187 609 l 1
 187 628 l 1
 207 640 l 1
 226 652 l 1
 199 674 l 1
 174 697 l 1
 178 717 l 2
 180 728 191 741 201 744 c 2
 219 751 l 1
 267 724 l 2
 290 711 311 703 319 703 c 0
 320 703 323 704 323 704 c 0
 327 707 335 727 339 748 c 0
 350 798 362 819 383 819 c 0
 409 819 421 799 414 766 c 2
 408 737 l 1
 455 758 l 1
 502 780 l 1
 514 764 l 1
 528 747 l 1
 513 729 l 2
 505 719 480 702 459 689 c 2
 421 666 l 1
 434 661 l 2
 442 659 465 653 487 648 c 2
 526 639 l 1
 523 612 l 1
 520 585 l 1
 500 580 l 2
 497 579 492 579 486 579 c 0
 474 579 457 581 442 584 c 0
 420 589 395 594 386 594 c 2
 368 594 l 1
 358 561 l 1
 348 527 l 1
 326 524 l 2
 315 522 302 525 299 529 c 0
EndSplineSet
EndChar

StartChar: plus
Encoding: 43 43 43
Width: 576
Flags: HW
LayerCount: 2
Fore
SplineSet
325 343 m 0
 323 347 326 366 331 391 c 0
 334 404 337 418 341 432 c 2
 360 510 l 1
 266 507 l 2
 252 506 238 506 225 506 c 0
 189 506 160 508 152 511 c 2
 132 518 l 1
 136 536 l 2
 138 546 147 560 155 566 c 2
 172 577 l 1
 279 580 l 1
 387 583 l 1
 413 692 l 1
 438 801 l 1
 455 812 l 2
 464 818 478 821 486 818 c 2
 501 811 l 1
 500 775 l 2
 499 763 496 739 491 714 c 0
 487 697 482 680 478 664 c 2
 456 589 l 1
 566 591 l 1
 675 593 l 1
 675 574 l 2
 675 571 675 568 674 565 c 0
 669 541 641 533 549 526 c 0
 494 522 446 516 442 513 c 0
 438 510 423 473 409 430 c 0
 395 387 380 348 376 342 c 0
 371 336 360 332 349 332 c 0
 338 332 328 336 325 343 c 0
EndSplineSet
EndChar

StartChar: comma
Encoding: 44 44 44
Width: 248
Flags: HW
LayerCount: 2
Fore
SplineSet
-7 -169 m 2
 -8 -163 -8 -158 -7 -153 c 0
 -3 -136 13 -123 39 -118 c 0
 57 -114 83 -101 98 -88 c 2
 127 -63 l 1
 140 -23 l 1
 155 18 l 1
 145 55 l 2
 141 72 140 86 142 97 c 0
 146 114 157 123 177 123 c 2
 201 123 l 1
 213 92 l 2
 219 75 220 36 217 7 c 2
 211 -46 l 1
 178 -92 l 1
 145 -138 l 1
 105 -161 l 1
 65 -184 l 1
 31 -184 l 1
 -4 -184 l 1
 -7 -169 l 2
EndSplineSet
EndChar

StartChar: hyphen
Encoding: 45 45 45
Width: 462
Flags: HW
LayerCount: 2
Fore
SplineSet
159 385 m 0
 141 389 124 399 120 406 c 2
 115 420 l 1
 127 435 l 1
 140 451 l 1
 326 448 l 2
 429 446 517 441 521 436 c 0
 525 431 524 419 520 409 c 2
 512 390 l 1
 454 383 l 2
 417 379 361 377 306 377 c 0
 242 377 181 380 159 385 c 0
EndSplineSet
EndChar

StartChar: period
Encoding: 46 46 46
Width: 179
Flags: HW
LayerCount: 2
Fore
SplineSet
47 -18 m 2
 28 -2 l 1
 33 23 l 1
 38 48 l 1
 68 65 l 1
 97 82 l 1
 130 65 l 1
 161 48 l 1
 157 28 l 2
 151 2 110 -34 85 -34 c 0
 75 -34 58 -27 47 -18 c 2
EndSplineSet
EndChar

StartChar: slash
Encoding: 47 47 47
Width: 665
Flags: HW
LayerCount: 2
Fore
SplineSet
26 1 m 0
 23 5 23 10 24 17 c 0
 29 39 62 80 149 175 c 0
 318 358 498 534 641 655 c 2
 762 758 l 1
 779 746 l 2
 788 740 795 728 795 719 c 2
 794 703 l 1
 667 593 l 2
 515 461 351 300 191 126 c 2
 74 0 l 1
 53 -3 l 2
 42 -5 29 -3 26 1 c 0
EndSplineSet
EndChar

StartChar: zero
Encoding: 48 48 48
Width: 792
Flags: HW
LayerCount: 2
Fore
SplineSet
272 -32 m 2
 141 14 77 119 88 274 c 2
 93 338 l 1
 121 425 l 1
 151 512 l 1
 216 606 l 1
 282 700 l 1
 344 752 l 1
 406 805 l 1
 471 832 l 1
 536 860 l 1
 618 860 l 1
 700 860 l 1
 749 842 l 2
 776 832 815 810 834 793 c 2
 868 763 l 1
 881 721 l 2
 888 698 890 655 886 626 c 0
 882 597 872 530 865 476 c 2
 851 379 l 1
 820 311 l 2
 753 162 645 38 536 -12 c 2
 478 -39 l 1
 396 -42 l 1
 313 -46 l 1
 272 -32 l 2
507 46 m 0
 590 79 681 178 746 307 c 2
 777 369 l 1
 795 446 l 1
 812 522 l 1
 800 572 l 1
 787 622 l 1
 672 511 l 2
 574 416 263 78 259 61 c 0
 257 53 303 36 349 26 c 0
 363 23 378 22 393 22 c 0
 428 22 466 30 507 46 c 0
335 248 m 0
 401 325 528 457 615 542 c 0
 702 627 779 703 783 710 c 0
 785 713 786 715 787 718 c 0
 791 736 767 753 710 773 c 0
 673 786 641 793 609 793 c 0
 581 793 551 788 516 778 c 2
 461 763 l 1
 402 718 l 1
 343 673 l 1
 289 601 l 1
 234 529 l 1
 205 459 l 2
 185 414 173 378 166 343 c 0
 160 313 157 284 157 253 c 0
 157 203 189 108 205 108 c 0
 210 108 269 171 335 248 c 0
EndSplineSet
EndChar

StartChar: one
Encoding: 49 49 49
Width: 566
Flags: HW
LayerCount: 2
Fore
SplineSet
397 -37 m 2
 382 -23 l 1
 432 109 l 2
 460 182 505 317 533 410 c 0
 561 503 594 613 607 655 c 2
 630 731 l 1
 591 709 l 2
 354 581 218 519 172 518 c 2
 137 517 l 1
 138 540 l 1
 140 563 l 1
 211 593 l 2
 250 609 369 666 473 720 c 0
 577 774 670 819 678 819 c 0
 686 819 697 814 703 807 c 2
 713 795 l 1
 702 743 l 2
 696 715 677 652 662 604 c 0
 647 556 610 439 581 343 c 0
 535 191 478 31 451 -22 c 0
 444 -37 431 -46 418 -46 c 0
 411 -46 404 -43 397 -37 c 2
EndSplineSet
EndChar

StartChar: two
Encoding: 50 50 50
Width: 683
Flags: HW
LayerCount: 2
Fore
SplineSet
94 23 m 1
 71 36 l 1
 72 58 l 1
 74 80 l 1
 172 124 l 2
 353 204 507 316 596 432 c 2
 637 486 l 1
 655 570 l 1
 673 654 l 1
 658 683 l 2
 649 699 626 720 606 731 c 2
 571 751 l 1
 514 750 l 1
 457 749 l 1
 395 728 l 2
 310 698 277 673 226 602 c 2
 182 541 l 1
 161 545 l 1
 138 548 l 1
 148 586 l 1
 157 625 l 1
 206 680 l 1
 254 736 l 1
 304 761 l 2
 374 797 461 819 535 819 c 2
 598 819 l 1
 635 803 l 2
 655 794 683 777 696 765 c 2
 720 744 l 1
 734 688 l 1
 748 633 l 1
 728 558 l 1
 707 484 l 1
 662 419 l 2
 637 383 592 329 562 299 c 0
 507 245 357 141 288 109 c 0
 268 100 250 87 249 82 c 2
 247 72 l 1
 296 72 l 2
 323 72 415 76 500 81 c 0
 553 84 603 86 634 86 c 0
 653 86 665 85 668 84 c 2
 680 79 l 1
 671 52 l 1
 663 26 l 1
 589 19 l 2
 549 15 427 13 317 12 c 2
 116 11 l 1
 94 23 l 1
EndSplineSet
EndChar

StartChar: three
Encoding: 51 51 51
Width: 671
Flags: HW
LayerCount: 2
Fore
SplineSet
223 66 m 0
 157 77 109 111 116 142 c 0
 119 158 128 166 146 166 c 0
 160 166 179 161 204 151 c 2
 257 131 l 1
 347 131 l 2
 396 131 456 136 479 142 c 2
 523 153 l 1
 564 188 l 1
 606 222 l 1
 609 256 l 1
 613 289 l 1
 570 320 l 1
 526 351 l 1
 449 351 l 1
 371 351 l 1
 376 376 l 1
 381 401 l 1
 410 414 l 2
 425 421 462 435 491 444 c 0
 555 465 633 513 674 560 c 2
 704 595 l 1
 713 633 l 1
 721 671 l 1
 701 697 l 2
 679 728 628 744 567 744 c 0
 510 744 444 730 384 702 c 0
 341 682 270 620 222 563 c 2
 185 519 l 1
 170 522 l 2
 161 524 150 533 146 543 c 2
 139 561 l 1
 166 596 l 2
 180 615 220 657 253 687 c 2
 315 742 l 1
 382 770 l 2
 419 785 479 802 514 808 c 2
 578 819 l 1
 631 812 l 2
 659 808 701 796 723 783 c 2
 764 760 l 1
 778 715 l 1
 791 670 l 1
 784 634 l 2
 773 581 715 501 656 456 c 0
 629 435 601 418 595 418 c 0
 588 418 584 416 583 413 c 0
 582 406 595 393 623 377 c 0
 672 348 694 304 683 254 c 2
 675 218 l 1
 644 177 l 2
 626 155 590 124 565 108 c 2
 518 80 l 1
 461 69 l 2
 429 63 374 60 322 60 c 0
 282 60 245 62 223 66 c 0
EndSplineSet
EndChar

StartChar: four
Encoding: 52 52 52
Width: 771
Flags: HW
LayerCount: 2
Fore
SplineSet
376 46 m 2
 361 59 l 1
 385 140 l 2
 398 184 420 255 433 297 c 0
 441 323 448 348 451 364 c 0
 453 374 455 380 453 382 c 0
 452 383 449 383 445 383 c 0
 424 383 365 376 296 364 c 2
 145 338 l 1
 128 349 l 2
 118 355 110 369 109 381 c 2
 106 402 l 1
 195 527 l 2
 293 665 412 811 430 817 c 0
 436 819 447 813 454 804 c 2
 467 787 l 1
 457 765 l 2
 450 753 416 708 380 666 c 0
 344 624 287 551 254 505 c 2
 194 420 l 1
 207 420 l 2
 230 420 459 459 469 465 c 0
 475 468 496 543 519 631 c 2
 560 792 l 1
 574 806 l 2
 583 815 595 819 606 819 c 0
 618 819 629 814 633 803 c 2
 638 786 l 1
 621 749 l 2
 612 729 593 660 580 597 c 2
 555 482 l 1
 573 482 l 2
 583 482 630 489 677 497 c 0
 724 505 781 512 804 512 c 2
 847 513 l 1
 849 495 l 1
 853 478 l 1
 837 465 l 1
 820 451 l 1
 677 428 l 1
 534 405 l 1
 510 318 l 2
 476 201 442 93 431 66 c 0
 423 48 411 37 397 37 c 0
 390 37 383 40 376 46 c 2
EndSplineSet
EndChar

StartChar: five
Encoding: 53 53 53
Width: 697
Flags: HW
LayerCount: 2
Fore
SplineSet
92 -1 m 0
 47 15 28 31 32 51 c 0
 36 70 44 78 67 78 c 0
 83 78 107 74 143 66 c 2
 225 48 l 1
 301 60 l 2
 342 67 407 85 445 101 c 2
 515 130 l 1
 586 186 l 1
 656 241 l 1
 662 270 l 2
 671 312 660 334 615 364 c 0
 556 403 477 427 356 441 c 2
 249 453 l 1
 207 440 l 1
 164 427 l 1
 151 440 l 1
 137 453 l 1
 165 577 l 1
 191 701 l 1
 218 734 l 2
 269 797 360 819 575 819 c 2
 705 819 l 1
 707 802 l 1
 711 785 l 1
 693 770 l 1
 676 756 l 1
 511 747 l 2
 341 738 319 735 282 709 c 2
 260 693 l 1
 242 609 l 1
 225 526 l 1
 353 513 l 2
 424 506 503 493 531 485 c 0
 585 470 674 422 704 392 c 0
 729 366 743 315 734 274 c 2
 727 240 l 1
 688 194 l 2
 640 137 542 71 441 29 c 2
 363 -4 l 1
 240 -7 l 2
 225 -7 210 -8 196 -8 c 0
 145 -8 102 -5 92 -1 c 0
EndSplineSet
EndChar

StartChar: six
Encoding: 54 54 54
Width: 643
Flags: HW
LayerCount: 2
Fore
SplineSet
243 -27 m 2
 174 4 141 33 116 85 c 0
 88 144 79 217 92 307 c 2
 104 384 l 1
 135 451 l 2
 152 488 189 550 216 589 c 2
 266 661 l 1
 331 715 l 1
 396 770 l 1
 454 795 l 1
 511 819 l 1
 566 819 l 1
 620 819 l 1
 652 802 l 2
 689 783 705 752 698 718 c 0
 697 715 697 713 696 710 c 2
 687 681 l 1
 663 678 l 1
 640 675 l 1
 631 705 l 1
 621 736 l 1
 589 747 l 1
 556 759 l 1
 526 752 l 2
 442 733 348 661 274 558 c 0
 230 496 183 407 174 367 c 2
 168 338 l 1
 237 369 l 2
 276 386 341 408 383 416 c 2
 460 432 l 1
 515 426 l 2
 545 423 590 408 615 394 c 2
 662 370 l 1
 674 337 l 1
 686 305 l 1
 671 240 l 1
 657 175 l 1
 626 128 l 2
 608 102 578 63 556 41 c 2
 516 2 l 1
 458 -25 l 1
 399 -51 l 1
 347 -51 l 1
 295 -51 l 1
 243 -27 l 2
463 50 m 2
 522 87 561 134 591 202 c 2
 614 254 l 1
 608 286 l 1
 602 318 l 1
 576 333 l 2
 562 341 523 352 491 355 c 2
 434 361 l 1
 365 344 l 2
 327 335 266 313 229 295 c 2
 162 263 l 1
 158 242 l 2
 155 230 160 197 167 168 c 2
 180 116 l 1
 212 84 l 2
 251 44 305 22 367 21 c 2
 415 21 l 1
 463 50 l 2
EndSplineSet
EndChar

StartChar: seven
Encoding: 55 55 55
Width: 854
Flags: HW
LayerCount: 2
Fore
SplineSet
167 50 m 0
 164 54 163 58 164 64 c 0
 168 82 195 113 267 180 c 0
 372 279 437 344 439 353 c 0
 440 356 383 361 314 365 c 0
 180 372 141 382 137 408 c 2
 134 424 l 1
 151 438 l 1
 169 453 l 1
 228 443 l 2
 261 438 337 433 399 431 c 2
 510 427 l 1
 628 546 l 2
 693 611 765 685 789 708 c 2
 832 750 l 1
 701 749 l 2
 629 748 503 745 420 741 c 0
 376 739 330 738 293 738 c 0
 261 738 236 739 224 740 c 2
 179 745 l 1
 185 770 l 1
 190 796 l 1
 449 809 l 2
 570 815 702 819 772 819 c 0
 784 819 795 819 803 819 c 2
 898 815 l 1
 908 796 l 2
 914 784 919 777 917 766 c 0
 911 740 866 696 706 535 c 0
 654 483 611 436 610 431 c 2
 608 422 l 1
 762 422 l 1
 915 422 l 1
 918 407 l 2
 918 404 918 401 917 398 c 0
 915 390 911 382 905 376 c 2
 889 361 l 1
 719 361 l 2
 625 361 542 357 535 353 c 0
 528 349 483 304 434 253 c 0
 302 116 214 45 179 45 c 0
 174 45 170 46 167 50 c 0
EndSplineSet
EndChar

StartChar: eight
Encoding: 56 56 56
Width: 659
Flags: HW
LayerCount: 2
Fore
SplineSet
232 -37 m 0
 174 -20 126 14 102 58 c 2
 83 94 l 1
 89 148 l 1
 97 203 l 1
 117 241 l 1
 139 280 l 1
 236 364 l 1
 335 447 l 1
 279 464 l 2
 213 484 175 518 161 571 c 2
 151 609 l 1
 162 652 l 1
 171 696 l 1
 202 732 l 2
 264 806 384 860 489 860 c 2
 552 860 l 1
 587 839 l 2
 606 827 631 806 641 792 c 2
 659 767 l 1
 651 729 l 1
 643 691 l 1
 598 625 l 2
 573 588 536 543 518 524 c 0
 501 507 490 492 489 489 c 0
 489 488 521 469 555 451 c 0
 623 413 667 367 682 316 c 0
 691 288 687 232 677 185 c 0
 673 168 670 152 665 139 c 2
 650 102 l 1
 605 65 l 2
 554 23 450 -23 366 -40 c 0
 335 -47 315 -50 298 -50 c 0
 279 -50 262 -46 232 -37 c 0
476 66 m 1
 557 101 l 1
 580 128 l 1
 604 155 l 1
 613 200 l 1
 622 246 l 1
 610 284 l 1
 599 323 l 1
 554 360 l 2
 529 381 489 405 466 413 c 2
 423 429 l 1
 339 367 l 2
 239 294 200 255 172 203 c 2
 151 166 l 1
 159 130 l 2
 167 91 210 45 253 30 c 0
 263 27 284 25 306 25 c 0
 316 25 328 25 338 26 c 2
 396 31 l 1
 476 66 l 1
462 556 m 2
 513 610 572 694 578 723 c 0
 585 755 565 769 505 773 c 0
 475 775 443 779 435 783 c 2
 420 790 l 1
 372 770 l 2
 346 759 306 738 285 723 c 2
 246 696 l 1
 234 666 l 1
 220 636 l 1
 231 605 l 2
 236 588 249 566 262 556 c 0
 287 537 361 514 398 513 c 2
 421 512 l 1
 462 556 l 2
EndSplineSet
EndChar

StartChar: nine
Encoding: 57 57 57
Width: 679
Flags: HW
LayerCount: 2
Fore
SplineSet
35 -28 m 1
 19 -14 l 1
 27 6 l 1
 36 26 l 1
 246 32 l 2
 362 35 489 39 527 40 c 2
 596 41 l 1
 625 177 l 2
 654 315 697 598 694 624 c 2
 692 638 l 1
 656 600 l 2
 608 550 530 498 452 464 c 2
 389 437 l 1
 311 433 l 1
 233 429 l 1
 201 447 l 2
 183 457 162 482 153 501 c 2
 138 536 l 1
 147 578 l 2
 159 636 202 694 271 751 c 0
 366 829 478 870 595 870 c 2
 660 870 l 1
 715 850 l 2
 745 839 775 820 782 808 c 2
 795 786 l 1
 784 763 l 2
 782 760 781 754 780 747 c 0
 776 727 772 696 769 665 c 0
 763 582 702 216 672 76 c 0
 666 50 661 31 659 24 c 0
 651 5 638 -14 627 -19 c 0
 616 -24 482 -32 329 -36 c 2
 51 -43 l 1
 35 -28 l 1
348 503 m 0
 491 532 636 639 681 747 c 2
 693 778 l 1
 667 789 l 2
 652 795 613 800 580 800 c 2
 520 800 l 1
 450 778 l 1
 381 757 l 1
 327 717 l 2
 266 672 228 622 218 576 c 2
 212 546 l 1
 226 529 l 2
 237 516 266 500 290 492 c 0
 291 492 317 497 348 503 c 0
EndSplineSet
EndChar

StartChar: colon
Encoding: 58 58 58
Width: 176
Flags: HW
LayerCount: 2
Fore
SplineSet
110 289 m 2
 91 305 l 1
 96 330 l 1
 101 355 l 1
 131 372 l 1
 161 389 l 1
 193 372 l 1
 225 356 l 1
 220 335 l 2
 214 309 173 273 148 273 c 0
 138 273 121 280 110 289 c 2
47 -8 m 2
 28 8 l 1
 33 33 l 1
 38 58 l 1
 68 75 l 1
 98 92 l 1
 130 75 l 1
 162 59 l 1
 157 38 l 2
 151 12 110 -24 85 -24 c 0
 75 -24 58 -17 47 -8 c 2
EndSplineSet
EndChar

StartChar: semicolon
Encoding: 59 59 59
Width: 247
Flags: HW
LayerCount: 2
Fore
SplineSet
130 54 m 2
 111 70 l 1
 116 94 l 1
 121 119 l 1
 151 136 l 1
 182 154 l 1
 213 137 l 1
 245 120 l 1
 240 99 l 2
 234 73 193 38 168 38 c 0
 158 38 141 45 130 54 c 2
-39 -316 m 2
 -40 -310 -40 -305 -39 -300 c 0
 -35 -283 -19 -270 7 -265 c 0
 25 -261 51 -247 66 -234 c 2
 94 -210 l 1
 108 -169 l 1
 123 -129 l 1
 112 -92 l 2
 108 -75 107 -61 109 -50 c 0
 113 -33 125 -24 145 -24 c 2
 169 -24 l 1
 180 -55 l 2
 186 -72 188 -110 185 -139 c 2
 179 -193 l 1
 146 -239 l 1
 112 -285 l 1
 73 -308 l 1
 33 -331 l 1
 -1 -331 l 1
 -36 -331 l 1
 -39 -316 l 2
EndSplineSet
EndChar

StartChar: less
Encoding: 60 60 60
Width: 553
Flags: HW
LayerCount: 2
Fore
SplineSet
250 83 m 2
 87 134 54 152 61 184 c 0
 66 206 195 311 315 390 c 0
 413 454 606 563 622 563 c 0
 637 563 646 541 642 523 c 0
 641 520 641 518 639 515 c 0
 634 505 587 474 536 447 c 0
 439 395 329 325 221 247 c 2
 157 201 l 1
 171 192 l 2
 179 187 255 162 341 137 c 0
 520 85 526 81 520 55 c 2
 516 36 l 1
 464 34 l 1
 413 32 l 1
 250 83 l 2
EndSplineSet
EndChar

StartChar: equal
Encoding: 61 61 61
Width: 610
Flags: HW
LayerCount: 2
Fore
SplineSet
120 313 m 2
 120 316 119 321 120 325 c 0
 122 333 126 341 131 347 c 2
 144 363 l 1
 361 366 l 1
 577 369 l 1
 590 352 l 1
 602 336 l 1
 587 316 l 1
 573 297 l 1
 348 297 l 1
 122 297 l 1
 120 313 l 2
75 169 m 1
 65 185 l 1
 85 201 l 1
 104 217 l 1
 345 222 l 1
 585 228 l 1
 606 215 l 1
 627 203 l 1
 618 181 l 1
 611 158 l 1
 348 156 l 1
 86 153 l 1
 75 169 l 1
EndSplineSet
EndChar

StartChar: greater
Encoding: 62 62 62
Width: 560
Flags: HW
LayerCount: 2
Fore
SplineSet
71 -26 m 0
 64 -24 62 -10 65 4 c 2
 70 29 l 1
 143 69 l 2
 183 91 275 136 348 169 c 0
 421 202 481 230 482 234 c 0
 485 246 346 326 251 367 c 0
 200 389 148 413 137 422 c 2
 116 438 l 1
 121 463 l 1
 127 488 l 1
 151 500 l 1
 177 512 l 1
 189 490 l 1
 203 469 l 1
 280 437 l 2
 377 398 524 314 562 276 c 2
 591 247 l 1
 579 220 l 1
 566 194 l 1
 403 122 l 2
 314 83 212 35 178 16 c 0
 120 -16 98 -28 82 -28 c 0
 78 -28 74 -27 71 -26 c 0
EndSplineSet
EndChar

StartChar: at
Encoding: 64 64 63
Width: 838
Flags: HW
LayerCount: 2
Fore
SplineSet
256 -16 m 0
 210 -3 142 34 116 61 c 0
 103 75 85 111 78 141 c 2
 65 195 l 1
 86 287 l 1
 106 379 l 1
 139 429 l 2
 157 457 192 499 216 522 c 2
 260 565 l 1
 327 596 l 2
 364 613 427 638 469 651 c 2
 546 675 l 1
 629 676 l 1
 711 676 l 1
 770 650 l 2
 803 636 840 612 853 598 c 2
 876 572 l 1
 879 527 l 1
 881 481 l 1
 863 417 l 1
 844 352 l 1
 804 305 l 2
 782 279 743 244 715 227 c 2
 665 196 l 1
 610 192 l 1
 554 187 l 1
 529 213 l 1
 505 238 l 1
 459 205 l 1
 412 171 l 1
 363 159 l 2
 345 154 324 152 307 152 c 0
 298 152 291 153 286 154 c 0
 254 161 221 209 219 248 c 2
 217 274 l 1
 246 328 l 1
 275 383 l 1
 335 428 l 1
 395 473 l 1
 455 491 l 1
 517 509 l 1
 549 503 l 2
 593 494 637 461 644 430 c 2
 651 403 l 1
 629 376 l 2
 617 361 600 332 592 311 c 2
 577 273 l 1
 594 263 l 1
 611 253 l 1
 649 268 l 2
 699 288 726 309 760 355 c 2
 789 393 l 1
 800 448 l 2
 806 478 808 513 804 527 c 2
 796 552 l 1
 736 581 l 1
 675 609 l 1
 622 609 l 1
 568 609 l 1
 466 579 l 2
 313 533 237 478 185 377 c 0
 170 347 159 314 152 282 c 0
 139 219 142 159 165 126 c 0
 172 114 199 95 223 81 c 2
 267 56 l 1
 346 45 l 1
 424 34 l 1
 500 45 l 1
 576 57 l 1
 638 84 l 2
 672 99 729 134 766 161 c 2
 834 211 l 1
 845 199 l 2
 852 192 855 177 853 166 c 2
 849 145 l 1
 800 107 l 2
 737 57 638 7 567 -11 c 2
 510 -25 l 1
 398 -24 l 2
 336 -23 272 -20 256 -16 c 0
382 235 m 0
 433 254 502 316 535 372 c 2
 562 417 l 1
 549 426 l 2
 541 432 529 435 516 435 c 0
 495 435 470 428 440 415 c 0
 378 388 344 362 317 319 c 0
 303 296 295 280 292 268 c 0
 289 255 292 246 300 236 c 0
 308 226 316 221 329 221 c 0
 341 221 358 226 382 235 c 0
EndSplineSet
EndChar

StartChar: A
Encoding: 65 65 64
Width: 579
Flags: HW
LayerCount: 2
Fore
SplineSet
28 -11 m 0
 22 -8 18 -3 20 7 c 0
 24 28 52 72 117 172 c 0
 272 411 368 573 450 732 c 2
 491 812 l 1
 511 818 l 2
 514 819 518 819 521 819 c 0
 541 819 557 802 552 780 c 0
 550 770 549 701 551 626 c 0
 553 551 556 384 558 254 c 2
 561 18 l 1
 548 0 l 2
 539 -12 530 -18 520 -18 c 0
 514 -18 507 -15 500 -10 c 0
 494 -6 488 60 487 135 c 0
 486 210 483 275 481 280 c 0
 478 286 422 289 370 289 c 0
 326 289 285 287 276 282 c 0
 269 278 223 215 175 143 c 0
 92 17 68 -15 44 -15 c 0
 39 -15 33 -14 28 -11 c 0
484 366 m 2
 485 372 484 435 481 507 c 2
 475 637 l 1
 399 506 l 2
 357 434 322 371 321 366 c 2
 319 356 l 1
 401 356 l 1
 482 356 l 1
 484 366 l 2
EndSplineSet
EndChar

StartChar: B
Encoding: 66 66 65
Width: 612
Flags: HW
LayerCount: 2
Fore
SplineSet
44 -10 m 1
 37 3 l 1
 113 393 l 1
 189 782 l 1
 202 796 l 1
 214 811 l 1
 280 815 l 1
 346 819 l 1
 418 803 l 2
 457 794 507 776 528 762 c 2
 565 736 l 1
 576 699 l 1
 586 661 l 1
 566 590 l 1
 547 518 l 1
 490 473 l 1
 432 428 l 1
 443 424 l 2
 450 422 482 412 514 403 c 0
 546 394 583 377 598 367 c 0
 636 340 648 294 638 246 c 0
 629 205 604 163 564 128 c 0
 483 58 310 3 140 -6 c 0
 112 -8 80 -12 70 -16 c 2
 52 -23 l 1
 44 -10 l 1
262 76 m 0
 369 97 475 137 522 173 c 2
 559 202 l 1
 565 246 l 1
 571 290 l 1
 534 312 l 2
 485 342 366 367 267 367 c 2
 186 367 l 1
 156 258 l 2
 139 198 122 131 118 110 c 2
 110 71 l 1
 127 67 l 2
 139 64 150 62 163 62 c 0
 184 62 212 66 262 76 c 0
356 476 m 0
 390 486 433 506 452 521 c 2
 486 548 l 1
 501 585 l 1
 516 622 l 1
 505 660 l 1
 495 699 l 1
 442 718 l 2
 413 729 359 740 322 743 c 2
 254 749 l 1
 222 597 l 1
 190 446 l 1
 242 452 l 2
 271 455 322 466 356 476 c 0
EndSplineSet
EndChar

StartChar: C
Encoding: 67 67 66
Width: 670
Flags: HW
LayerCount: 2
Fore
SplineSet
381 -42 m 0
 351 -37 300 -20 269 -3 c 2
 212 27 l 1
 172 79 l 1
 132 132 l 1
 113 205 l 1
 93 279 l 1
 98 336 l 1
 103 392 l 1
 127 453 l 2
 181 588 305 727 425 782 c 2
 486 810 l 1
 566 814 l 1
 646 819 l 1
 690 806 l 1
 735 793 l 1
 763 759 l 1
 792 725 l 1
 785 708 l 2
 781 698 770 686 759 680 c 2
 738 669 l 1
 715 696 l 2
 684 733 648 747 575 747 c 2
 513 747 l 1
 469 730 l 2
 401 704 349 665 293 600 c 2
 242 541 l 1
 210 474 l 1
 178 407 l 1
 171 351 l 2
 167 320 172 269 179 238 c 2
 192 181 l 1
 236 127 l 1
 278 72 l 1
 334 49 l 1
 390 25 l 1
 462 24 l 2
 466 24 471 24 475 24 c 0
 513 24 561 28 588 32 c 2
 642 41 l 1
 645 22 l 1
 648 4 l 1
 626 -14 l 1
 604 -32 l 1
 535 -43 l 2
 497 -49 477 -52 458 -52 c 0
 438 -52 420 -49 381 -42 c 0
EndSplineSet
EndChar

StartChar: D
Encoding: 68 68 67
Width: 694
Flags: HW
LayerCount: 2
Fore
SplineSet
29 -8 m 0
 29 -7 67 176 113 398 c 2
 196 801 l 1
 215 810 l 2
 225 815 277 819 330 819 c 2
 426 819 l 1
 484 804 l 2
 516 795 572 772 608 752 c 2
 673 716 l 1
 708 665 l 2
 727 637 750 593 757 567 c 2
 769 519 l 1
 759 445 l 1
 748 371 l 1
 711 300 l 2
 621 127 499 60 179 11 c 0
 75 -5 44 -10 34 -10 c 0
 30 -10 29 -9 29 -8 c 0
230 87 m 0
 282 96 363 114 410 129 c 2
 496 156 l 1
 549 198 l 1
 602 241 l 1
 637 302 l 1
 673 364 l 1
 686 422 l 1
 698 480 l 1
 685 534 l 2
 667 606 622 662 552 697 c 0
 492 728 374 757 311 757 c 0
 306 757 302 756 298 756 c 2
 258 753 l 1
 186 412 l 1
 113 72 l 1
 124 72 l 2
 130 72 178 78 230 87 c 0
EndSplineSet
EndChar

StartChar: E
Encoding: 69 69 68
Width: 653
Flags: HW
LayerCount: 2
Fore
SplineSet
58 13 m 1
 46 30 l 1
 72 191 l 1
 97 351 l 1
 138 489 l 2
 167 586 184 652 194 698 c 0
 201 731 204 752 203 767 c 2
 202 794 l 1
 221 802 l 2
 232 807 359 812 502 815 c 2
 762 819 l 1
 775 807 l 2
 783 799 785 788 783 778 c 0
 780 766 773 756 760 752 c 0
 752 750 676 748 581 748 c 0
 561 748 540 748 518 748 c 2
 295 749 l 1
 285 739 l 2
 279 734 258 666 237 588 c 2
 199 447 l 1
 293 450 l 1
 387 452 l 1
 397 440 l 1
 407 427 l 1
 391 410 l 1
 376 392 l 1
 335 385 l 2
 312 381 267 377 235 377 c 2
 176 377 l 1
 164 313 l 2
 158 278 145 207 138 157 c 2
 125 66 l 1
 263 68 l 2
 339 69 451 77 510 85 c 0
 555 91 599 95 620 95 c 0
 626 95 631 95 633 94 c 2
 647 87 l 1
 639 60 l 1
 630 34 l 1
 550 21 l 2
 507 14 381 6 270 2 c 2
 69 -5 l 1
 58 13 l 1
EndSplineSet
EndChar

StartChar: F
Encoding: 70 70 69
Width: 667
Flags: HW
LayerCount: 2
Fore
SplineSet
31 -16 m 0
 30 -11 65 170 110 388 c 2
 193 785 l 1
 213 802 l 1
 235 819 l 1
 295 813 l 2
 328 809 455 806 578 806 c 2
 802 806 l 1
 805 790 l 1
 808 773 l 1
 779 753 l 1
 750 733 l 1
 502 736 l 1
 255 740 l 1
 222 584 l 1
 189 428 l 1
 299 427 l 2
 360 426 419 422 432 418 c 2
 456 411 l 1
 455 389 l 1
 453 368 l 1
 433 358 l 1
 412 349 l 1
 321 359 l 2
 291 363 259 364 235 364 c 0
 219 364 207 364 201 362 c 2
 174 356 l 1
 131 169 l 1
 89 -18 l 1
 61 -21 l 2
 57 -22 53 -22 49 -22 c 0
 39 -22 31 -20 31 -16 c 0
EndSplineSet
EndChar

StartChar: G
Encoding: 71 71 70
Width: 898
Flags: HW
LayerCount: 2
Fore
SplineSet
417 -46 m 0
 362 -38 283 -11 228 20 c 2
 174 51 l 1
 133 104 l 1
 92 157 l 1
 84 211 l 1
 77 266 l 1
 100 347 l 1
 122 428 l 1
 166 492 l 2
 287 669 443 775 635 809 c 2
 693 819 l 1
 755 813 l 2
 788 810 837 799 861 790 c 2
 906 774 l 1
 944 724 l 2
 980 677 995 637 989 609 c 0
 986 593 975 581 957 574 c 2
 939 568 l 1
 932 586 l 2
 892 689 842 732 745 742 c 2
 684 748 l 1
 617 736 l 2
 581 729 522 712 488 697 c 2
 426 670 l 1
 356 611 l 1
 285 552 l 1
 238 484 l 1
 189 416 l 1
 169 337 l 1
 147 258 l 1
 159 217 l 2
 185 131 272 66 404 33 c 2
 471 16 l 1
 536 22 l 2
 692 36 808 118 850 245 c 2
 867 298 l 1
 779 289 l 2
 731 284 665 280 631 280 c 2
 569 279 l 1
 569 298 l 2
 569 308 576 322 582 327 c 0
 597 339 798 364 876 364 c 0
 881 364 887 364 891 364 c 2
 945 361 l 1
 929 285 l 1
 912 208 l 1
 882 158 l 2
 806 30 649 -51 485 -51 c 0
 462 -51 439 -49 417 -46 c 0
EndSplineSet
EndChar

StartChar: H
Encoding: 72 72 71
Width: 666
Flags: HW
LayerCount: 2
Fore
SplineSet
31 -10 m 0
 28 -3 55 132 87 281 c 0
 119 430 155 593 172 656 c 0
 189 715 209 772 216 782 c 2
 230 801 l 1
 252 798 l 1
 273 794 l 1
 259 728 l 2
 251 691 229 602 208 529 c 2
 171 397 l 1
 243 404 l 2
 282 408 387 413 476 417 c 2
 637 424 l 1
 678 589 l 2
 720 758 738 802 768 813 c 2
 785 819 l 1
 797 804 l 1
 809 789 l 1
 795 756 l 2
 787 738 747 565 706 372 c 2
 631 20 l 1
 607 23 l 1
 583 26 l 1
 580 54 l 2
 579 69 590 143 602 220 c 2
 624 360 l 1
 544 354 l 2
 500 351 422 347 367 344 c 0
 312 341 247 335 219 332 c 2
 168 326 l 1
 137 179 l 2
 120 98 98 21 90 7 c 2
 75 -20 l 1
 55 -20 l 2
 44 -20 33 -15 31 -10 c 0
EndSplineSet
EndChar

StartChar: I
Encoding: 73 73 72
Width: 766
Flags: HW
LayerCount: 2
Fore
SplineSet
52 79 m 0
 44 84 41 97 44 109 c 0
 46 120 52 130 61 133 c 0
 69 136 141 141 221 145 c 2
 366 153 l 1
 374 196 l 2
 379 220 407 356 436 497 c 2
 488 754 l 1
 352 752 l 2
 299 751 250 751 223 751 c 0
 212 751 205 751 203 751 c 2
 189 752 l 1
 199 780 l 1
 208 808 l 1
 276 816 l 2
 296 818 345 819 407 819 c 0
 460 819 524 818 586 817 c 2
 827 811 l 1
 842 797 l 1
 858 784 l 1
 843 765 l 1
 828 747 l 1
 690 746 l 1
 552 745 l 1
 521 608 l 2
 518 595 515 580 512 564 c 0
 496 487 475 384 463 312 c 2
 438 153 l 1
 595 153 l 1
 753 153 l 1
 760 135 l 1
 767 118 l 1
 751 104 l 1
 735 91 l 1
 568 85 l 2
 374 78 232 74 146 74 c 0
 89 74 57 76 52 79 c 0
EndSplineSet
EndChar

StartChar: J
Encoding: 74 74 73
Width: 716
Flags: HW
LayerCount: 2
Fore
SplineSet
141 45 m 0
 122 52 81 100 73 123 c 2
 67 142 l 1
 82 156 l 2
 92 165 101 170 110 170 c 0
 123 170 135 160 150 140 c 2
 172 110 l 1
 211 110 l 1
 249 110 l 1
 298 135 l 2
 358 166 409 225 446 302 c 2
 475 361 l 1
 496 460 l 2
 517 558 519 584 522 691 c 2
 523 745 l 1
 366 745 l 1
 208 745 l 1
 196 761 l 2
 188 771 185 778 186 785 c 0
 187 792 193 798 205 806 c 2
 223 819 l 1
 529 814 l 1
 835 809 l 1
 847 796 l 2
 855 788 859 782 858 776 c 0
 857 771 853 765 845 756 c 2
 833 741 l 1
 721 743 l 2
 707 743 694 743 681 743 c 0
 638 743 605 742 602 738 c 0
 601 737 600 735 599 731 c 0
 596 716 592 680 590 642 c 0
 587 579 579 518 567 462 c 0
 545 360 511 273 465 206 c 2
 430 153 l 1
 373 110 l 2
 342 86 301 61 280 53 c 0
 257 44 219 39 187 39 c 0
 168 39 151 41 141 45 c 0
EndSplineSet
EndChar

StartChar: K
Encoding: 75 75 74
Width: 658
Flags: HW
LayerCount: 2
Fore
SplineSet
381 190 m 2
 177 307 l 1
 164 212 l 1
 151 116 l 1
 131 102 l 1
 112 88 l 1
 97 99 l 1
 81 110 l 1
 99 226 l 2
 109 290 112 353 109 365 c 2
 102 388 l 1
 116 416 l 2
 122 429 139 490 154 562 c 0
 157 578 160 594 164 611 c 0
 168 635 173 659 178 681 c 0
 191 741 203 789 208 798 c 2
 218 819 l 1
 236 819 l 2
 246 819 258 814 264 807 c 2
 274 795 l 1
 238 628 l 1
 203 461 l 1
 212 461 l 2
 217 461 226 466 230 471 c 0
 242 486 494 647 631 728 c 0
 711 776 755 797 778 797 c 0
 789 797 795 792 797 782 c 0
 798 777 798 773 797 769 c 0
 794 754 774 741 689 690 c 0
 525 590 431 531 321 457 c 2
 216 386 l 1
 226 374 l 2
 232 367 330 309 442 245 c 0
 554 181 648 124 649 116 c 0
 650 114 648 111 648 109 c 0
 644 92 621 72 603 72 c 0
 602 72 l 0
 593 72 493 125 381 190 c 2
EndSplineSet
EndChar

StartChar: L
Encoding: 76 76 75
Width: 634
Flags: HW
LayerCount: 2
Fore
SplineSet
39 13 m 1
 28 30 l 1
 119 404 l 1
 209 778 l 1
 224 799 l 2
 234 812 251 819 264 819 c 0
 273 819 279 816 282 810 c 0
 283 808 280 795 276 774 c 0
 266 729 246 645 223 552 c 0
 189 415 147 249 131 185 c 2
 104 69 l 1
 223 75 l 2
 289 78 402 84 473 88 c 2
 602 95 l 1
 613 77 l 1
 624 60 l 1
 610 43 l 1
 596 26 l 1
 467 19 l 2
 396 15 274 9 194 5 c 2
 48 -3 l 1
 39 13 l 1
EndSplineSet
EndChar

StartChar: M
Encoding: 77 77 76
Width: 732
Flags: HW
LayerCount: 2
Fore
SplineSet
653 -2 m 0
 648 9 689 361 717 547 c 0
 726 609 733 668 731 678 c 2
 728 696 l 1
 609 565 l 2
 544 493 472 417 452 396 c 2
 415 357 l 1
 385 357 l 1
 356 357 l 1
 317 421 l 2
 296 456 270 516 258 555 c 0
 247 593 235 622 232 622 c 0
 231 622 225 592 215 490 c 0
 188 218 175 85 173 58 c 2
 172 30 l 1
 153 15 l 1
 134 -1 l 1
 118 9 l 1
 102 19 l 1
 109 109 l 2
 127 326 152 566 168 670 c 2
 186 783 l 1
 206 796 l 2
 214 802 224 806 232 806 c 0
 234 806 236 806 238 805 c 0
 245 802 272 740 298 668 c 0
 346 534 388 439 401 439 c 0
 405 439 472 509 549 594 c 0
 626 679 706 765 726 784 c 2
 763 819 l 1
 789 816 l 1
 815 813 l 1
 813 767 l 2
 809 687 738 162 720 76 c 2
 703 -6 l 1
 680 -9 l 2
 668 -11 656 -8 653 -2 c 0
EndSplineSet
EndChar

StartChar: N
Encoding: 78 78 77
Width: 662
Flags: HW
LayerCount: 2
Fore
SplineSet
38 28 m 0
 36 36 35 45 36 52 c 0
 37 55 39 58 40 60 c 0
 45 66 82 232 118 401 c 0
 154 570 189 741 188 757 c 2
 187 781 l 1
 205 800 l 1
 223 819 l 1
 243 813 l 2
 253 809 264 793 268 778 c 0
 283 716 501 277 564 182 c 2
 587 146 l 1
 596 213 l 2
 623 402 668 668 687 758 c 0
 691 775 694 787 695 789 c 0
 702 800 715 806 728 806 c 0
 738 806 747 803 750 795 c 0
 753 789 740 695 722 587 c 0
 704 479 681 324 672 242 c 0
 663 160 653 79 649 61 c 2
 642 29 l 1
 620 18 l 1
 596 7 l 1
 580 17 l 2
 550 35 420 267 311 494 c 2
 244 635 l 1
 175 334 l 2
 137 169 100 28 94 21 c 0
 86 12 77 8 67 8 c 0
 54 8 42 15 38 28 c 0
EndSplineSet
EndChar

StartChar: O
Encoding: 79 79 78
Width: 878
Flags: HW
LayerCount: 2
Fore
SplineSet
349 18 m 0
 291 29 180 86 142 125 c 0
 104 165 90 219 97 309 c 2
 102 386 l 1
 128 450 l 2
 162 537 227 631 302 697 c 2
 364 752 l 1
 435 781 l 1
 505 810 l 1
 609 815 l 1
 712 819 l 1
 768 807 l 2
 834 793 877 762 895 716 c 0
 902 698 919 664 932 641 c 0
 945 618 958 581 959 557 c 2
 962 515 l 1
 938 422 l 1
 912 330 l 1
 877 263 l 2
 834 181 794 137 731 95 c 0
 655 45 524 12 418 12 c 0
 393 12 369 14 349 18 c 0
596 105 m 0
 623 114 667 133 695 147 c 2
 746 174 l 1
 774 217 l 2
 821 289 860 378 877 455 c 2
 892 528 l 1
 884 558 l 2
 874 591 846 622 791 657 c 2
 755 680 l 1
 763 706 l 1
 771 733 l 1
 701 745 l 1
 632 757 l 1
 563 746 l 2
 438 725 372 691 299 608 c 0
 232 531 190 452 173 371 c 0
 167 343 164 315 164 287 c 2
 164 237 l 1
 186 201 l 2
 212 159 277 117 349 95 c 2
 402 79 l 1
 474 84 l 2
 513 86 569 96 596 105 c 0
EndSplineSet
EndChar

StartChar: P
Encoding: 80 80 79
Width: 718
Flags: HW
LayerCount: 2
Fore
SplineSet
72 2 m 2
 62 14 l 1
 98 185 l 1
 134 355 l 1
 118 374 l 2
 108 386 104 401 107 414 c 0
 109 425 116 433 127 437 c 2
 143 443 l 1
 174 590 l 1
 206 738 l 1
 197 759 l 1
 190 780 l 1
 218 799 l 1
 246 819 l 1
 341 819 l 2
 393 819 472 812 514 804 c 2
 591 789 l 1
 674 743 l 1
 757 697 l 1
 790 651 l 1
 823 605 l 1
 816 572 l 2
 802 508 740 455 622 406 c 0
 546 375 454 359 322 352 c 2
 195 345 l 1
 167 183 l 1
 138 21 l 1
 122 5 l 2
 112 -5 103 -10 94 -10 c 0
 86 -10 78 -6 72 2 c 2
478 436 m 0
 523 445 591 465 629 481 c 2
 698 510 l 1
 722 537 l 1
 746 564 l 1
 738 587 l 2
 728 618 659 672 589 703 c 2
 531 728 l 1
 422 744 l 2
 375 751 331 755 309 755 c 0
 303 755 299 755 297 754 c 2
 280 748 l 1
 247 591 l 2
 229 504 216 431 219 427 c 0
 223 422 248 420 283 420 c 0
 341 420 427 426 478 436 c 0
EndSplineSet
EndChar

StartChar: Q
Encoding: 81 81 80
Width: 1064
Flags: HW
LayerCount: 2
Fore
SplineSet
362 8 m 0
 267 23 207 46 162 83 c 2
 119 117 l 1
 98 187 l 1
 77 257 l 1
 101 371 l 1
 125 485 l 1
 181 563 l 1
 235 641 l 1
 297 688 l 2
 371 743 447 777 553 801 c 2
 632 819 l 1
 689 815 l 2
 721 813 763 802 783 791 c 2
 819 772 l 1
 840 723 l 2
 851 696 863 673 867 673 c 0
 885 673 969 565 980 528 c 0
 986 506 990 465 987 438 c 2
 983 389 l 1
 958 334 l 2
 930 272 890 213 844 165 c 2
 813 132 l 1
 867 110 l 2
 896 98 945 83 975 77 c 0
 1054 61 1054 61 1048 34 c 2
 1043 9 l 1
 1021 3 l 2
 1016 2 1009 1 1002 1 c 0
 962 1 887 21 813 51 c 2
 739 82 l 1
 717 65 l 2
 705 56 668 38 637 27 c 2
 579 7 l 1
 501 3 l 2
 490 2 477 2 464 2 c 0
 427 2 386 4 362 8 c 0
638 99 m 1
 693 121 l 1
 680 131 l 2
 655 149 557 278 560 291 c 0
 561 298 574 309 586 315 c 2
 609 326 l 1
 642 294 l 2
 660 276 676 258 675 253 c 0
 674 248 689 228 711 207 c 2
 750 169 l 1
 779 191 l 2
 795 203 825 238 846 268 c 2
 886 323 l 1
 904 379 l 1
 920 435 l 1
 917 471 l 2
 913 512 853 594 810 619 c 0
 795 628 751 646 715 658 c 2
 648 680 l 1
 649 702 l 1
 651 725 l 1
 676 733 l 1
 701 742 l 1
 677 747 l 2
 673 748 668 748 662 748 c 0
 614 748 505 724 438 697 c 2
 373 670 l 1
 312 615 l 1
 250 561 l 1
 217 505 l 2
 200 475 178 428 168 400 c 2
 150 350 l 1
 155 286 l 2
 158 251 167 204 179 183 c 2
 200 144 l 1
 241 121 l 2
 263 109 312 92 349 84 c 2
 416 70 l 1
 500 73 l 1
 582 77 l 1
 638 99 l 1
EndSplineSet
EndChar

StartChar: R
Encoding: 82 82 81
Width: 607
Flags: HW
LayerCount: 2
Fore
SplineSet
77 15 m 2
 65 20 l 1
 89 131 l 2
 102 192 119 303 127 378 c 0
 135 453 152 573 163 643 c 2
 183 771 l 1
 202 791 l 1
 222 812 l 1
 304 815 l 1
 386 819 l 1
 466 797 l 2
 596 761 649 723 671 651 c 2
 683 613 l 1
 674 568 l 1
 664 523 l 1
 631 478 l 2
 613 453 575 418 547 400 c 2
 497 367 l 1
 409 341 l 2
 361 327 310 315 297 315 c 0
 277 315 266 311 265 304 c 0
 261 284 326 235 465 152 c 2
 594 75 l 1
 593 53 l 1
 591 30 l 1
 569 24 l 1
 548 18 l 1
 422 89 l 2
 352 128 270 181 241 207 c 0
 212 233 185 254 184 254 c 0
 183 254 172 206 158 147 c 2
 135 40 l 1
 118 24 l 2
 108 14 102 10 95 10 c 0
 90 10 84 12 77 15 c 2
410 411 m 2
 498 438 l 1
 540 473 l 1
 582 509 l 1
 598 560 l 1
 614 612 l 1
 583 652 l 1
 551 692 l 1
 485 715 l 1
 418 738 l 1
 335 743 l 1
 251 748 l 1
 242 708 l 2
 226 626 196 397 201 386 c 2
 205 374 l 1
 264 380 l 2
 297 383 362 397 410 411 c 2
EndSplineSet
EndChar

StartChar: S
Encoding: 83 83 82
Width: 603
Flags: HW
LayerCount: 2
Fore
SplineSet
147 101 m 2
 126 111 109 129 107 139 c 2
 103 157 l 1
 122 173 l 1
 141 188 l 1
 180 168 l 1
 220 149 l 1
 292 150 l 2
 332 151 393 158 428 168 c 2
 493 186 l 1
 528 215 l 2
 550 233 561 244 563 255 c 0
 565 266 560 277 548 296 c 0
 522 337 452 372 320 410 c 2
 211 442 l 1
 183 467 l 2
 147 499 135 541 144 584 c 0
 154 630 188 678 245 721 c 0
 306 767 371 797 439 809 c 2
 493 819 l 1
 558 808 l 2
 594 802 633 790 647 781 c 0
 668 767 677 746 673 727 c 0
 670 711 656 697 635 690 c 2
 611 684 l 1
 599 704 l 2
 586 726 530 747 484 747 c 0
 443 747 357 718 307 687 c 0
 256 655 222 616 214 580 c 2
 209 555 l 1
 234 530 l 1
 258 504 l 1
 338 482 l 2
 502 437 599 383 626 322 c 2
 638 296 l 1
 629 256 l 2
 618 204 589 172 525 138 c 0
 452 100 372 82 272 82 c 2
 185 82 l 1
 147 101 l 2
EndSplineSet
EndChar

StartChar: T
Encoding: 84 84 83
Width: 800
Flags: HW
LayerCount: 2
Fore
SplineSet
417 114 m 0
 415 137 477 524 501 636 c 2
 525 746 l 1
 354 749 l 1
 183 752 l 1
 184 773 l 2
 185 785 195 800 204 807 c 2
 220 819 l 1
 495 819 l 1
 771 819 l 1
 851 808 l 2
 944 794 945 794 938 763 c 0
 933 741 923 731 891 731 c 0
 878 731 860 733 838 736 c 0
 803 741 737 746 689 748 c 2
 603 752 l 1
 571 614 l 2
 568 601 564 586 560 569 c 0
 544 492 525 388 515 316 c 2
 493 157 l 1
 476 129 l 1
 461 102 l 1
 440 102 l 2
 428 102 418 107 417 114 c 0
EndSplineSet
EndChar

StartChar: U
Encoding: 85 85 84
Width: 581
Flags: HW
LayerCount: 2
Fore
SplineSet
184 55 m 0
 164 63 133 87 115 108 c 2
 83 147 l 1
 79 203 l 1
 75 258 l 1
 98 336 l 2
 143 486 251 710 314 787 c 2
 340 819 l 1
 362 816 l 1
 385 813 l 1
 383 790 l 2
 382 778 369 751 353 729 c 0
 283 632 179 400 156 290 c 2
 145 239 l 1
 158 194 l 1
 172 149 l 1
 203 129 l 1
 235 110 l 1
 294 114 l 1
 353 118 l 1
 395 145 l 1
 437 173 l 1
 474 227 l 2
 526 301 573 422 603 557 c 2
 628 669 l 1
 622 698 l 2
 619 714 620 741 624 758 c 2
 630 788 l 1
 658 785 l 1
 685 782 l 1
 692 731 l 1
 701 680 l 1
 663 526 l 1
 625 372 l 1
 595 308 l 2
 539 185 468 105 382 66 c 2
 324 40 l 1
 273 40 l 2
 245 40 204 47 184 55 c 0
EndSplineSet
EndChar

StartChar: V
Encoding: 86 86 85
Width: 604
Flags: HW
LayerCount: 2
Fore
SplineSet
258 53 m 0
 219 103 190 285 185 502 c 0
 184 575 179 661 177 693 c 0
 175 718 176 738 179 752 c 0
 184 774 195 784 212 784 c 0
 248 784 249 779 257 506 c 0
 263 314 288 135 309 135 c 0
 310 135 311 135 312 136 c 0
 317 140 348 196 382 261 c 0
 416 326 499 474 564 589 c 2
 685 798 l 1
 704 809 l 1
 722 819 l 1
 735 802 l 1
 749 786 l 1
 690 680 l 2
 658 622 567 459 489 319 c 0
 411 179 341 58 333 50 c 0
 324 41 310 37 297 37 c 0
 282 37 267 42 258 53 c 0
EndSplineSet
EndChar

StartChar: W
Encoding: 87 87 86
Width: 1018
Flags: HW
LayerCount: 2
Fore
SplineSet
213 19 m 0
 207 32 205 56 209 73 c 0
 218 113 213 192 197 274 c 0
 184 344 174 653 182 740 c 2
 187 792 l 1
 206 806 l 1
 226 819 l 1
 241 809 l 2
 249 803 253 784 252 768 c 0
 244 698 259 343 273 256 c 0
 282 204 288 152 285 140 c 0
 282 128 283 119 286 119 c 0
 289 119 368 179 461 252 c 0
 554 325 636 385 645 385 c 0
 671 385 677 365 673 285 c 0
 671 244 672 195 675 177 c 2
 682 145 l 1
 704 186 l 2
 802 371 1073 776 1114 799 c 2
 1133 810 l 1
 1147 792 l 1
 1161 775 l 1
 1041 603 l 2
 912 418 843 305 758 146 c 0
 728 90 697 35 689 25 c 0
 679 13 667 7 656 7 c 0
 643 7 632 14 626 29 c 0
 615 54 598 187 598 239 c 2
 598 273 l 1
 566 253 l 2
 527 229 338 75 290 29 c 0
 269 8 253 -2 240 -2 c 0
 229 -2 220 5 213 19 c 0
EndSplineSet
EndChar

StartChar: X
Encoding: 88 88 87
Width: 757
Flags: HW
LayerCount: 2
Fore
SplineSet
81 16 m 0
 78 20 78 24 79 31 c 0
 84 55 121 106 228 237 c 0
 308 336 376 421 377 426 c 0
 378 431 369 446 357 460 c 0
 323 499 252 621 216 702 c 2
 183 775 l 1
 199 797 l 1
 216 819 l 1
 231 816 l 2
 240 814 268 772 292 721 c 0
 316 670 358 597 385 559 c 2
 433 490 l 1
 561 636 l 2
 631 716 698 788 708 795 c 0
 720 803 731 807 739 807 c 0
 749 807 757 801 760 789 c 2
 766 771 l 1
 625 613 l 2
 548 526 484 450 483 444 c 0
 480 429 528 372 614 293 c 0
 674 237 743 154 758 119 c 0
 759 117 758 116 758 114 c 0
 755 101 732 81 715 81 c 0
 706 81 673 112 641 150 c 0
 586 215 432 367 422 367 c 0
 419 367 353 289 276 194 c 0
 162 54 119 8 96 8 c 0
 90 8 85 11 81 16 c 0
EndSplineSet
EndChar

StartChar: Y
Encoding: 89 89 88
Width: 586
Flags: HW
LayerCount: 2
Fore
SplineSet
286 43 m 2
 276 61 l 1
 314 242 l 1
 354 424 l 1
 330 440 l 2
 317 449 286 484 262 518 c 2
 218 580 l 1
 196 657 l 1
 174 735 l 1
 189 752 l 2
 197 761 211 769 221 769 c 2
 240 769 l 1
 263 691 l 1
 286 613 l 1
 331 555 l 2
 356 523 383 498 390 498 c 0
 397 498 453 545 514 601 c 0
 575 657 639 712 655 723 c 2
 684 743 l 1
 701 733 l 2
 711 727 716 717 715 710 c 0
 714 703 655 645 584 580 c 0
 513 515 451 455 444 445 c 0
 429 425 371 231 349 127 c 0
 347 119 345 111 344 104 c 2
 331 32 l 1
 314 29 l 2
 313 29 311 29 310 29 c 0
 301 29 291 34 286 43 c 2
EndSplineSet
EndChar

StartChar: Z
Encoding: 90 90 89
Width: 947
Flags: HW
LayerCount: 2
Fore
SplineSet
48 76 m 2
 39 91 l 1
 51 112 l 2
 58 124 102 161 149 196 c 0
 196 231 279 292 333 333 c 0
 387 374 525 477 642 562 c 0
 644 564 860 720 861 727 c 0
 863 738 761 745 523 754 c 2
 328 761 l 1
 325 776 l 2
 324 784 329 797 337 805 c 2
 352 819 l 1
 523 819 l 2
 617 819 756 814 830 808 c 2
 964 797 l 1
 973 781 l 2
 977 775 978 769 977 762 c 0
 970 728 890 665 601 452 c 0
 301 230 249 191 248 185 c 0
 248 184 249 184 251 184 c 0
 257 184 305 193 357 204 c 0
 466 227 660 252 799 261 c 0
 851 264 905 269 921 272 c 2
 949 278 l 1
 961 261 l 1
 975 244 l 1
 961 225 l 1
 946 206 l 1
 876 200 l 2
 641 179 575 171 485 157 c 0
 365 138 188 99 121 77 c 0
 91 67 75 63 66 63 c 0
 57 63 53 67 48 76 c 2
EndSplineSet
EndChar

StartChar: bracketleft
Encoding: 91 91 90
Width: 358
Flags: HW
LayerCount: 2
Fore
SplineSet
44 85 m 1
 43 109 l 1
 80 185 l 1
 118 261 l 1
 138 353 l 2
 149 403 171 488 188 542 c 0
 205 596 229 673 242 714 c 2
 264 789 l 1
 291 804 l 1
 317 819 l 1
 401 814 l 2
 447 811 486 809 487 809 c 0
 492 806 493 794 490 782 c 0
 488 773 485 765 480 760 c 2
 465 746 l 1
 396 746 l 1
 327 746 l 1
 283 621 l 2
 259 552 228 445 215 383 c 0
 202 321 184 252 174 229 c 0
 164 206 150 174 142 156 c 2
 127 124 l 1
 233 129 l 1
 341 135 l 1
 350 117 l 1
 359 98 l 1
 345 79 l 1
 331 60 l 1
 188 60 l 1
 45 60 l 1
 44 85 l 1
EndSplineSet
EndChar

StartChar: bracketright
Encoding: 93 93 91
Width: 318
Flags: HW
LayerCount: 2
Fore
SplineSet
67 76 m 2
 66 80 66 84 67 88 c 0
 71 107 99 116 172 125 c 2
 253 136 l 1
 295 335 l 1
 338 535 l 1
 346 641 l 1
 355 747 l 1
 277 743 l 1
 200 740 l 1
 192 757 l 1
 185 775 l 1
 203 790 l 1
 221 805 l 1
 316 812 l 1
 410 819 l 1
 423 802 l 1
 438 784 l 1
 429 742 l 2
 424 718 418 669 415 632 c 0
 412 595 389 460 361 330 c 2
 311 95 l 1
 286 77 l 1
 261 59 l 1
 166 59 l 1
 71 59 l 1
 67 76 l 2
EndSplineSet
EndChar

StartChar: asciicircum
Encoding: 94 94 92
Width: 502
Flags: HW
LayerCount: 2
Fore
SplineSet
144 517 m 0
 140 523 139 532 141 541 c 0
 142 544 142 547 144 550 c 0
 156 572 311 705 403 771 c 2
 471 819 l 1
 498 819 l 1
 526 819 l 1
 537 771 l 2
 542 744 556 681 569 632 c 2
 592 542 l 1
 573 526 l 1
 552 509 l 1
 538 516 l 2
 530 520 508 570 493 630 c 2
 464 739 l 1
 432 716 l 2
 414 703 350 649 288 597 c 0
 226 545 170 502 164 502 c 0
 158 502 149 509 144 517 c 0
EndSplineSet
EndChar

StartChar: underscore
Encoding: 95 95 93
Width: 926
Flags: HW
LayerCount: 2
Fore
SplineSet
45 -1 m 2
 29 3 l 1
 37 29 l 2
 42 43 54 59 63 63 c 0
 72 67 263 76 486 82 c 2
 893 92 l 1
 904 81 l 2
 910 76 911 65 909 54 c 0
 909 52 908 50 908 48 c 2
 900 27 l 1
 529 15 l 2
 325 8 136 1 110 -1 c 0
 97 -2 84 -2 72 -2 c 0
 60 -2 50 -2 45 -1 c 2
EndSplineSet
EndChar

StartChar: grave
Encoding: 96 96 94
Width: 206
Flags: HW
LayerCount: 2
Fore
SplineSet
248 634 m 0
 217 663 184 742 190 771 c 0
 193 783 203 799 212 806 c 2
 231 819 l 1
 244 806 l 2
 252 799 262 778 267 761 c 0
 272 744 286 714 298 696 c 0
 313 675 318 655 315 640 c 0
 313 629 306 622 294 618 c 0
 285 615 280 613 276 613 c 0
 269 613 265 618 248 634 c 0
EndSplineSet
EndChar

StartChar: zcaron
Encoding: 184 382 95
Width: 677
Flags: HW
LayerCount: 2
Fore
SplineSet
414 547 m 4
 355 584 268 658 245 691 c 4
 235 705 230 718 233 730 c 4
 236 742 245 753 260 761 c 6
 278 772 l 5
 317 727 l 6
 339 702 383 663 416 639 c 6
 474 594 l 5
 493 614 l 6
 503 625 546 668 589 711 c 6
 666 789 l 5
 681 786 l 6
 689 784 699 775 703 766 c 6
 709 749 l 5
 668 706 l 6
 645 682 597 631 560 591 c 6
 492 518 l 5
 476 518 l 6
 468 518 440 531 414 547 c 4
41 32 m 1
 31 48 l 1
 43 70 l 1
 53 91 l 1
 113 121 l 2
 146 138 269 196 386 250 c 2
 600 349 l 1
 592 359 l 1
 584 370 l 1
 378 372 l 1
 174 375 l 1
 161 387 l 2
 153 395 150 406 152 415 c 0
 154 423 159 430 168 435 c 0
 175 439 225 440 290 440 c 0
 411 440 586 435 636 427 c 0
 701 416 732 395 726 368 c 0
 724 357 716 345 700 333 c 0
 688 324 576 268 453 210 c 2
 229 104 l 1
 437 109 l 1
 646 113 l 1
 657 96 l 1
 668 78 l 1
 654 61 l 1
 639 44 l 1
 414 38 l 2
 290 34 158 28 120 24 c 2
 51 16 l 1
 41 32 l 1
EndSplineSet
EndChar

StartChar: uni00B9
Encoding: 185 185 96
Width: 284
Flags: HW
LayerCount: 2
Fore
SplineSet
266 527 m 2
 257 542 l 1
 291 626 l 2
 308 666 320 701 322 711 c 0
 324 721 284 686 261 665 c 2
 202 613 l 1
 180 616 l 1
 158 620 l 1
 162 642 l 1
 167 665 l 1
 259 742 l 1
 350 819 l 1
 380 819 l 1
 410 819 l 1
 417 795 l 1
 423 770 l 1
 375 654 l 2
 348 590 322 532 315 525 c 0
 306 517 297 513 289 513 c 0
 280 513 272 518 266 527 c 2
EndSplineSet
EndChar

StartChar: guillemotright
Encoding: 187 187 97
Width: 735
Flags: HW
LayerCount: 2
Fore
SplineSet
60 151 m 0
 57 155 56 167 59 179 c 2
 64 201 l 1
 141 239 l 2
 222 280 435 422 438 436 c 0
 439 443 392 472 330 502 c 0
 212 559 165 590 170 613 c 0
 172 621 181 628 195 635 c 2
 215 644 l 1
 358 573 l 2
 437 534 511 491 521 478 c 2
 540 454 l 1
 528 433 l 2
 514 407 397 320 271 242 c 0
 164 175 104 145 76 145 c 0
 68 145 63 147 60 151 c 0
194 59 m 0
 191 63 190 74 192 84 c 2
 196 102 l 1
 378 220 l 2
 553 334 723 457 726 473 c 0
 727 480 438 617 382 638 c 2
 320 661 l 1
 321 684 l 1
 323 708 l 1
 343 714 l 2
 347 716 352 717 359 717 c 0
 395 717 463 689 615 615 c 2
 784 533 l 1
 801 508 l 1
 818 483 l 1
 808 462 l 2
 790 425 581 271 350 125 c 0
 268 74 228 53 208 53 c 0
 201 53 197 55 194 59 c 0
EndSplineSet
EndChar

StartChar: uni00B2
Encoding: 178 178 98
Width: 377
Flags: HW
LayerCount: 2
Fore
SplineSet
136 451 m 1
 121 465 l 1
 130 489 l 1
 138 514 l 1
 239 553 l 1
 339 592 l 1
 379 624 l 1
 420 657 l 1
 426 685 l 1
 432 714 l 1
 405 729 l 2
 389 738 377 743 366 743 c 0
 351 743 337 734 316 714 c 2
 283 684 l 1
 266 637 l 1
 250 591 l 1
 228 581 l 1
 208 571 l 1
 196 587 l 2
 189 596 185 609 186 616 c 0
 193 649 246 737 275 765 c 2
 307 796 l 1
 349 808 l 1
 390 819 l 1
 425 807 l 2
 444 800 468 779 481 759 c 2
 506 724 l 1
 496 678 l 1
 486 632 l 1
 427 584 l 2
 394 557 357 530 345 523 c 2
 322 511 l 1
 371 516 l 1
 420 522 l 1
 426 503 l 1
 433 483 l 1
 422 470 l 2
 406 450 337 438 239 438 c 2
 152 438 l 1
 136 451 l 1
EndSplineSet
EndChar

StartChar: Zcaron
Encoding: 180 381 99
Width: 947
Flags: HW
LayerCount: 2
Fore
SplineSet
639 897 m 4
 580 934 492 1008 469 1041 c 4
 459 1055 455 1068 458 1080 c 4
 461 1092 469 1103 484 1111 c 6
 502 1122 l 5
 541 1077 l 6
 563 1052 607 1013 640 989 c 6
 699 944 l 5
 717 964 l 6
 727 975 771 1018 814 1061 c 6
 890 1139 l 5
 905 1136 l 6
 913 1134 923 1125 927 1116 c 6
 934 1099 l 5
 892 1056 l 6
 869 1032 821 981 784 941 c 6
 716 868 l 5
 700 868 l 6
 692 868 665 881 639 897 c 4
48 76 m 2
 39 91 l 1
 51 112 l 2
 58 124 102 161 149 196 c 0
 196 231 279 292 333 333 c 0
 387 374 525 477 642 562 c 0
 644 564 860 720 861 727 c 0
 863 738 761 745 523 754 c 2
 328 761 l 1
 325 776 l 2
 324 784 329 797 337 805 c 2
 352 819 l 1
 523 819 l 2
 617 819 756 814 830 808 c 2
 964 797 l 1
 973 781 l 2
 977 775 978 769 977 762 c 0
 970 728 890 665 601 452 c 0
 301 230 249 191 248 185 c 0
 248 184 249 184 251 184 c 0
 257 184 305 193 357 204 c 0
 466 227 660 252 799 261 c 0
 851 264 905 269 921 272 c 2
 949 278 l 1
 961 261 l 1
 975 244 l 1
 961 225 l 1
 946 206 l 1
 876 200 l 2
 641 179 575 171 485 157 c 0
 365 138 188 99 121 77 c 0
 91 67 75 63 66 63 c 0
 57 63 53 67 48 76 c 2
EndSplineSet
EndChar

StartChar: uni00B3
Encoding: 179 179 100
Width: 348
Flags: HW
LayerCount: 2
Fore
SplineSet
199 471 m 2
 194 480 193 496 197 506 c 2
 203 524 l 1
 267 531 l 2
 302 535 338 541 349 545 c 2
 369 552 l 1
 370 569 l 1
 370 586 l 1
 319 588 l 2
 291 589 263 590 257 590 c 0
 245 591 240 608 243 623 c 0
 244 629 247 633 251 638 c 0
 257 646 286 666 317 683 c 0
 353 703 371 716 373 726 c 0
 374 732 371 737 361 741 c 2
 346 748 l 1
 306 729 l 1
 267 710 l 1
 238 670 l 1
 210 631 l 1
 188 634 l 1
 166 637 l 1
 170 671 l 1
 174 706 l 1
 235 755 l 1
 298 805 l 1
 338 812 l 1
 378 819 l 1
 410 800 l 1
 442 780 l 1
 446 752 l 1
 450 724 l 1
 427 691 l 1
 404 658 l 1
 427 630 l 1
 450 603 l 1
 443 569 l 2
 435 531 418 511 373 485 c 2
 342 467 l 1
 276 461 l 1
 209 455 l 1
 199 471 l 2
EndSplineSet
EndChar

StartChar: uni00AD
Encoding: 173 173 102
Width: 462
Flags: HW
LayerCount: 2
Fore
SplineSet
159 385 m 0
 141 389 124 399 120 406 c 2
 115 420 l 1
 127 435 l 1
 140 451 l 1
 326 448 l 2
 429 446 517 441 521 436 c 0
 525 431 524 419 520 409 c 2
 512 390 l 1
 454 383 l 2
 417 379 361 377 306 377 c 0
 242 377 181 380 159 385 c 0
EndSplineSet
EndChar

StartChar: multiply
Encoding: 215 215 103
Width: 529
Flags: HW
LayerCount: 2
Fore
SplineSet
487 265 m 0
 445 310 344 399 335 399 c 0
 331 399 291 365 246 323 c 2
 163 246 l 1
 140 246 l 1
 116 246 l 1
 114 262 l 1
 111 277 l 1
 144 313 l 2
 162 332 203 371 236 400 c 2
 297 452 l 1
 226 542 l 1
 156 632 l 1
 164 656 l 1
 174 681 l 1
 192 684 l 1
 212 688 l 1
 280 600 l 2
 317 552 350 512 355 512 c 0
 360 512 411 555 468 609 c 0
 525 663 580 707 587 707 c 0
 603 707 620 686 617 671 c 0
 616 665 566 614 506 558 c 2
 396 456 l 1
 408 446 l 2
 415 440 449 409 486 376 c 0
 523 343 556 306 559 292 c 2
 565 267 l 1
 548 251 l 2
 538 242 532 237 525 237 c 0
 516 237 505 246 487 265 c 0
EndSplineSet
EndChar

StartChar: section
Encoding: 167 167 104
Width: 575
Flags: HW
LayerCount: 2
Fore
SplineSet
118 -287 m 0
 67 -271 40 -221 48 -182 c 0
 51 -166 61 -152 77 -143 c 0
 80 -141 83 -140 87 -140 c 0
 103 -140 119 -157 120 -179 c 2
 121 -203 l 1
 147 -214 l 2
 175 -226 205 -232 234 -232 c 0
 280 -232 323 -217 357 -189 c 2
 388 -163 l 1
 391 -122 l 2
 395 -70 383 -53 305 0 c 0
 207 66 133 130 117 162 c 0
 108 181 106 200 110 221 c 0
 119 262 155 310 219 368 c 0
 245 392 264 413 265 418 c 0
 265 419 265 419 264 419 c 0
 258 419 235 429 212 441 c 2
 169 463 l 1
 152 499 l 1
 135 536 l 1
 142 571 l 1
 150 606 l 1
 184 649 l 1
 218 692 l 1
 280 729 l 2
 353 773 455 809 527 815 c 2
 579 819 l 1
 600 806 l 2
 612 799 627 783 632 771 c 2
 641 750 l 1
 623 731 l 1
 604 711 l 1
 573 731 l 1
 541 750 l 1
 482 739 l 2
 403 724 327 689 269 644 c 2
 222 606 l 1
 215 575 l 1
 208 543 l 1
 231 522 l 2
 243 510 284 491 321 479 c 0
 535 412 585 385 602 326 c 2
 614 287 l 1
 602 232 l 1
 591 178 l 1
 560 139 l 2
 529 100 437 40 410 40 c 2
 396 40 l 1
 429 0 l 1
 461 -41 l 1
 466 -81 l 1
 469 -122 l 1
 455 -156 l 2
 447 -175 430 -204 415 -222 c 2
 389 -254 l 1
 339 -276 l 1
 289 -298 l 1
 218 -297 l 2
 179 -296 134 -292 118 -287 c 0
443 127 m 2
 496 155 l 1
 520 191 l 1
 542 228 l 1
 539 267 l 1
 536 306 l 1
 513 324 l 2
 484 346 385 381 352 381 c 0
 349 381 348 380 346 380 c 0
 318 373 204 271 189 240 c 2
 176 213 l 1
 191 193 l 2
 199 182 229 154 258 131 c 2
 311 89 l 1
 351 94 l 2
 373 97 414 112 443 127 c 2
EndSplineSet
EndChar

StartChar: guillemotleft
Encoding: 171 171 105
Width: 791
Flags: HW
LayerCount: 2
Fore
SplineSet
656 174 m 0
 535 219 386 290 366 311 c 0
 356 323 347 329 349 340 c 0
 354 362 404 399 565 521 c 2
 698 621 l 1
 723 618 l 1
 750 615 l 1
 749 596 l 1
 749 577 l 1
 697 540 l 2
 631 492 457 360 455 352 c 0
 453 343 484 327 620 270 c 0
 674 247 736 226 757 222 c 0
 778 218 799 207 803 198 c 2
 809 181 l 1
 793 165 l 2
 783 155 770 150 752 150 c 0
 730 150 700 158 656 174 c 0
411 138 m 0
 290 182 167 233 136 250 c 2
 80 282 l 1
 85 308 l 1
 91 333 l 1
 124 356 l 2
 142 369 259 462 383 563 c 2
 609 748 l 1
 624 736 l 2
 633 730 639 717 639 707 c 2
 640 690 l 1
 410 502 l 1
 179 314 l 1
 223 292 l 2
 247 280 360 238 472 198 c 0
 584 158 683 119 691 109 c 2
 705 91 l 1
 696 74 l 1
 685 57 l 1
 658 57 l 2
 643 57 532 94 411 138 c 0
EndSplineSet
EndChar

StartChar: registered
Encoding: 174 174 106
Width: 518
Flags: HW
LayerCount: 2
Fore
SplineSet
240 358 m 0
 198 374 161 413 144 454 c 2
 128 490 l 1
 149 569 l 1
 170 648 l 1
 204 698 l 1
 239 747 l 1
 282 772 l 2
 306 786 353 802 388 808 c 2
 451 819 l 1
 501 808 l 1
 550 796 l 1
 581 765 l 1
 612 734 l 1
 617 676 l 1
 621 617 l 1
 605 536 l 1
 589 454 l 1
 557 420 l 2
 540 402 507 377 483 366 c 2
 439 346 l 1
 354 347 l 2
 307 347 256 352 240 358 c 0
411 415 m 0
 412 419 396 434 376 447 c 2
 339 471 l 1
 310 458 l 1
 282 444 l 1
 273 462 l 1
 263 480 l 1
 282 544 l 2
 292 579 309 625 318 646 c 2
 336 684 l 1
 360 684 l 2
 393 684 458 658 488 632 c 2
 515 611 l 1
 510 587 l 2
 502 549 486 530 455 519 c 2
 426 508 l 1
 450 488 l 2
 463 477 472 460 470 452 c 2
 467 437 l 1
 481 441 l 2
 488 443 503 456 513 470 c 2
 532 495 l 1
 540 560 l 1
 549 625 l 1
 537 671 l 1
 523 717 l 1
 492 731 l 2
 473 740 451 744 427 744 c 0
 404 744 380 740 351 732 c 2
 308 719 l 1
 278 686 l 2
 262 667 236 626 222 595 c 2
 198 538 l 1
 211 502 l 2
 228 451 259 427 321 418 c 0
 362 412 385 409 397 409 c 0
 407 409 410 411 411 415 c 0
427 582 m 0
 428 588 425 592 421 592 c 0
 417 592 403 595 391 598 c 2
 369 604 l 1
 366 588 l 1
 362 571 l 1
 393 571 l 2
 410 571 426 576 427 582 c 0
EndSplineSet
EndChar

StartChar: degree
Encoding: 176 176 107
Width: 431
Flags: HW
LayerCount: 2
Fore
SplineSet
246 461 m 0
 227 467 201 483 186 497 c 2
 159 521 l 1
 154 557 l 1
 150 593 l 1
 164 626 l 2
 201 712 283 788 361 808 c 2
 404 819 l 1
 442 809 l 2
 496 794 521 765 534 704 c 2
 545 651 l 1
 524 610 l 2
 478 519 377 454 291 454 c 0
 275 454 260 457 246 461 c 0
395 557 m 0
 416 571 441 596 452 613 c 2
 472 644 l 1
 452 676 l 2
 441 693 433 713 435 721 c 2
 438 735 l 1
 410 741 l 1
 381 748 l 1
 347 732 l 2
 300 710 250 660 233 618 c 2
 219 583 l 1
 229 566 l 2
 235 557 253 543 268 535 c 2
 295 521 l 1
 326 527 l 2
 343 530 374 543 395 557 c 0
EndSplineSet
EndChar

StartChar: copyright
Encoding: 169 169 108
Width: 514
Flags: HW
LayerCount: 2
Fore
SplineSet
242 404 m 2
 222 412 195 431 182 447 c 2
 159 476 l 1
 157 544 l 1
 153 612 l 1
 175 655 l 1
 197 697 l 1
 243 736 l 2
 268 757 313 785 341 797 c 2
 392 819 l 1
 447 819 l 1
 503 819 l 1
 558 787 l 2
 627 747 631 744 625 704 c 0
 623 686 617 644 614 612 c 2
 608 553 l 1
 570 499 l 1
 532 445 l 1
 493 419 l 1
 454 394 l 1
 366 392 l 1
 279 389 l 1
 242 404 l 2
465 478 m 0
 498 496 532 550 542 595 c 0
 546 613 545 649 538 673 c 2
 525 717 l 1
 500 732 l 2
 486 740 455 748 432 748 c 2
 390 748 l 1
 347 727 l 2
 323 716 286 692 267 674 c 2
 232 641 l 1
 228 594 l 2
 220 503 239 475 319 461 c 0
 335 458 353 456 369 456 c 0
 406 456 440 464 465 478 c 0
295 516 m 1
 267 551 l 1
 275 589 l 1
 283 627 l 1
 310 656 l 1
 337 685 l 1
 376 697 l 1
 415 709 l 1
 447 702 l 2
 465 699 485 687 493 676 c 2
 507 657 l 1
 498 633 l 1
 489 609 l 1
 470 606 l 2
 469 606 467 606 466 606 c 0
 456 606 443 611 435 620 c 2
 419 637 l 1
 391 631 l 2
 368 625 353 612 350 596 c 0
 349 589 348 582 351 575 c 2
 358 558 l 1
 397 553 l 1
 435 548 l 1
 435 531 l 2
 435 522 425 507 414 498 c 2
 394 481 l 1
 358 481 l 1
 322 481 l 1
 295 516 l 1
EndSplineSet
EndChar

StartChar: backslash
Encoding: 92 92 109
Width: 596
Flags: HW
LayerCount: 2
Fore
SplineSet
503 121 m 2
 481 151 443 215 418 263 c 0
 393 311 347 400 314 462 c 0
 281 524 238 620 219 675 c 2
 185 776 l 1
 194 791 l 2
 199 799 211 809 222 813 c 2
 240 819 l 1
 255 794 l 2
 263 780 280 735 295 693 c 0
 329 595 503 255 559 179 c 2
 602 121 l 1
 594 97 l 1
 586 73 l 1
 563 70 l 1
 541 67 l 1
 503 121 l 2
EndSplineSet
EndChar

StartChar: divide
Encoding: 247 247 110
Width: 542
Flags: HW
LayerCount: 2
Fore
SplineSet
281 240 m 0
 273 250 270 257 271 264 c 0
 272 270 278 277 288 288 c 2
 305 306 l 1
 328 302 l 1
 353 299 l 1
 351 278 l 2
 350 257 319 224 302 224 c 0
 297 224 288 231 281 240 c 0
281 373 m 2
 126 379 l 1
 116 390 l 2
 111 396 111 410 115 420 c 2
 122 439 l 1
 351 435 l 1
 581 432 l 1
 592 418 l 1
 604 404 l 1
 586 389 l 1
 569 375 l 1
 503 371 l 2
 490 370 469 370 444 370 c 0
 398 370 337 371 281 373 c 2
338 518 m 2
 337 523 338 531 340 539 c 0
 341 543 341 547 343 551 c 2
 350 569 l 1
 380 569 l 1
 410 569 l 1
 404 539 l 1
 397 509 l 1
 369 506 l 1
 341 503 l 1
 338 518 l 2
EndSplineSet
EndChar

StartChar: Agrave
Encoding: 192 192 111
Width: 579
Flags: HW
LayerCount: 2
Fore
SplineSet
28 -11 m 0
 22 -8 18 -3 20 7 c 0
 24 28 52 72 117 172 c 0
 272 411 368 573 450 732 c 2
 491 812 l 1
 511 818 l 2
 514 819 518 819 521 819 c 0
 541 819 557 802 552 780 c 0
 550 770 549 701 551 626 c 0
 553 551 556 384 558 254 c 2
 561 18 l 1
 548 0 l 2
 539 -12 530 -18 520 -18 c 0
 514 -18 507 -15 500 -10 c 0
 494 -6 488 60 487 135 c 0
 486 210 483 275 481 280 c 0
 478 286 422 289 370 289 c 0
 326 289 285 287 276 282 c 0
 269 278 223 215 175 143 c 0
 92 17 68 -15 44 -15 c 0
 39 -15 33 -14 28 -11 c 0
484 366 m 2
 485 372 484 435 481 507 c 2
 475 637 l 1
 399 506 l 2
 357 434 322 371 321 366 c 2
 319 356 l 1
 401 356 l 1
 482 356 l 1
 484 366 l 2
EndSplineSet
EndChar

StartChar: Aacute
Encoding: 193 193 112
Width: 579
Flags: HW
LayerCount: 2
Fore
SplineSet
28 -11 m 0
 22 -8 18 -3 20 7 c 0
 24 28 52 72 117 172 c 0
 272 411 368 573 450 732 c 2
 491 812 l 1
 511 818 l 2
 514 819 518 819 521 819 c 0
 541 819 557 802 552 780 c 0
 550 770 549 701 551 626 c 0
 553 551 556 384 558 254 c 2
 561 18 l 1
 548 0 l 2
 539 -12 530 -18 520 -18 c 0
 514 -18 507 -15 500 -10 c 0
 494 -6 488 60 487 135 c 0
 486 210 483 275 481 280 c 0
 478 286 422 289 370 289 c 0
 326 289 285 287 276 282 c 0
 269 278 223 215 175 143 c 0
 92 17 68 -15 44 -15 c 0
 39 -15 33 -14 28 -11 c 0
484 366 m 2
 485 372 484 435 481 507 c 2
 475 637 l 1
 399 506 l 2
 357 434 322 371 321 366 c 2
 319 356 l 1
 401 356 l 1
 482 356 l 1
 484 366 l 2
377 849 m 1
 362 863 l 1
 376 879 l 2
 392 899 621 996 655 998 c 2
 678 999 l 1
 687 981 l 1
 694 963 l 1
 667 946 l 2
 638 927 468 857 421 844 c 2
 393 836 l 1
 377 849 l 1
EndSplineSet
EndChar

StartChar: Acircumflex
Encoding: 194 194 113
Width: 579
Flags: HW
LayerCount: 2
Fore
SplineSet
28 -11 m 0
 22 -8 18 -3 20 7 c 0
 24 28 52 72 117 172 c 0
 272 411 368 573 450 732 c 2
 491 812 l 1
 511 818 l 2
 514 819 518 819 521 819 c 0
 541 819 557 802 552 780 c 0
 550 770 549 701 551 626 c 0
 553 551 556 384 558 254 c 2
 561 18 l 1
 548 0 l 2
 539 -12 530 -18 520 -18 c 0
 514 -18 507 -15 500 -10 c 0
 494 -6 488 60 487 135 c 0
 486 210 483 275 481 280 c 0
 478 286 422 289 370 289 c 0
 326 289 285 287 276 282 c 0
 269 278 223 215 175 143 c 0
 92 17 68 -15 44 -15 c 0
 39 -15 33 -14 28 -11 c 0
484 366 m 2
 485 372 484 435 481 507 c 2
 475 637 l 1
 399 506 l 2
 357 434 322 371 321 366 c 2
 319 356 l 1
 401 356 l 1
 482 356 l 1
 484 366 l 2
EndSplineSet
EndChar

StartChar: Atilde
Encoding: 195 195 114
Width: 579
Flags: HW
LayerCount: 2
Fore
SplineSet
28 -11 m 0
 22 -8 18 -3 20 7 c 0
 24 28 52 72 117 172 c 0
 272 411 368 573 450 732 c 2
 491 812 l 1
 511 818 l 2
 514 819 518 819 521 819 c 0
 541 819 557 802 552 780 c 0
 550 770 549 701 551 626 c 0
 553 551 556 384 558 254 c 2
 561 18 l 1
 548 0 l 2
 539 -12 530 -18 520 -18 c 0
 514 -18 507 -15 500 -10 c 0
 494 -6 488 60 487 135 c 0
 486 210 483 275 481 280 c 0
 478 286 422 289 370 289 c 0
 326 289 285 287 276 282 c 0
 269 278 223 215 175 143 c 0
 92 17 68 -15 44 -15 c 0
 39 -15 33 -14 28 -11 c 0
484 366 m 2
 485 372 484 435 481 507 c 2
 475 637 l 1
 399 506 l 2
 357 434 322 371 321 366 c 2
 319 356 l 1
 401 356 l 1
 482 356 l 1
 484 366 l 2
EndSplineSet
EndChar

StartChar: Adieresis
Encoding: 196 196 115
Width: 579
Flags: HW
LayerCount: 2
Fore
SplineSet
28 -11 m 0
 22 -8 18 -3 20 7 c 0
 24 28 52 72 117 172 c 0
 272 411 368 573 450 732 c 2
 491 812 l 1
 511 818 l 2
 514 819 518 819 521 819 c 0
 541 819 557 802 552 780 c 0
 550 770 549 701 551 626 c 0
 553 551 556 384 558 254 c 2
 561 18 l 1
 548 0 l 2
 539 -12 530 -18 520 -18 c 0
 514 -18 507 -15 500 -10 c 0
 494 -6 488 60 487 135 c 0
 486 210 483 275 481 280 c 0
 478 286 422 289 370 289 c 0
 326 289 285 287 276 282 c 0
 269 278 223 215 175 143 c 0
 92 17 68 -15 44 -15 c 0
 39 -15 33 -14 28 -11 c 0
484 366 m 2
 485 372 484 435 481 507 c 2
 475 637 l 1
 399 506 l 2
 357 434 322 371 321 366 c 2
 319 356 l 1
 401 356 l 1
 482 356 l 1
 484 366 l 2
EndSplineSet
EndChar

StartChar: Aring
Encoding: 197 197 116
Width: 579
Flags: HW
LayerCount: 2
Fore
SplineSet
28 -11 m 0
 22 -8 18 -3 20 7 c 0
 24 28 52 72 117 172 c 0
 272 411 368 573 450 732 c 2
 491 812 l 1
 511 818 l 2
 514 819 518 819 521 819 c 0
 541 819 557 802 552 780 c 0
 550 770 549 701 551 626 c 0
 553 551 556 384 558 254 c 2
 561 18 l 1
 548 0 l 2
 539 -12 530 -18 520 -18 c 0
 514 -18 507 -15 500 -10 c 0
 494 -6 488 60 487 135 c 0
 486 210 483 275 481 280 c 0
 478 286 422 289 370 289 c 0
 326 289 285 287 276 282 c 0
 269 278 223 215 175 143 c 0
 92 17 68 -15 44 -15 c 0
 39 -15 33 -14 28 -11 c 0
484 366 m 2
 485 372 484 435 481 507 c 2
 475 637 l 1
 399 506 l 2
 357 434 322 371 321 366 c 2
 319 356 l 1
 401 356 l 1
 482 356 l 1
 484 366 l 2
EndSplineSet
EndChar

StartChar: agrave
Encoding: 224 224 117
Width: 541
Flags: HW
LayerCount: 2
Fore
SplineSet
405 534 m 6
 332 555 239 597 233 613 c 4
 227 627 244 652 262 658 c 4
 270 661 301 653 332 639 c 4
 363 625 423 606 465 595 c 4
 549 574 561 566 550 538 c 6
 542 520 l 5
 507 518 l 6
 488 517 441 524 405 534 c 6
 405 534 l 6
111 28 m 0
 73 49 56 92 59 150 c 2
 61 194 l 1
 86 248 l 2
 127 339 213 423 296 455 c 2
 337 471 l 1
 401 471 l 1
 465 471 l 1
 495 450 l 2
 511 439 525 422 527 413 c 0
 528 411 526 407 525 401 c 0
 521 380 506 335 489 288 c 0
 463 219 449 171 442 140 c 0
 437 117 437 103 440 94 c 2
 446 80 l 1
 478 86 l 1
 510 93 l 1
 520 76 l 1
 531 60 l 1
 516 43 l 2
 508 34 486 21 467 16 c 2
 432 7 l 1
 410 19 l 2
 397 25 381 44 375 61 c 2
 363 92 l 1
 340 72 l 2
 298 34 236 13 181 13 c 0
 155 13 130 18 111 28 c 0
272 105 m 0
 319 134 370 201 414 297 c 2
 453 381 l 1
 445 393 l 1
 435 404 l 1
 379 403 l 1
 322 402 l 1
 277 375 l 2
 221 342 165 275 143 212 c 2
 126 164 l 1
 133 132 l 1
 139 100 l 1
 166 87 l 2
 178 82 189 79 201 79 c 0
 221 79 243 87 272 105 c 0
EndSplineSet
EndChar

StartChar: aacute
Encoding: 225 225 118
Width: 540
Flags: HW
LayerCount: 2
Fore
SplineSet
111 28 m 0
 73 49 56 92 59 150 c 2
 61 194 l 1
 86 248 l 2
 127 339 213 423 296 455 c 2
 337 471 l 1
 401 471 l 1
 465 471 l 1
 495 450 l 2
 511 439 525 422 527 413 c 0
 528 411 526 407 525 401 c 0
 521 380 506 335 489 288 c 0
 463 219 449 171 442 140 c 0
 437 117 437 103 440 94 c 2
 446 80 l 1
 478 86 l 1
 510 93 l 1
 520 76 l 1
 531 60 l 1
 516 43 l 2
 508 34 486 21 467 16 c 2
 432 7 l 1
 410 19 l 2
 397 25 381 44 375 61 c 2
 363 92 l 1
 340 72 l 2
 298 34 236 13 181 13 c 0
 155 13 130 18 111 28 c 0
272 105 m 0
 319 134 370 201 414 297 c 2
 453 381 l 1
 445 393 l 1
 435 404 l 1
 379 403 l 1
 322 402 l 1
 277 375 l 2
 221 342 165 275 143 212 c 2
 126 164 l 1
 133 132 l 1
 139 100 l 1
 166 87 l 2
 178 82 189 79 201 79 c 0
 221 79 243 87 272 105 c 0
250 529 m 1
 235 543 l 1
 249 559 l 2
 265 579 494 676 528 678 c 2
 551 679 l 1
 560 661 l 1
 567 643 l 1
 540 626 l 2
 511 607 341 537 294 524 c 2
 266 516 l 1
 250 529 l 1
EndSplineSet
EndChar

StartChar: acircumflex
Encoding: 226 226 119
Width: 541
Flags: HW
LayerCount: 2
Fore
SplineSet
140 497 m 4
 136 503 135 512 137 521 c 4
 138 524 138 527 140 530 c 4
 152 552 307 685 399 751 c 6
 467 799 l 5
 494 799 l 5
 522 799 l 5
 533 751 l 6
 538 724 552 661 565 612 c 6
 588 522 l 5
 569 506 l 5
 548 489 l 5
 533 496 l 6
 525 500 504 550 489 610 c 6
 460 719 l 5
 428 696 l 6
 410 683 346 629 284 577 c 4
 222 525 165 482 159 482 c 4
 153 482 145 489 140 497 c 4
111 28 m 0
 73 49 56 92 59 150 c 2
 61 194 l 1
 86 248 l 2
 127 339 213 423 296 455 c 2
 337 471 l 1
 401 471 l 1
 465 471 l 1
 495 450 l 2
 511 439 525 422 527 413 c 0
 528 411 526 407 525 401 c 0
 521 380 506 335 489 288 c 0
 463 219 449 171 442 140 c 0
 437 117 437 103 440 94 c 2
 446 80 l 1
 478 86 l 1
 510 93 l 1
 520 76 l 1
 531 60 l 1
 516 43 l 2
 508 34 486 21 467 16 c 2
 432 7 l 1
 410 19 l 2
 397 25 381 44 375 61 c 2
 363 92 l 1
 340 72 l 2
 298 34 236 13 181 13 c 0
 155 13 130 18 111 28 c 0
272 105 m 0
 319 134 370 201 414 297 c 2
 453 381 l 1
 445 393 l 1
 435 404 l 1
 379 403 l 1
 322 402 l 1
 277 375 l 2
 221 342 165 275 143 212 c 2
 126 164 l 1
 133 132 l 1
 139 100 l 1
 166 87 l 2
 178 82 189 79 201 79 c 0
 221 79 243 87 272 105 c 0
EndSplineSet
EndChar

StartChar: atilde
Encoding: 227 227 120
Width: 541
Flags: HW
LayerCount: 2
Fore
SplineSet
342 576 m 6
 297 636 266 659 232 659 c 4
 226 659 219 659 213 657 c 4
 174 648 111 605 86 570 c 6
 64 540 l 5
 44 540 l 6
 24 540 16 552 20 569 c 4
 25 592 47 624 86 656 c 4
 149 708 193 728 248 728 c 4
 315 728 351 702 410 613 c 6
 431 581 l 5
 460 581 l 5
 489 581 l 5
 556 616 l 6
 593 636 648 670 679 692 c 4
 733 730 767 749 785 749 c 4
 798 749 803 739 799 718 c 6
 794 694 l 5
 702 631 l 6
 652 597 582 556 545 539 c 6
 478 509 l 5
 435 509 l 5
 392 509 l 5
 342 576 l 6
111 28 m 0
 73 49 56 92 59 150 c 2
 61 194 l 1
 86 248 l 2
 127 339 213 423 296 455 c 2
 337 471 l 1
 401 471 l 1
 465 471 l 1
 495 450 l 2
 511 439 525 422 527 413 c 0
 528 411 526 407 525 401 c 0
 521 380 506 335 489 288 c 0
 463 219 449 171 442 140 c 0
 437 117 437 103 440 94 c 2
 446 80 l 1
 478 86 l 1
 510 93 l 1
 520 76 l 1
 531 60 l 1
 516 43 l 2
 508 34 486 21 467 16 c 2
 432 7 l 1
 410 19 l 2
 397 25 381 44 375 61 c 2
 363 92 l 1
 340 72 l 2
 298 34 236 13 181 13 c 0
 155 13 130 18 111 28 c 0
272 105 m 0
 319 134 370 201 414 297 c 2
 453 381 l 1
 445 393 l 1
 435 404 l 1
 379 403 l 1
 322 402 l 1
 277 375 l 2
 221 342 165 275 143 212 c 2
 126 164 l 1
 133 132 l 1
 139 100 l 1
 166 87 l 2
 178 82 189 79 201 79 c 0
 221 79 243 87 272 105 c 0
EndSplineSet
EndChar

StartChar: adieresis
Encoding: 228 228 121
Width: 540
Flags: HW
LayerCount: 2
Fore
SplineSet
111 28 m 0
 73 49 56 92 59 150 c 2
 61 194 l 1
 86 248 l 2
 127 339 213 423 296 455 c 2
 337 471 l 1
 401 471 l 1
 465 471 l 1
 495 450 l 2
 511 439 525 422 527 413 c 0
 528 411 526 407 525 401 c 0
 521 380 506 335 489 288 c 0
 463 219 449 171 442 140 c 0
 437 117 437 103 440 94 c 2
 446 80 l 1
 478 86 l 1
 510 93 l 1
 520 76 l 1
 531 60 l 1
 516 43 l 2
 508 34 486 21 467 16 c 2
 432 7 l 1
 410 19 l 2
 397 25 381 44 375 61 c 2
 363 92 l 1
 340 72 l 2
 298 34 236 13 181 13 c 0
 155 13 130 18 111 28 c 0
272 105 m 0
 319 134 370 201 414 297 c 2
 453 381 l 1
 445 393 l 1
 435 404 l 1
 379 403 l 1
 322 402 l 1
 277 375 l 2
 221 342 165 275 143 212 c 2
 126 164 l 1
 133 132 l 1
 139 100 l 1
 166 87 l 2
 178 82 189 79 201 79 c 0
 221 79 243 87 272 105 c 0
246 532 m 2
 226 548 l 1
 232 573 l 1
 237 598 l 1
 267 615 l 1
 296 632 l 1
 329 615 l 1
 360 598 l 1
 356 578 l 2
 350 552 309 516 284 516 c 0
 274 516 257 523 246 532 c 2
496 532 m 2
 476 548 l 1
 482 573 l 1
 487 598 l 1
 517 615 l 1
 546 632 l 1
 579 615 l 1
 610 598 l 1
 606 578 l 2
 600 552 559 516 534 516 c 0
 524 516 507 523 496 532 c 2
EndSplineSet
EndChar

StartChar: aring
Encoding: 229 229 122
Width: 541
Flags: HW
LayerCount: 2
Fore
SplineSet
311 531 m 0
 292 537 266 553 251 567 c 2
 224 591 l 1
 219 627 l 1
 215 663 l 1
 229 696 l 2
 266 782 348 858 426 878 c 2
 469 889 l 1
 507 879 l 2
 561 864 586 835 599 774 c 2
 610 721 l 1
 589 680 l 2
 543 589 441 524 355 524 c 0
 339 524 325 527 311 531 c 0
460 627 m 0
 481 641 506 666 517 683 c 2
 537 714 l 1
 517 746 l 2
 506 763 498 783 500 791 c 2
 503 805 l 1
 474 811 l 1
 446 818 l 1
 411 802 l 2
 364 780 315 730 298 688 c 2
 284 653 l 1
 294 636 l 2
 300 627 318 613 333 605 c 2
 360 591 l 1
 391 597 l 2
 408 600 439 613 460 627 c 0
111 28 m 0
 73 49 56 92 59 150 c 2
 61 194 l 1
 86 248 l 2
 127 339 213 423 296 455 c 2
 337 471 l 1
 401 471 l 1
 465 471 l 1
 495 450 l 2
 511 439 525 422 527 413 c 0
 528 411 526 407 525 401 c 0
 521 380 506 335 489 288 c 0
 463 219 449 171 442 140 c 0
 437 117 437 103 440 94 c 2
 446 80 l 1
 478 86 l 1
 510 93 l 1
 520 76 l 1
 531 60 l 1
 516 43 l 2
 508 34 486 21 467 16 c 2
 432 7 l 1
 410 19 l 2
 397 25 381 44 375 61 c 2
 363 92 l 1
 340 72 l 2
 298 34 236 13 181 13 c 0
 155 13 130 18 111 28 c 0
272 105 m 0
 319 134 370 201 414 297 c 2
 453 381 l 1
 445 393 l 1
 435 404 l 1
 379 403 l 1
 322 402 l 1
 277 375 l 2
 221 342 165 275 143 212 c 2
 126 164 l 1
 133 132 l 1
 139 100 l 1
 166 87 l 2
 178 82 189 79 201 79 c 0
 221 79 243 87 272 105 c 0
EndSplineSet
EndChar

StartChar: ccedilla
Encoding: 231 231 123
Width: 515
Flags: HW
LayerCount: 2
Fore
SplineSet
155 27 m 0
 110 38 72 68 60 100 c 2
 49 128 l 1
 65 200 l 1
 80 271 l 1
 104 314 l 2
 117 338 146 377 169 401 c 2
 211 446 l 1
 268 473 l 1
 324 501 l 1
 406 507 l 1
 487 512 l 1
 528 490 l 1
 569 467 l 1
 576 438 l 2
 579 427 579 416 577 407 c 0
 576 403 573 399 572 397 c 0
 566 390 558 386 548 386 c 0
 532 386 514 396 502 413 c 2
 483 440 l 1
 403 435 l 1
 324 431 l 1
 286 413 l 1
 248 395 l 1
 209 349 l 2
 187 323 158 277 145 246 c 2
 122 190 l 1
 128 152 l 1
 134 115 l 1
 167 103 l 2
 184 96 225 91 261 90 c 1
 262 91 l 1
 264 90 l 2
 266 90 267 90 268 90 c 2
 336 89 l 1
 402 108 l 2
 431 116 451 121 464 121 c 0
 481 121 486 113 483 98 c 0
 482 95 481 92 480 88 c 2
 471 64 l 1
 400 41 l 1
 328 18 l 1
 279 19 l 1
 278 12 l 1
 263 -45 l 5
 305 -52 l 6
 390 -67 416 -97 402 -165 c 6
 394 -203 l 5
 352 -236 l 6
 314 -266 257 -283 210 -283 c 4
 184 -283 160 -278 146 -266 c 4
 133 -256 129 -240 132 -227 c 4
 134 -218 139 -211 149 -208 c 4
 153 -206 162 -206 174 -206 c 4
 186 -206 202 -206 216 -208 c 6
 268 -213 l 5
 297 -196 l 6
 316 -185 329 -170 332 -156 c 4
 334 -147 331 -138 324 -132 c 4
 318 -127 284 -123 247 -123 c 6
 180 -123 l 5
 202 -32 l 5
 215 20 l 1
 189 21 166 24 155 27 c 0
EndSplineSet
EndChar

StartChar: egrave
Encoding: 232 232 124
Width: 599
Flags: HW
LayerCount: 2
Fore
SplineSet
450 604 m 6
 377 625 284 667 278 683 c 4
 272 697 289 722 307 728 c 4
 315 731 346 723 377 709 c 4
 408 695 468 676 510 665 c 4
 594 644 605 636 594 608 c 6
 587 590 l 5
 552 588 l 6
 533 587 486 594 450 604 c 6
 450 604 l 6
255 19 m 0
 144 35 89 72 72 146 c 2
 62 188 l 1
 76 255 l 1
 91 323 l 1
 116 368 l 2
 169 460 294 532 436 553 c 2
 507 563 l 1
 548 551 l 2
 571 544 599 528 610 514 c 2
 630 488 l 1
 616 452 l 2
 588 375 479 288 381 263 c 2
 337 252 l 1
 253 259 l 2
 207 263 163 269 155 272 c 2
 140 278 l 1
 138 233 l 2
 133 150 169 111 266 89 c 2
 320 77 l 1
 386 88 l 2
 422 94 481 111 515 125 c 0
 547 138 568 145 582 145 c 0
 599 145 603 135 599 115 c 2
 594 91 l 1
 540 66 l 2
 463 31 392 14 321 14 c 0
 299 14 277 16 255 19 c 0
449 362 m 2
 477 379 511 407 526 426 c 2
 553 460 l 1
 544 471 l 2
 539 477 516 484 492 487 c 2
 447 492 l 1
 383 475 l 2
 297 452 226 413 199 376 c 2
 177 346 l 1
 188 341 l 2
 212 333 243 328 292 328 c 0
 302 328 312 329 324 329 c 2
 398 331 l 1
 449 362 l 2
EndSplineSet
EndChar

StartChar: eacute
Encoding: 233 233 125
Width: 598
Flags: HW
LayerCount: 2
Fore
SplineSet
254 19 m 0
 143 35 88 72 71 146 c 2
 61 188 l 1
 75 255 l 1
 90 323 l 1
 115 368 l 2
 168 460 293 532 435 553 c 2
 506 563 l 1
 547 551 l 2
 570 544 598 528 609 514 c 2
 629 488 l 1
 615 452 l 2
 587 375 478 288 380 263 c 2
 336 252 l 1
 252 259 l 2
 206 263 162 269 154 272 c 2
 139 278 l 1
 137 233 l 2
 132 150 168 111 265 89 c 2
 319 77 l 1
 385 88 l 2
 421 94 480 111 514 125 c 0
 546 138 567 145 581 145 c 0
 598 145 602 135 598 115 c 2
 593 91 l 1
 539 66 l 2
 462 31 391 14 320 14 c 0
 298 14 276 16 254 19 c 0
448 362 m 2
 476 379 510 407 525 426 c 2
 552 460 l 1
 543 471 l 2
 538 477 515 484 491 487 c 2
 446 492 l 1
 382 475 l 2
 296 452 225 413 198 376 c 2
 176 346 l 1
 187 341 l 2
 211 333 242 328 291 328 c 0
 301 328 311 329 323 329 c 2
 397 331 l 1
 448 362 l 2
264 589 m 1
 249 603 l 1
 263 619 l 2
 279 639 508 736 542 738 c 2
 565 739 l 1
 573 721 l 1
 580 703 l 1
 554 686 l 2
 525 667 355 597 308 584 c 2
 279 576 l 1
 264 589 l 1
EndSplineSet
EndChar

StartChar: ecircumflex
Encoding: 234 234 126
Width: 599
Flags: HW
LayerCount: 2
Fore
SplineSet
209 587 m 4
 205 593 204 602 206 611 c 4
 207 614 207 617 209 620 c 4
 221 642 376 775 468 841 c 6
 536 889 l 5
 563 889 l 5
 591 889 l 5
 602 841 l 6
 607 814 621 751 634 702 c 6
 657 612 l 5
 638 596 l 5
 617 579 l 5
 603 586 l 6
 595 590 573 640 558 700 c 6
 529 809 l 5
 497 786 l 6
 479 773 415 719 353 667 c 4
 291 615 235 572 229 572 c 4
 223 572 214 579 209 587 c 4
255 19 m 0
 144 35 89 72 72 146 c 2
 62 188 l 1
 76 255 l 1
 91 323 l 1
 116 368 l 2
 169 460 294 532 436 553 c 2
 507 563 l 1
 548 551 l 2
 571 544 599 528 610 514 c 2
 630 488 l 1
 616 452 l 2
 588 375 479 288 381 263 c 2
 337 252 l 1
 253 259 l 2
 207 263 163 269 155 272 c 2
 140 278 l 1
 138 233 l 2
 133 150 169 111 266 89 c 2
 320 77 l 1
 386 88 l 2
 422 94 481 111 515 125 c 0
 547 138 568 145 582 145 c 0
 599 145 603 135 599 115 c 2
 594 91 l 1
 540 66 l 2
 463 31 392 14 321 14 c 0
 299 14 277 16 255 19 c 0
449 362 m 2
 477 379 511 407 526 426 c 2
 553 460 l 1
 544 471 l 2
 539 477 516 484 492 487 c 2
 447 492 l 1
 383 475 l 2
 297 452 226 413 199 376 c 2
 177 346 l 1
 188 341 l 2
 212 333 243 328 292 328 c 0
 302 328 312 329 324 329 c 2
 398 331 l 1
 449 362 l 2
EndSplineSet
EndChar

StartChar: edieresis
Encoding: 235 235 127
Width: 598
Flags: HW
LayerCount: 2
Fore
SplineSet
254 19 m 0
 143 35 88 72 71 146 c 2
 61 188 l 1
 75 255 l 1
 90 323 l 1
 115 368 l 2
 168 460 293 532 435 553 c 2
 506 563 l 1
 547 551 l 2
 570 544 598 528 609 514 c 2
 629 488 l 1
 615 452 l 2
 587 375 478 288 380 263 c 2
 336 252 l 1
 252 259 l 2
 206 263 162 269 154 272 c 2
 139 278 l 1
 137 233 l 2
 132 150 168 111 265 89 c 2
 319 77 l 1
 385 88 l 2
 421 94 480 111 514 125 c 0
 546 138 567 145 581 145 c 0
 598 145 602 135 598 115 c 2
 593 91 l 1
 539 66 l 2
 462 31 391 14 320 14 c 0
 298 14 276 16 254 19 c 0
448 362 m 2
 476 379 510 407 525 426 c 2
 552 460 l 1
 543 471 l 2
 538 477 515 484 491 487 c 2
 446 492 l 1
 382 475 l 2
 296 452 225 413 198 376 c 2
 176 346 l 1
 187 341 l 2
 211 333 242 328 291 328 c 0
 301 328 311 329 323 329 c 2
 397 331 l 1
 448 362 l 2
286 622 m 2
 267 638 l 1
 272 663 l 1
 277 688 l 1
 307 705 l 1
 336 722 l 1
 369 705 l 1
 400 688 l 1
 396 668 l 2
 390 642 349 606 324 606 c 0
 314 606 297 613 286 622 c 2
536 622 m 2
 517 638 l 1
 522 663 l 1
 527 688 l 1
 557 705 l 1
 586 722 l 1
 619 705 l 1
 650 688 l 1
 646 668 l 2
 640 642 599 606 574 606 c 0
 564 606 547 613 536 622 c 2
EndSplineSet
EndChar

StartChar: igrave
Encoding: 236 236 128
Width: 350
Flags: HW
LayerCount: 2
Fore
SplineSet
243 474 m 6
 170 495 76 537 70 553 c 4
 64 567 81 592 99 598 c 4
 107 601 139 593 170 579 c 4
 201 565 261 546 303 535 c 4
 387 514 398 506 387 478 c 6
 379 460 l 5
 344 458 l 6
 325 457 279 464 243 474 c 6
 243 474 l 6
75 12 m 0
 66 18 54 37 49 53 c 2
 40 82 l 1
 57 162 l 2
 81 276 139 390 185 415 c 2
 206 426 l 1
 218 410 l 1
 231 394 l 1
 200 342 l 2
 183 314 156 262 143 227 c 2
 118 163 l 1
 116 122 l 2
 114 89 124 73 146 73 c 0
 168 73 203 90 253 124 c 0
 287 147 322 165 333 165 c 0
 350 165 358 151 354 134 c 0
 353 130 353 125 350 121 c 0
 341 105 243 40 195 17 c 0
 174 7 146 2 122 2 c 0
 102 2 86 5 75 12 c 0
EndSplineSet
EndChar

StartChar: iacute
Encoding: 237 237 129
Width: 399
Flags: HW
LayerCount: 2
Fore
SplineSet
124 12 m 0
 115 18 103 37 98 53 c 2
 89 82 l 1
 106 162 l 2
 130 276 188 390 234 415 c 2
 255 426 l 1
 267 410 l 1
 280 394 l 1
 249 342 l 2
 232 314 205 262 192 227 c 2
 167 163 l 1
 165 122 l 2
 163 89 173 73 195 73 c 0
 217 73 252 90 302 124 c 0
 336 147 371 165 382 165 c 0
 399 165 407 151 403 134 c 0
 402 130 402 125 399 121 c 0
 390 105 292 40 244 17 c 0
 223 7 195 2 171 2 c 0
 151 2 135 5 124 12 c 0
136 469 m 1
 121 483 l 1
 134 499 l 2
 150 519 379 616 413 618 c 2
 437 619 l 1
 445 601 l 1
 452 583 l 1
 425 566 l 2
 396 547 227 477 180 464 c 2
 151 456 l 1
 136 469 l 1
EndSplineSet
EndChar

StartChar: icircumflex
Encoding: 238 238 130
Width: 350
Flags: HW
LayerCount: 2
Fore
SplineSet
-52 347 m 4
 -56 353 -57 362 -55 371 c 4
 -54 374 -54 377 -52 380 c 4
 -40 402 115 535 207 601 c 6
 275 649 l 5
 302 649 l 5
 330 649 l 5
 341 601 l 6
 346 574 360 511 373 462 c 6
 396 372 l 5
 377 356 l 5
 356 339 l 5
 342 346 l 6
 334 350 312 400 297 460 c 6
 268 569 l 5
 236 546 l 6
 218 533 154 479 92 427 c 4
 30 375 -26 332 -32 332 c 4
 -38 332 -47 339 -52 347 c 4
75 12 m 0
 66 18 54 37 49 53 c 2
 40 82 l 1
 57 162 l 2
 81 276 139 390 185 415 c 2
 206 426 l 1
 218 410 l 1
 231 394 l 1
 200 342 l 2
 183 314 156 262 143 227 c 2
 118 163 l 1
 116 122 l 2
 114 89 124 73 146 73 c 0
 168 73 203 90 253 124 c 0
 287 147 322 165 333 165 c 0
 350 165 358 151 354 134 c 0
 353 130 353 125 350 121 c 0
 341 105 243 40 195 17 c 0
 174 7 146 2 122 2 c 0
 102 2 86 5 75 12 c 0
EndSplineSet
EndChar

StartChar: idieresis
Encoding: 239 239 131
Width: 416
Flags: HW
LayerCount: 2
Fore
SplineSet
135 12 m 0
 126 18 114 37 109 53 c 2
 100 82 l 1
 117 162 l 2
 141 276 199 390 245 415 c 2
 266 426 l 1
 278 410 l 1
 291 394 l 1
 260 342 l 2
 243 314 216 262 203 227 c 2
 178 163 l 1
 176 122 l 2
 174 89 184 73 206 73 c 0
 228 73 263 90 313 124 c 0
 347 147 382 165 393 165 c 0
 410 165 418 151 414 134 c 0
 413 130 413 125 410 121 c 0
 401 105 303 40 255 17 c 0
 234 7 206 2 182 2 c 0
 162 2 146 5 135 12 c 0
151 512 m 2
 131 528 l 1
 137 553 l 1
 142 578 l 1
 171 595 l 1
 201 612 l 1
 233 595 l 1
 265 578 l 1
 261 558 l 2
 255 532 213 496 188 496 c 0
 178 496 162 503 151 512 c 2
401 512 m 2
 381 528 l 1
 387 553 l 1
 392 578 l 1
 421 595 l 1
 451 612 l 1
 483 595 l 1
 515 578 l 1
 511 558 l 2
 505 532 463 496 438 496 c 0
 428 496 412 503 401 512 c 2
EndSplineSet
EndChar

StartChar: Ntilde
Encoding: 209 209 132
Width: 787
Flags: HW
LayerCount: 2
Fore
SplineSet
124 28 m 0
 122 36 121 45 122 52 c 0
 123 55 125 58 126 60 c 0
 131 66 168 232 204 401 c 0
 240 570 275 741 274 757 c 2
 273 781 l 1
 291 800 l 1
 309 819 l 1
 329 813 l 2
 339 809 350 793 354 778 c 0
 369 716 587 277 650 182 c 2
 673 146 l 1
 682 213 l 2
 709 402 754 668 773 758 c 0
 777 775 780 787 781 789 c 0
 788 800 801 806 814 806 c 0
 824 806 833 803 836 795 c 0
 839 789 826 695 808 587 c 0
 790 479 767 324 758 242 c 0
 749 160 739 79 735 61 c 2
 728 29 l 1
 706 18 l 1
 682 7 l 1
 666 17 l 2
 636 35 506 267 397 494 c 2
 330 635 l 1
 261 334 l 2
 223 169 186 28 180 21 c 0
 172 12 163 8 153 8 c 0
 140 8 128 15 124 28 c 0
534 916 m 2
 489 976 457 999 423 999 c 0
 417 999 410 999 404 997 c 0
 365 988 302 945 277 910 c 2
 255 880 l 1
 235 880 l 2
 215 880 207 892 211 909 c 0
 216 932 239 964 278 996 c 0
 341 1048 384 1068 439 1068 c 0
 506 1068 543 1042 602 953 c 2
 623 921 l 1
 652 921 l 1
 681 921 l 1
 747 956 l 2
 784 976 839 1010 870 1032 c 0
 924 1070 958 1089 976 1089 c 0
 989 1089 994 1079 990 1058 c 2
 985 1034 l 1
 893 971 l 2
 843 937 773 896 736 879 c 2
 669 849 l 1
 626 849 l 1
 583 849 l 1
 534 916 l 2
EndSplineSet
EndChar

StartChar: ntilde
Encoding: 241 241 133
Width: 789
Flags: HW
LayerCount: 2
Fore
SplineSet
148 32 m 2
 138 48 l 1
 172 199 l 2
 191 282 216 383 229 425 c 2
 253 501 l 1
 273 512 l 1
 292 522 l 1
 306 508 l 1
 320 494 l 1
 297 417 l 1
 273 340 l 1
 328 382 l 2
 392 431 449 456 497 456 c 0
 521 456 542 450 562 438 c 2
 594 419 l 1
 609 379 l 1
 623 339 l 1
 610 276 l 1
 596 213 l 1
 559 143 l 2
 517 63 505 47 478 47 c 0
 461 47 454 56 459 78 c 0
 463 95 473 119 491 153 c 0
 513 193 534 247 540 273 c 2
 551 321 l 1
 540 348 l 2
 529 372 511 385 486 385 c 0
 456 385 416 367 371 332 c 2
 316 290 l 1
 270 225 l 1
 224 160 l 1
 218 104 l 2
 216 87 214 71 211 58 c 0
 209 47 206 37 204 33 c 0
 198 22 187 17 176 17 c 0
 165 17 154 22 148 32 c 2
469 606 m 2
 424 666 392 689 358 689 c 0
 352 689 345 689 339 687 c 0
 300 678 238 635 213 600 c 2
 190 570 l 1
 170 570 l 2
 150 570 142 582 146 599 c 0
 151 622 174 654 213 686 c 0
 276 738 319 758 374 758 c 0
 441 758 478 732 537 643 c 2
 558 611 l 1
 587 611 l 1
 616 611 l 1
 682 646 l 2
 719 666 774 700 805 722 c 0
 859 760 894 779 912 779 c 0
 925 779 929 769 925 748 c 2
 920 724 l 1
 828 661 l 2
 778 627 708 586 671 569 c 2
 605 539 l 1
 562 539 l 1
 519 539 l 1
 469 606 l 2
EndSplineSet
EndChar

StartChar: ograve
Encoding: 242 242 134
Width: 578
Flags: HW
LayerCount: 2
Fore
SplineSet
450 604 m 6
 377 625 284 667 278 683 c 4
 272 697 289 722 307 728 c 4
 315 731 346 723 377 709 c 4
 408 695 468 676 510 665 c 4
 594 644 605 636 594 608 c 6
 587 590 l 5
 552 588 l 6
 533 587 486 594 450 604 c 6
 450 604 l 6
168 20 m 0
 154 25 128 39 111 51 c 2
 79 74 l 1
 66 115 l 1
 54 157 l 1
 73 225 l 1
 91 292 l 1
 124 338 l 2
 143 364 180 405 207 429 c 2
 256 472 l 1
 316 497 l 1
 375 522 l 1
 417 522 l 2
 471 522 539 500 573 472 c 2
 600 450 l 1
 611 402 l 1
 623 353 l 1
 611 295 l 1
 598 236 l 1
 565 190 l 2
 525 132 464 87 375 49 c 2
 305 19 l 1
 249 15 l 2
 241 14 233 14 225 14 c 0
 202 14 178 16 168 20 c 0
321 98 m 0
 347 107 391 126 418 141 c 2
 467 168 l 1
 499 209 l 1
 531 251 l 1
 542 300 l 1
 552 349 l 1
 515 396 l 1
 478 443 l 1
 427 448 l 1
 376 453 l 1
 326 431 l 2
 238 392 153 294 135 208 c 2
 126 166 l 1
 138 138 l 2
 154 103 192 84 241 84 c 0
 265 84 292 89 321 98 c 0
EndSplineSet
EndChar

StartChar: oacute
Encoding: 243 243 135
Width: 576
Flags: HW
LayerCount: 2
Fore
SplineSet
167 20 m 0
 153 25 127 39 110 51 c 2
 78 74 l 1
 65 115 l 1
 53 157 l 1
 72 225 l 1
 90 292 l 1
 123 338 l 2
 142 364 179 405 206 429 c 2
 255 472 l 1
 315 497 l 1
 374 522 l 1
 416 522 l 2
 470 522 538 500 572 472 c 2
 599 450 l 1
 610 402 l 1
 622 353 l 1
 610 295 l 1
 597 236 l 1
 564 190 l 2
 524 132 463 87 374 49 c 2
 304 19 l 1
 248 15 l 2
 240 14 232 14 224 14 c 0
 201 14 177 16 167 20 c 0
320 98 m 0
 346 107 390 126 417 141 c 2
 466 168 l 1
 498 209 l 1
 530 251 l 1
 541 300 l 1
 551 349 l 1
 514 396 l 1
 477 443 l 1
 426 448 l 1
 375 453 l 1
 325 431 l 2
 237 392 152 294 134 208 c 2
 125 166 l 1
 137 138 l 2
 153 103 191 84 240 84 c 0
 264 84 291 89 320 98 c 0
255 549 m 1
 240 563 l 1
 253 579 l 2
 269 599 498 696 532 698 c 2
 556 699 l 1
 564 681 l 1
 571 663 l 1
 544 646 l 2
 515 627 346 557 299 544 c 2
 270 536 l 1
 255 549 l 1
EndSplineSet
EndChar

StartChar: ocircumflex
Encoding: 244 244 136
Width: 578
Flags: HW
LayerCount: 2
Fore
SplineSet
184 517 m 4
 180 523 179 532 181 541 c 4
 182 544 182 547 184 550 c 4
 196 572 351 705 443 771 c 6
 511 819 l 5
 538 819 l 5
 566 819 l 5
 577 771 l 6
 582 744 596 681 609 632 c 6
 632 542 l 5
 613 526 l 5
 592 509 l 5
 578 516 l 6
 570 520 548 570 533 630 c 6
 504 739 l 5
 472 716 l 6
 454 703 390 649 328 597 c 4
 266 545 210 502 204 502 c 4
 198 502 189 509 184 517 c 4
168 20 m 0
 154 25 128 39 111 51 c 2
 79 74 l 1
 66 115 l 1
 54 157 l 1
 73 225 l 1
 91 292 l 1
 124 338 l 2
 143 364 180 405 207 429 c 2
 256 472 l 1
 316 497 l 1
 375 522 l 1
 417 522 l 2
 471 522 539 500 573 472 c 2
 600 450 l 1
 611 402 l 1
 623 353 l 1
 611 295 l 1
 598 236 l 1
 565 190 l 2
 525 132 464 87 375 49 c 2
 305 19 l 1
 249 15 l 2
 241 14 233 14 225 14 c 0
 202 14 178 16 168 20 c 0
321 98 m 0
 347 107 391 126 418 141 c 2
 467 168 l 1
 499 209 l 1
 531 251 l 1
 542 300 l 1
 552 349 l 1
 515 396 l 1
 478 443 l 1
 427 448 l 1
 376 453 l 1
 326 431 l 2
 238 392 153 294 135 208 c 2
 126 166 l 1
 138 138 l 2
 154 103 192 84 241 84 c 0
 265 84 292 89 321 98 c 0
EndSplineSet
EndChar

StartChar: otilde
Encoding: 245 245 137
Width: 578
Flags: HW
LayerCount: 2
Fore
SplineSet
380 606 m 6
 335 666 303 689 269 689 c 4
 263 689 256 689 250 687 c 4
 211 678 149 635 124 600 c 6
 101 570 l 5
 81 570 l 6
 61 570 53 582 57 599 c 4
 62 622 85 654 124 686 c 4
 187 738 230 758 285 758 c 4
 352 758 389 732 448 643 c 6
 469 611 l 5
 498 611 l 5
 527 611 l 5
 593 646 l 6
 630 666 685 700 716 722 c 4
 770 760 805 779 823 779 c 4
 836 779 840 769 836 748 c 6
 831 724 l 5
 740 661 l 6
 690 627 619 586 582 569 c 6
 516 539 l 5
 473 539 l 5
 430 539 l 5
 380 606 l 6
168 20 m 0
 154 25 128 39 111 51 c 2
 79 74 l 1
 66 115 l 1
 54 157 l 1
 73 225 l 1
 91 292 l 1
 124 338 l 2
 143 364 180 405 207 429 c 2
 256 472 l 1
 316 497 l 1
 375 522 l 1
 417 522 l 2
 471 522 539 500 573 472 c 2
 600 450 l 1
 611 402 l 1
 623 353 l 1
 611 295 l 1
 598 236 l 1
 565 190 l 2
 525 132 464 87 375 49 c 2
 305 19 l 1
 249 15 l 2
 241 14 233 14 225 14 c 0
 202 14 178 16 168 20 c 0
321 98 m 0
 347 107 391 126 418 141 c 2
 467 168 l 1
 499 209 l 1
 531 251 l 1
 542 300 l 1
 552 349 l 1
 515 396 l 1
 478 443 l 1
 427 448 l 1
 376 453 l 1
 326 431 l 2
 238 392 153 294 135 208 c 2
 126 166 l 1
 138 138 l 2
 154 103 192 84 241 84 c 0
 265 84 292 89 321 98 c 0
EndSplineSet
EndChar

StartChar: odieresis
Encoding: 246 246 138
Width: 576
Flags: HW
LayerCount: 2
Fore
SplineSet
167 20 m 0
 153 25 127 39 110 51 c 2
 78 74 l 1
 65 115 l 1
 53 157 l 1
 72 225 l 1
 90 292 l 1
 123 338 l 2
 142 364 179 405 206 429 c 2
 255 472 l 1
 315 497 l 1
 374 522 l 1
 416 522 l 2
 470 522 538 500 572 472 c 2
 599 450 l 1
 610 402 l 1
 622 353 l 1
 610 295 l 1
 597 236 l 1
 564 190 l 2
 524 132 463 87 374 49 c 2
 304 19 l 1
 248 15 l 2
 240 14 232 14 224 14 c 0
 201 14 177 16 167 20 c 0
320 98 m 0
 346 107 390 126 417 141 c 2
 466 168 l 1
 498 209 l 1
 530 251 l 1
 541 300 l 1
 551 349 l 1
 514 396 l 1
 477 443 l 1
 426 448 l 1
 375 453 l 1
 325 431 l 2
 237 392 152 294 134 208 c 2
 125 166 l 1
 137 138 l 2
 153 103 191 84 240 84 c 0
 264 84 291 89 320 98 c 0
275 572 m 2
 255 588 l 1
 260 613 l 1
 266 638 l 1
 295 655 l 1
 325 672 l 1
 357 655 l 1
 389 638 l 1
 384 618 l 2
 378 592 337 556 312 556 c 0
 302 556 286 563 275 572 c 2
525 572 m 2
 505 588 l 1
 510 613 l 1
 516 638 l 1
 545 655 l 1
 575 672 l 1
 607 655 l 1
 639 638 l 1
 634 618 l 2
 628 592 587 556 562 556 c 0
 552 556 536 563 525 572 c 2
EndSplineSet
EndChar

StartChar: ugrave
Encoding: 249 249 139
Width: 468
Flags: HW
LayerCount: 2
Fore
SplineSet
358 594 m 6
 285 615 192 657 186 673 c 4
 180 687 197 712 215 718 c 4
 223 721 254 713 285 699 c 4
 316 685 376 666 418 655 c 4
 502 634 513 626 502 598 c 6
 495 580 l 5
 459 578 l 6
 440 577 394 584 358 594 c 6
 358 594 l 6
392 42 m 0
 387 49 383 75 382 99 c 2
 379 142 l 1
 325 107 l 2
 276 75 230 60 191 60 c 0
 134 60 90 93 74 157 c 2
 64 198 l 1
 83 286 l 1
 101 373 l 1
 130 434 l 2
 163 503 178 521 206 521 c 0
 223 521 230 512 225 490 c 0
 222 476 214 456 201 430 c 2
 173 371 l 1
 156 290 l 1
 138 209 l 1
 146 184 l 2
 150 170 163 151 176 140 c 2
 198 120 l 1
 241 137 l 2
 265 146 307 170 332 191 c 2
 379 229 l 1
 395 265 l 2
 404 285 427 351 444 413 c 0
 461 475 481 535 488 545 c 2
 502 563 l 1
 523 560 l 1
 544 557 l 1
 529 485 l 2
 521 446 499 363 481 301 c 2
 448 188 l 1
 452 124 l 1
 457 60 l 1
 442 45 l 2
 432 35 420 30 411 30 c 0
 403 30 397 34 392 42 c 0
EndSplineSet
EndChar

StartChar: uacute
Encoding: 250 250 140
Width: 467
Flags: HW
LayerCount: 2
Fore
SplineSet
392 42 m 0
 387 49 383 75 382 99 c 2
 379 142 l 1
 325 107 l 2
 276 75 230 60 191 60 c 0
 134 60 90 93 74 157 c 2
 64 198 l 1
 83 286 l 1
 101 373 l 1
 130 434 l 2
 163 503 178 521 206 521 c 0
 223 521 230 512 225 490 c 0
 222 476 214 456 201 430 c 2
 173 371 l 1
 156 290 l 1
 138 209 l 1
 146 184 l 2
 150 170 163 151 176 140 c 2
 198 120 l 1
 241 137 l 2
 265 146 307 170 332 191 c 2
 379 229 l 1
 395 265 l 2
 404 285 427 351 444 413 c 0
 461 475 481 535 488 545 c 2
 502 563 l 1
 523 560 l 1
 544 557 l 1
 529 485 l 2
 521 446 499 363 481 301 c 2
 448 188 l 1
 452 124 l 1
 457 60 l 1
 442 45 l 2
 432 35 420 30 411 30 c 0
 403 30 397 34 392 42 c 0
239 609 m 1
 224 623 l 1
 238 639 l 2
 254 659 483 756 517 758 c 2
 540 759 l 1
 549 741 l 1
 556 723 l 1
 529 706 l 2
 500 687 330 617 283 604 c 2
 255 596 l 1
 239 609 l 1
EndSplineSet
EndChar

StartChar: ucircumflex
Encoding: 251 251 141
Width: 468
Flags: HW
LayerCount: 2
Fore
SplineSet
151 597 m 4
 147 603 146 612 148 621 c 4
 149 624 149 627 151 630 c 4
 163 652 318 785 410 851 c 6
 478 899 l 5
 505 899 l 5
 533 899 l 5
 544 851 l 6
 549 824 563 761 576 712 c 6
 599 622 l 5
 580 606 l 5
 559 589 l 5
 545 596 l 6
 537 600 515 650 500 710 c 6
 471 819 l 5
 439 796 l 6
 421 783 357 729 295 677 c 4
 233 625 177 582 171 582 c 4
 165 582 156 589 151 597 c 4
392 42 m 0
 387 49 383 75 382 99 c 2
 379 142 l 1
 325 107 l 2
 276 75 230 60 191 60 c 0
 134 60 90 93 74 157 c 2
 64 198 l 1
 83 286 l 1
 101 373 l 1
 130 434 l 2
 163 503 178 521 206 521 c 0
 223 521 230 512 225 490 c 0
 222 476 214 456 201 430 c 2
 173 371 l 1
 156 290 l 1
 138 209 l 1
 146 184 l 2
 150 170 163 151 176 140 c 2
 198 120 l 1
 241 137 l 2
 265 146 307 170 332 191 c 2
 379 229 l 1
 395 265 l 2
 404 285 427 351 444 413 c 0
 461 475 481 535 488 545 c 2
 502 563 l 1
 523 560 l 1
 544 557 l 1
 529 485 l 2
 521 446 499 363 481 301 c 2
 448 188 l 1
 452 124 l 1
 457 60 l 1
 442 45 l 2
 432 35 420 30 411 30 c 0
 403 30 397 34 392 42 c 0
EndSplineSet
EndChar

StartChar: udieresis
Encoding: 252 252 142
Width: 468
Flags: HW
LayerCount: 2
Fore
SplineSet
392 42 m 0
 387 49 383 75 382 99 c 2
 379 142 l 1
 325 107 l 2
 276 75 230 60 191 60 c 0
 134 60 90 93 74 157 c 2
 64 198 l 1
 83 286 l 1
 101 373 l 1
 130 434 l 2
 163 503 178 521 206 521 c 0
 223 521 230 512 225 490 c 0
 222 476 214 456 201 430 c 2
 173 371 l 1
 156 290 l 1
 138 209 l 1
 146 184 l 2
 150 170 163 151 176 140 c 2
 198 120 l 1
 241 137 l 2
 265 146 307 170 332 191 c 2
 379 229 l 1
 395 265 l 2
 404 285 427 351 444 413 c 0
 461 475 481 535 488 545 c 2
 502 563 l 1
 523 560 l 1
 544 557 l 1
 529 485 l 2
 521 446 499 363 481 301 c 2
 448 188 l 1
 452 124 l 1
 457 60 l 1
 442 45 l 2
 432 35 420 30 411 30 c 0
 403 30 397 34 392 42 c 0
217 622 m 2
 198 638 l 1
 203 663 l 1
 208 688 l 1
 238 705 l 1
 267 722 l 1
 300 705 l 1
 331 688 l 1
 327 668 l 2
 321 642 280 606 255 606 c 0
 245 606 228 613 217 622 c 2
467 622 m 2
 448 638 l 1
 453 663 l 1
 458 688 l 1
 488 705 l 1
 517 722 l 1
 550 705 l 1
 581 688 l 1
 577 668 l 2
 571 642 530 606 505 606 c 0
 495 606 478 613 467 622 c 2
EndSplineSet
EndChar

StartChar: yacute
Encoding: 253 253 143
Width: 452
Flags: HW
LayerCount: 2
Fore
SplineSet
-1 -485 m 5
 -19 -460 l 5
 -13 -411 l 5
 -8 -362 l 5
 21 -306 l 6
 37 -275 71 -222 98 -188 c 4
 143 -131 278 -12 370 52 c 6
 408 79 l 5
 420 135 l 6
 427 166 430 191 427 191 c 4
 424 191 399 164 370 131 c 4
 341 98 298 59 275 44 c 6
 234 17 l 5
 181 13 l 6
 152 11 117 14 103 20 c 4
 71 33 51 83 55 139 c 6
 58 182 l 5
 88 248 l 6
 105 284 136 338 158 369 c 6
 197 426 l 5
 219 429 l 6
 231 431 244 425 249 417 c 6
 258 403 l 5
 214 340 l 6
 190 305 161 252 148 223 c 6
 124 170 l 5
 126 133 l 5
 127 96 l 5
 151 83 l 5
 175 71 l 5
 205 81 l 6
 222 87 248 101 263 113 c 4
 310 150 397 258 436 328 c 4
 457 366 482 401 492 406 c 6
 510 416 l 5
 525 405 l 5
 540 394 l 5
 514 258 l 5
 488 122 l 5
 552 156 l 6
 623 194 645 198 659 176 c 4
 673 153 655 134 592 105 c 4
 560 90 517 68 497 55 c 6
 461 32 l 5
 437 -58 l 5
 412 -147 l 5
 371 -219 l 6
 278 -385 142 -509 52 -509 c 6
 17 -509 l 5
 -1 -485 l 5
157 -391 m 6
 249 -313 350 -154 370 -53 c 6
 378 -14 l 5
 275 -101 l 5
 173 -188 l 5
 127 -253 l 6
 82 -317 50 -394 55 -424 c 4
 56 -433 66 -439 78 -439 c 6
 99 -439 l 5
 157 -391 l 6
221 539 m 1
 206 553 l 1
 219 569 l 2
 235 589 464 686 498 688 c 2
 521 689 l 1
 530 671 l 1
 537 653 l 1
 510 636 l 2
 481 617 312 547 265 534 c 2
 236 526 l 1
 221 539 l 1
EndSplineSet
EndChar

StartChar: ydieresis
Encoding: 255 255 144
Width: 452
Flags: HW
LayerCount: 2
Fore
SplineSet
-1 -485 m 5
 -19 -460 l 5
 -13 -411 l 5
 -8 -362 l 5
 21 -306 l 6
 37 -275 71 -222 98 -188 c 4
 143 -131 278 -12 370 52 c 6
 408 79 l 5
 420 135 l 6
 427 166 430 191 427 191 c 4
 424 191 399 164 370 131 c 4
 341 98 298 59 275 44 c 6
 234 17 l 5
 181 13 l 6
 152 11 117 14 103 20 c 4
 71 33 51 83 55 139 c 6
 58 182 l 5
 88 248 l 6
 105 284 136 338 158 369 c 6
 197 426 l 5
 219 429 l 6
 231 431 244 425 249 417 c 6
 258 403 l 5
 214 340 l 6
 190 305 161 252 148 223 c 6
 124 170 l 5
 126 133 l 5
 127 96 l 5
 151 83 l 5
 175 71 l 5
 205 81 l 6
 222 87 248 101 263 113 c 4
 310 150 397 258 436 328 c 4
 457 366 482 401 492 406 c 6
 510 416 l 5
 525 405 l 5
 540 394 l 5
 514 258 l 5
 488 122 l 5
 552 156 l 6
 623 194 645 198 659 176 c 4
 673 153 655 134 592 105 c 4
 560 90 517 68 497 55 c 6
 461 32 l 5
 437 -58 l 5
 412 -147 l 5
 371 -219 l 6
 278 -385 142 -509 52 -509 c 6
 17 -509 l 5
 -1 -485 l 5
157 -391 m 6
 249 -313 350 -154 370 -53 c 6
 378 -14 l 5
 275 -101 l 5
 173 -188 l 5
 127 -253 l 6
 82 -317 50 -394 55 -424 c 4
 56 -433 66 -439 78 -439 c 6
 99 -439 l 5
 157 -391 l 6
185 572 m 2
 165 588 l 1
 170 613 l 1
 176 638 l 1
 205 655 l 1
 235 672 l 1
 267 655 l 1
 299 638 l 1
 294 618 l 2
 288 592 247 556 222 556 c 0
 212 556 196 563 185 572 c 2
435 572 m 2
 415 588 l 1
 420 613 l 1
 426 638 l 1
 455 655 l 1
 485 672 l 1
 517 655 l 1
 549 638 l 1
 544 618 l 2
 538 592 497 556 472 556 c 0
 462 556 446 563 435 572 c 2
EndSplineSet
EndChar

StartChar: Egrave
Encoding: 200 200 145
Width: 653
Flags: HW
LayerCount: 2
Fore
SplineSet
58 13 m 1
 46 30 l 1
 72 191 l 1
 97 351 l 1
 138 489 l 2
 167 586 184 652 194 698 c 0
 201 731 204 752 203 767 c 2
 202 794 l 1
 221 802 l 2
 232 807 359 812 502 815 c 2
 762 819 l 1
 775 807 l 2
 783 799 785 788 783 778 c 0
 780 766 773 756 760 752 c 0
 752 750 676 748 581 748 c 0
 561 748 540 748 518 748 c 2
 295 749 l 1
 285 739 l 2
 279 734 258 666 237 588 c 2
 199 447 l 1
 293 450 l 1
 387 452 l 1
 397 440 l 1
 407 427 l 1
 391 410 l 1
 376 392 l 1
 335 385 l 2
 312 381 267 377 235 377 c 2
 176 377 l 1
 164 313 l 2
 158 278 145 207 138 157 c 2
 125 66 l 1
 263 68 l 2
 339 69 451 77 510 85 c 0
 555 91 599 95 620 95 c 0
 626 95 631 95 633 94 c 2
 647 87 l 1
 639 60 l 1
 630 34 l 1
 550 21 l 2
 507 14 381 6 270 2 c 2
 69 -5 l 1
 58 13 l 1
EndSplineSet
EndChar

StartChar: Eacute
Encoding: 201 201 146
Width: 653
Flags: HW
LayerCount: 2
Fore
SplineSet
58 13 m 1
 46 30 l 1
 72 191 l 1
 97 351 l 1
 138 489 l 2
 167 586 184 652 194 698 c 0
 201 731 204 752 203 767 c 2
 202 794 l 1
 221 802 l 2
 232 807 359 812 502 815 c 2
 762 819 l 1
 775 807 l 2
 783 799 785 788 783 778 c 0
 780 766 773 756 760 752 c 0
 752 750 676 748 581 748 c 0
 561 748 540 748 518 748 c 2
 295 749 l 1
 285 739 l 2
 279 734 258 666 237 588 c 2
 199 447 l 1
 293 450 l 1
 387 452 l 1
 397 440 l 1
 407 427 l 1
 391 410 l 1
 376 392 l 1
 335 385 l 2
 312 381 267 377 235 377 c 2
 176 377 l 1
 164 313 l 2
 158 278 145 207 138 157 c 2
 125 66 l 1
 263 68 l 2
 339 69 451 77 510 85 c 0
 555 91 599 95 620 95 c 0
 626 95 631 95 633 94 c 2
 647 87 l 1
 639 60 l 1
 630 34 l 1
 550 21 l 2
 507 14 381 6 270 2 c 2
 69 -5 l 1
 58 13 l 1
385 869 m 1
 370 883 l 1
 383 899 l 2
 399 919 628 1016 662 1018 c 2
 686 1019 l 1
 694 1001 l 1
 701 983 l 1
 674 966 l 2
 645 947 476 877 429 864 c 2
 400 856 l 1
 385 869 l 1
EndSplineSet
EndChar

StartChar: Ecircumflex
Encoding: 202 202 147
Width: 653
Flags: HW
LayerCount: 2
Fore
SplineSet
58 13 m 1
 46 30 l 1
 72 191 l 1
 97 351 l 1
 138 489 l 2
 167 586 184 652 194 698 c 0
 201 731 204 752 203 767 c 2
 202 794 l 1
 221 802 l 2
 232 807 359 812 502 815 c 2
 762 819 l 1
 775 807 l 2
 783 799 785 788 783 778 c 0
 780 766 773 756 760 752 c 0
 752 750 676 748 581 748 c 0
 561 748 540 748 518 748 c 2
 295 749 l 1
 285 739 l 2
 279 734 258 666 237 588 c 2
 199 447 l 1
 293 450 l 1
 387 452 l 1
 397 440 l 1
 407 427 l 1
 391 410 l 1
 376 392 l 1
 335 385 l 2
 312 381 267 377 235 377 c 2
 176 377 l 1
 164 313 l 2
 158 278 145 207 138 157 c 2
 125 66 l 1
 263 68 l 2
 339 69 451 77 510 85 c 0
 555 91 599 95 620 95 c 0
 626 95 631 95 633 94 c 2
 647 87 l 1
 639 60 l 1
 630 34 l 1
 550 21 l 2
 507 14 381 6 270 2 c 2
 69 -5 l 1
 58 13 l 1
EndSplineSet
EndChar

StartChar: Edieresis
Encoding: 203 203 148
Width: 653
Flags: HW
LayerCount: 2
Fore
SplineSet
58 13 m 1
 46 30 l 1
 72 191 l 1
 97 351 l 1
 138 489 l 2
 167 586 184 652 194 698 c 0
 201 731 204 752 203 767 c 2
 202 794 l 1
 221 802 l 2
 232 807 359 812 502 815 c 2
 762 819 l 1
 775 807 l 2
 783 799 785 788 783 778 c 0
 780 766 773 756 760 752 c 0
 752 750 676 748 581 748 c 0
 561 748 540 748 518 748 c 2
 295 749 l 1
 285 739 l 2
 279 734 258 666 237 588 c 2
 199 447 l 1
 293 450 l 1
 387 452 l 1
 397 440 l 1
 407 427 l 1
 391 410 l 1
 376 392 l 1
 335 385 l 2
 312 381 267 377 235 377 c 2
 176 377 l 1
 164 313 l 2
 158 278 145 207 138 157 c 2
 125 66 l 1
 263 68 l 2
 339 69 451 77 510 85 c 0
 555 91 599 95 620 95 c 0
 626 95 631 95 633 94 c 2
 647 87 l 1
 639 60 l 1
 630 34 l 1
 550 21 l 2
 507 14 381 6 270 2 c 2
 69 -5 l 1
 58 13 l 1
382 882 m 2
 363 898 l 1
 368 923 l 1
 374 948 l 1
 403 965 l 1
 433 982 l 1
 465 965 l 1
 497 948 l 1
 492 928 l 2
 486 902 445 866 420 866 c 0
 410 866 393 873 382 882 c 2
632 882 m 2
 613 898 l 1
 618 923 l 1
 624 948 l 1
 653 965 l 1
 683 982 l 1
 715 965 l 1
 747 948 l 1
 742 928 l 2
 736 902 695 866 670 866 c 0
 660 866 643 873 632 882 c 2
EndSplineSet
EndChar

StartChar: Igrave
Encoding: 204 204 149
Width: 766
Flags: HW
LayerCount: 2
Fore
SplineSet
52 79 m 0
 44 84 41 97 44 109 c 0
 46 120 52 130 61 133 c 0
 69 136 141 141 221 145 c 2
 366 153 l 1
 374 196 l 2
 379 220 407 356 436 497 c 2
 488 754 l 1
 352 752 l 2
 299 751 250 751 223 751 c 0
 212 751 205 751 203 751 c 2
 189 752 l 1
 199 780 l 1
 208 808 l 1
 276 816 l 2
 296 818 345 819 407 819 c 0
 460 819 524 818 586 817 c 2
 827 811 l 1
 842 797 l 1
 858 784 l 1
 843 765 l 1
 828 747 l 1
 690 746 l 1
 552 745 l 1
 521 608 l 2
 518 595 515 580 512 564 c 0
 496 487 475 384 463 312 c 2
 438 153 l 1
 595 153 l 1
 753 153 l 1
 760 135 l 1
 767 118 l 1
 751 104 l 1
 735 91 l 1
 568 85 l 2
 374 78 232 74 146 74 c 0
 89 74 57 76 52 79 c 0
EndSplineSet
EndChar

StartChar: Iacute
Encoding: 205 205 150
Width: 766
Flags: HW
LayerCount: 2
Fore
SplineSet
52 79 m 0
 44 84 41 97 44 109 c 0
 46 120 52 130 61 133 c 0
 69 136 141 141 221 145 c 2
 366 153 l 1
 374 196 l 2
 379 220 407 356 436 497 c 2
 488 754 l 1
 352 752 l 2
 299 751 250 751 223 751 c 0
 212 751 205 751 203 751 c 2
 189 752 l 1
 199 780 l 1
 208 808 l 1
 276 816 l 2
 296 818 345 819 407 819 c 0
 460 819 524 818 586 817 c 2
 827 811 l 1
 842 797 l 1
 858 784 l 1
 843 765 l 1
 828 747 l 1
 690 746 l 1
 552 745 l 1
 521 608 l 2
 518 595 515 580 512 564 c 0
 496 487 475 384 463 312 c 2
 438 153 l 1
 595 153 l 1
 753 153 l 1
 760 135 l 1
 767 118 l 1
 751 104 l 1
 735 91 l 1
 568 85 l 2
 374 78 232 74 146 74 c 0
 89 74 57 76 52 79 c 0
EndSplineSet
EndChar

StartChar: Icircumflex
Encoding: 206 206 151
Width: 766
Flags: HW
LayerCount: 2
Fore
SplineSet
52 79 m 0
 44 84 41 97 44 109 c 0
 46 120 52 130 61 133 c 0
 69 136 141 141 221 145 c 2
 366 153 l 1
 374 196 l 2
 379 220 407 356 436 497 c 2
 488 754 l 1
 352 752 l 2
 299 751 250 751 223 751 c 0
 212 751 205 751 203 751 c 2
 189 752 l 1
 199 780 l 1
 208 808 l 1
 276 816 l 2
 296 818 345 819 407 819 c 0
 460 819 524 818 586 817 c 2
 827 811 l 1
 842 797 l 1
 858 784 l 1
 843 765 l 1
 828 747 l 1
 690 746 l 1
 552 745 l 1
 521 608 l 2
 518 595 515 580 512 564 c 0
 496 487 475 384 463 312 c 2
 438 153 l 1
 595 153 l 1
 753 153 l 1
 760 135 l 1
 767 118 l 1
 751 104 l 1
 735 91 l 1
 568 85 l 2
 374 78 232 74 146 74 c 0
 89 74 57 76 52 79 c 0
EndSplineSet
EndChar

StartChar: Idieresis
Encoding: 207 207 152
Width: 766
Flags: HW
LayerCount: 2
Fore
SplineSet
52 79 m 0
 44 84 41 97 44 109 c 0
 46 120 52 130 61 133 c 0
 69 136 141 141 221 145 c 2
 366 153 l 1
 374 196 l 2
 379 220 407 356 436 497 c 2
 488 754 l 1
 352 752 l 2
 299 751 250 751 223 751 c 0
 212 751 205 751 203 751 c 2
 189 752 l 1
 199 780 l 1
 208 808 l 1
 276 816 l 2
 296 818 345 819 407 819 c 0
 460 819 524 818 586 817 c 2
 827 811 l 1
 842 797 l 1
 858 784 l 1
 843 765 l 1
 828 747 l 1
 690 746 l 1
 552 745 l 1
 521 608 l 2
 518 595 515 580 512 564 c 0
 496 487 475 384 463 312 c 2
 438 153 l 1
 595 153 l 1
 753 153 l 1
 760 135 l 1
 767 118 l 1
 751 104 l 1
 735 91 l 1
 568 85 l 2
 374 78 232 74 146 74 c 0
 89 74 57 76 52 79 c 0
381 882 m 2
 362 898 l 1
 367 923 l 1
 373 948 l 1
 402 965 l 1
 432 982 l 1
 464 965 l 1
 496 948 l 1
 491 928 l 2
 485 902 444 866 419 866 c 0
 409 866 392 873 381 882 c 2
631 882 m 2
 612 898 l 1
 617 923 l 1
 623 948 l 1
 652 965 l 1
 682 982 l 1
 714 965 l 1
 746 948 l 1
 741 928 l 2
 735 902 694 866 669 866 c 0
 659 866 642 873 631 882 c 2
EndSplineSet
EndChar

StartChar: Eth
Encoding: 208 208 153
Width: 816
Flags: HW
LayerCount: 2
Fore
SplineSet
151 385 m 0
 133 389 116 399 112 406 c 2
 107 420 l 1
 119 435 l 1
 132 451 l 1
 245 449 l 1
 318 801 l 1
 337 810 l 2
 347 815 399 819 452 819 c 2
 548 819 l 1
 606 804 l 2
 638 795 694 772 730 752 c 2
 795 716 l 1
 830 665 l 2
 849 637 872 593 879 567 c 2
 891 519 l 1
 881 445 l 1
 870 371 l 1
 833 300 l 2
 743 127 621 60 301 11 c 0
 197 -5 166 -10 156 -10 c 0
 152 -10 151 -9 151 -8 c 0
 151 -7 186 165 230 378 c 1
 193 379 164 382 151 385 c 0
352 87 m 0
 404 96 485 114 532 129 c 2
 618 156 l 1
 671 198 l 1
 724 241 l 1
 759 302 l 1
 795 364 l 1
 808 422 l 1
 820 480 l 1
 807 534 l 2
 789 606 744 662 674 697 c 0
 614 728 496 757 433 757 c 0
 428 757 424 756 420 756 c 2
 380 753 l 1
 315 448 l 1
 318 448 l 2
 421 446 509 441 513 436 c 0
 517 431 516 419 512 409 c 2
 504 390 l 1
 446 383 l 2
 410 379 354 377 300 377 c 1
 235 72 l 1
 246 72 l 2
 252 72 300 78 352 87 c 0
EndSplineSet
EndChar

StartChar: Ograve
Encoding: 210 210 154
Width: 878
Flags: HW
LayerCount: 2
Fore
SplineSet
349 18 m 0
 291 29 180 86 142 125 c 0
 104 165 90 219 97 309 c 2
 102 386 l 1
 128 450 l 2
 162 537 227 631 302 697 c 2
 364 752 l 1
 435 781 l 1
 505 810 l 1
 609 815 l 1
 712 819 l 1
 768 807 l 2
 834 793 877 762 895 716 c 0
 902 698 919 664 932 641 c 0
 945 618 958 581 959 557 c 2
 962 515 l 1
 938 422 l 1
 912 330 l 1
 877 263 l 2
 834 181 794 137 731 95 c 0
 655 45 524 12 418 12 c 0
 393 12 369 14 349 18 c 0
596 105 m 0
 623 114 667 133 695 147 c 2
 746 174 l 1
 774 217 l 2
 821 289 860 378 877 455 c 2
 892 528 l 1
 884 558 l 2
 874 591 846 622 791 657 c 2
 755 680 l 1
 763 706 l 1
 771 733 l 1
 701 745 l 1
 632 757 l 1
 563 746 l 2
 438 725 372 691 299 608 c 0
 232 531 190 452 173 371 c 0
 167 343 164 315 164 287 c 2
 164 237 l 1
 186 201 l 2
 212 159 277 117 349 95 c 2
 402 79 l 1
 474 84 l 2
 513 86 569 96 596 105 c 0
EndSplineSet
EndChar

StartChar: Oacute
Encoding: 211 211 155
Width: 878
Flags: HW
LayerCount: 2
Fore
SplineSet
349 18 m 0
 291 29 180 86 142 125 c 0
 104 165 90 219 97 309 c 2
 102 386 l 1
 128 450 l 2
 162 537 227 631 302 697 c 2
 364 752 l 1
 435 781 l 1
 505 810 l 1
 609 815 l 1
 712 819 l 1
 768 807 l 2
 834 793 877 762 895 716 c 0
 902 698 919 664 932 641 c 0
 945 618 958 581 959 557 c 2
 962 515 l 1
 938 422 l 1
 912 330 l 1
 877 263 l 2
 834 181 794 137 731 95 c 0
 655 45 524 12 418 12 c 0
 393 12 369 14 349 18 c 0
596 105 m 0
 623 114 667 133 695 147 c 2
 746 174 l 1
 774 217 l 2
 821 289 860 378 877 455 c 2
 892 528 l 1
 884 558 l 2
 874 591 846 622 791 657 c 2
 755 680 l 1
 763 706 l 1
 771 733 l 1
 701 745 l 1
 632 757 l 1
 563 746 l 2
 438 725 372 691 299 608 c 0
 232 531 190 452 173 371 c 0
 167 343 164 315 164 287 c 2
 164 237 l 1
 186 201 l 2
 212 159 277 117 349 95 c 2
 402 79 l 1
 474 84 l 2
 513 86 569 96 596 105 c 0
EndSplineSet
EndChar

StartChar: Ocircumflex
Encoding: 212 212 156
Width: 878
Flags: HW
LayerCount: 2
Fore
SplineSet
349 18 m 0
 291 29 180 86 142 125 c 0
 104 165 90 219 97 309 c 2
 102 386 l 1
 128 450 l 2
 162 537 227 631 302 697 c 2
 364 752 l 1
 435 781 l 1
 505 810 l 1
 609 815 l 1
 712 819 l 1
 768 807 l 2
 834 793 877 762 895 716 c 0
 902 698 919 664 932 641 c 0
 945 618 958 581 959 557 c 2
 962 515 l 1
 938 422 l 1
 912 330 l 1
 877 263 l 2
 834 181 794 137 731 95 c 0
 655 45 524 12 418 12 c 0
 393 12 369 14 349 18 c 0
596 105 m 0
 623 114 667 133 695 147 c 2
 746 174 l 1
 774 217 l 2
 821 289 860 378 877 455 c 2
 892 528 l 1
 884 558 l 2
 874 591 846 622 791 657 c 2
 755 680 l 1
 763 706 l 1
 771 733 l 1
 701 745 l 1
 632 757 l 1
 563 746 l 2
 438 725 372 691 299 608 c 0
 232 531 190 452 173 371 c 0
 167 343 164 315 164 287 c 2
 164 237 l 1
 186 201 l 2
 212 159 277 117 349 95 c 2
 402 79 l 1
 474 84 l 2
 513 86 569 96 596 105 c 0
EndSplineSet
EndChar

StartChar: Otilde
Encoding: 213 213 157
Width: 878
Flags: HW
LayerCount: 2
Fore
SplineSet
349 18 m 0
 291 29 180 86 142 125 c 0
 104 165 90 219 97 309 c 2
 102 386 l 1
 128 450 l 2
 162 537 227 631 302 697 c 2
 364 752 l 1
 435 781 l 1
 505 810 l 1
 609 815 l 1
 712 819 l 1
 768 807 l 2
 834 793 877 762 895 716 c 0
 902 698 919 664 932 641 c 0
 945 618 958 581 959 557 c 2
 962 515 l 1
 938 422 l 1
 912 330 l 1
 877 263 l 2
 834 181 794 137 731 95 c 0
 655 45 524 12 418 12 c 0
 393 12 369 14 349 18 c 0
596 105 m 0
 623 114 667 133 695 147 c 2
 746 174 l 1
 774 217 l 2
 821 289 860 378 877 455 c 2
 892 528 l 1
 884 558 l 2
 874 591 846 622 791 657 c 2
 755 680 l 1
 763 706 l 1
 771 733 l 1
 701 745 l 1
 632 757 l 1
 563 746 l 2
 438 725 372 691 299 608 c 0
 232 531 190 452 173 371 c 0
 167 343 164 315 164 287 c 2
 164 237 l 1
 186 201 l 2
 212 159 277 117 349 95 c 2
 402 79 l 1
 474 84 l 2
 513 86 569 96 596 105 c 0
EndSplineSet
EndChar

StartChar: Odieresis
Encoding: 214 214 158
Width: 878
Flags: HW
LayerCount: 2
Fore
SplineSet
349 18 m 0
 291 29 180 86 142 125 c 0
 104 165 90 219 97 309 c 2
 102 386 l 1
 128 450 l 2
 162 537 227 631 302 697 c 2
 364 752 l 1
 435 781 l 1
 505 810 l 1
 609 815 l 1
 712 819 l 1
 768 807 l 2
 834 793 877 762 895 716 c 0
 902 698 919 664 932 641 c 0
 945 618 958 581 959 557 c 2
 962 515 l 1
 938 422 l 1
 912 330 l 1
 877 263 l 2
 834 181 794 137 731 95 c 0
 655 45 524 12 418 12 c 0
 393 12 369 14 349 18 c 0
596 105 m 0
 623 114 667 133 695 147 c 2
 746 174 l 1
 774 217 l 2
 821 289 860 378 877 455 c 2
 892 528 l 1
 884 558 l 2
 874 591 846 622 791 657 c 2
 755 680 l 1
 763 706 l 1
 771 733 l 1
 701 745 l 1
 632 757 l 1
 563 746 l 2
 438 725 372 691 299 608 c 0
 232 531 190 452 173 371 c 0
 167 343 164 315 164 287 c 2
 164 237 l 1
 186 201 l 2
 212 159 277 117 349 95 c 2
 402 79 l 1
 474 84 l 2
 513 86 569 96 596 105 c 0
460 882 m 2
 441 898 l 1
 446 923 l 1
 452 948 l 1
 481 965 l 1
 511 982 l 1
 543 965 l 1
 575 948 l 1
 570 928 l 2
 564 902 523 866 498 866 c 0
 488 866 471 873 460 882 c 2
710 882 m 2
 691 898 l 1
 696 923 l 1
 702 948 l 1
 731 965 l 1
 761 982 l 1
 793 965 l 1
 825 948 l 1
 820 928 l 2
 814 902 773 866 748 866 c 0
 738 866 721 873 710 882 c 2
EndSplineSet
EndChar

StartChar: Ugrave
Encoding: 217 217 159
Width: 581
Flags: HW
LayerCount: 2
Fore
SplineSet
513 854 m 6
 440 875 347 917 341 933 c 4
 335 947 352 972 370 978 c 4
 378 981 410 973 441 959 c 4
 472 945 531 926 573 915 c 4
 657 894 669 886 658 858 c 6
 650 840 l 5
 615 838 l 6
 596 837 549 844 513 854 c 6
 513 854 l 6
184 55 m 0
 164 63 133 87 115 108 c 2
 83 147 l 1
 79 203 l 1
 75 258 l 1
 98 336 l 2
 143 486 251 710 314 787 c 2
 340 819 l 1
 362 816 l 1
 385 813 l 1
 383 790 l 2
 382 778 369 751 353 729 c 0
 283 632 179 400 156 290 c 2
 145 239 l 1
 158 194 l 1
 172 149 l 1
 203 129 l 1
 235 110 l 1
 294 114 l 1
 353 118 l 1
 395 145 l 1
 437 173 l 1
 474 227 l 2
 526 301 573 422 603 557 c 2
 628 669 l 1
 622 698 l 2
 619 714 620 741 624 758 c 2
 630 788 l 1
 658 785 l 1
 685 782 l 1
 692 731 l 1
 701 680 l 1
 663 526 l 1
 625 372 l 1
 595 308 l 2
 539 185 468 105 382 66 c 2
 324 40 l 1
 273 40 l 2
 245 40 204 47 184 55 c 0
EndSplineSet
EndChar

StartChar: Uacute
Encoding: 218 218 160
Width: 581
Flags: HW
LayerCount: 2
Fore
SplineSet
184 55 m 0
 164 63 133 87 115 108 c 2
 83 147 l 1
 79 203 l 1
 75 258 l 1
 98 336 l 2
 143 486 251 710 314 787 c 2
 340 819 l 1
 362 816 l 1
 385 813 l 1
 383 790 l 2
 382 778 369 751 353 729 c 0
 283 632 179 400 156 290 c 2
 145 239 l 1
 158 194 l 1
 172 149 l 1
 203 129 l 1
 235 110 l 1
 294 114 l 1
 353 118 l 1
 395 145 l 1
 437 173 l 1
 474 227 l 2
 526 301 573 422 603 557 c 2
 628 669 l 1
 622 698 l 2
 619 714 620 741 624 758 c 2
 630 788 l 1
 658 785 l 1
 685 782 l 1
 692 731 l 1
 701 680 l 1
 663 526 l 1
 625 372 l 1
 595 308 l 2
 539 185 468 105 382 66 c 2
 324 40 l 1
 273 40 l 2
 245 40 204 47 184 55 c 0
383 869 m 5
 368 883 l 5
 381 899 l 6
 397 919 626 1016 660 1018 c 6
 684 1019 l 5
 692 1001 l 5
 699 983 l 5
 672 966 l 6
 643 947 474 877 427 864 c 6
 398 856 l 5
 383 869 l 5
EndSplineSet
EndChar

StartChar: Ucircumflex
Encoding: 219 219 161
Width: 581
Flags: HW
LayerCount: 2
Fore
SplineSet
296 857 m 4
 292 863 291 872 293 881 c 4
 294 884 294 887 296 890 c 4
 308 912 463 1045 555 1111 c 6
 623 1159 l 5
 650 1159 l 5
 678 1159 l 5
 689 1111 l 6
 694 1084 709 1021 722 972 c 6
 744 882 l 5
 725 866 l 5
 704 849 l 5
 690 856 l 6
 682 860 660 910 645 970 c 6
 616 1079 l 5
 584 1056 l 6
 566 1043 502 989 440 937 c 4
 378 885 322 842 316 842 c 4
 310 842 301 849 296 857 c 4
184 55 m 0
 164 63 133 87 115 108 c 2
 83 147 l 1
 79 203 l 1
 75 258 l 1
 98 336 l 2
 143 486 251 710 314 787 c 2
 340 819 l 1
 362 816 l 1
 385 813 l 1
 383 790 l 2
 382 778 369 751 353 729 c 0
 283 632 179 400 156 290 c 2
 145 239 l 1
 158 194 l 1
 172 149 l 1
 203 129 l 1
 235 110 l 1
 294 114 l 1
 353 118 l 1
 395 145 l 1
 437 173 l 1
 474 227 l 2
 526 301 573 422 603 557 c 2
 628 669 l 1
 622 698 l 2
 619 714 620 741 624 758 c 2
 630 788 l 1
 658 785 l 1
 685 782 l 1
 692 731 l 1
 701 680 l 1
 663 526 l 1
 625 372 l 1
 595 308 l 2
 539 185 468 105 382 66 c 2
 324 40 l 1
 273 40 l 2
 245 40 204 47 184 55 c 0
EndSplineSet
EndChar

StartChar: Udieresis
Encoding: 220 220 162
Width: 581
Flags: HW
LayerCount: 2
Fore
SplineSet
184 55 m 0
 164 63 133 87 115 108 c 2
 83 147 l 1
 79 203 l 1
 75 258 l 1
 98 336 l 2
 143 486 251 710 314 787 c 2
 340 819 l 1
 362 816 l 1
 385 813 l 1
 383 790 l 2
 382 778 369 751 353 729 c 0
 283 632 179 400 156 290 c 2
 145 239 l 1
 158 194 l 1
 172 149 l 1
 203 129 l 1
 235 110 l 1
 294 114 l 1
 353 118 l 1
 395 145 l 1
 437 173 l 1
 474 227 l 2
 526 301 573 422 603 557 c 2
 628 669 l 1
 622 698 l 2
 619 714 620 741 624 758 c 2
 630 788 l 1
 658 785 l 1
 685 782 l 1
 692 731 l 1
 701 680 l 1
 663 526 l 1
 625 372 l 1
 595 308 l 2
 539 185 468 105 382 66 c 2
 324 40 l 1
 273 40 l 2
 245 40 204 47 184 55 c 0
370 882 m 2
 351 898 l 1
 356 923 l 1
 362 948 l 1
 391 965 l 1
 421 982 l 1
 453 965 l 1
 485 948 l 1
 480 928 l 2
 474 902 433 866 408 866 c 0
 398 866 381 873 370 882 c 2
620 882 m 2
 601 898 l 1
 606 923 l 1
 612 948 l 1
 641 965 l 1
 671 982 l 1
 703 965 l 1
 735 948 l 1
 730 928 l 2
 724 902 683 866 658 866 c 0
 648 866 631 873 620 882 c 2
EndSplineSet
EndChar

StartChar: Yacute
Encoding: 221 221 163
Width: 588
Flags: HW
LayerCount: 2
Fore
SplineSet
374 829 m 5
 359 843 l 5
 373 859 l 6
 389 879 618 976 652 978 c 6
 675 979 l 5
 683 961 l 5
 690 943 l 5
 664 926 l 6
 635 907 465 837 418 824 c 6
 389 816 l 5
 374 829 l 5
298 93 m 2
 288 111 l 1
 326 292 l 1
 366 474 l 1
 341 490 l 2
 328 499 298 534 274 568 c 2
 230 630 l 1
 207 707 l 1
 186 785 l 1
 200 802 l 2
 208 811 223 819 233 819 c 2
 252 819 l 1
 275 741 l 1
 298 663 l 1
 343 605 l 2
 368 573 394 548 401 548 c 0
 408 548 464 595 525 651 c 0
 586 707 650 762 666 773 c 2
 696 793 l 1
 712 783 l 2
 722 777 728 767 727 760 c 0
 726 753 667 695 596 630 c 0
 525 565 462 505 455 495 c 0
 440 475 383 281 361 177 c 0
 359 169 357 161 356 154 c 2
 342 82 l 1
 326 79 l 2
 325 79 323 79 322 79 c 0
 313 79 303 84 298 93 c 2
EndSplineSet
EndChar

StartChar: ae
Encoding: 230 230 164
Width: 887
Flags: HW
LayerCount: 2
Fore
SplineSet
425 320 m 2
 453 381 l 1
 445 393 l 1
 435 404 l 1
 379 403 l 1
 322 402 l 1
 277 375 l 2
 221 342 165 275 143 212 c 2
 126 164 l 1
 133 132 l 1
 139 100 l 1
 166 87 l 2
 178 82 189 79 201 79 c 0
 221 79 243 87 272 105 c 0
 312 130 356 183 395 258 c 1
 398 273 l 1
 424 318 l 2
 424 319 425 319 425 320 c 2
756 312 m 2
 784 329 818 357 833 376 c 2
 860 410 l 1
 851 421 l 2
 846 427 823 434 799 437 c 2
 754 442 l 1
 690 425 l 2
 604 402 533 363 506 326 c 2
 499 317 l 2
 496 309 494 301 491 293 c 1
 496 291 l 2
 520 283 550 278 599 278 c 0
 609 278 619 279 631 279 c 2
 706 281 l 1
 756 312 l 2
111 28 m 0
 73 49 56 92 59 150 c 2
 61 194 l 1
 86 248 l 2
 127 339 213 423 296 455 c 2
 337 471 l 1
 401 471 l 1
 465 471 l 1
 495 450 l 2
 507 442 517 430 523 421 c 1
 583 462 660 491 743 503 c 2
 814 513 l 1
 855 501 l 2
 878 494 907 478 918 464 c 2
 937 438 l 1
 923 402 l 2
 895 325 786 238 688 213 c 2
 644 202 l 1
 560 209 l 2
 518 213 478 218 465 221 c 1
 456 195 450 174 445 156 c 1
 448 123 462 103 488 88 c 1
 510 93 l 1
 520 76 l 1
 522 74 l 1
 538 69 557 64 578 59 c 2
 632 47 l 1
 687 58 l 2
 723 64 764 91 798 105 c 0
 830 118 852 125 866 125 c 0
 883 125 887 115 883 95 c 2
 878 71 l 1
 824 46 l 2
 742 8 685 -15 616 -15 c 0
 601 -15 585 -13 567 -11 c 0
 521 -4 485 2 456 13 c 1
 432 7 l 1
 410 19 l 2
 397 25 381 44 375 61 c 2
 363 92 l 1
 340 72 l 2
 298 34 236 13 181 13 c 0
 155 13 130 18 111 28 c 0
EndSplineSet
EndChar

StartChar: AE
Encoding: 198 198 165
Width: 1090
Flags: HW
LayerCount: 2
Fore
SplineSet
484 366 m 2
 485 372 484 435 481 507 c 2
 475 637 l 1
 399 506 l 2
 357 434 322 371 321 366 c 2
 319 356 l 1
 401 356 l 1
 482 356 l 1
 484 366 l 2
28 -11 m 0
 22 -8 18 -3 20 7 c 0
 24 28 52 72 117 172 c 0
 272 411 368 573 450 732 c 2
 491 812 l 1
 511 818 l 2
 514 819 518 819 521 819 c 0
 541 819 557 802 552 780 c 0
 550 770 549 701 551 626 c 0
 553 582 553 505 555 423 c 1
 575 489 l 2
 604 586 621 652 631 698 c 0
 638 731 641 752 640 767 c 2
 639 794 l 1
 658 802 l 2
 669 807 796 812 939 815 c 2
 1199 819 l 1
 1212 807 l 2
 1220 799 1222 788 1220 778 c 0
 1217 766 1210 756 1197 752 c 0
 1189 750 1113 748 1018 748 c 0
 998 748 977 748 955 748 c 2
 732 749 l 1
 722 739 l 2
 716 734 695 666 674 588 c 2
 636 447 l 1
 730 450 l 1
 824 452 l 1
 834 440 l 1
 844 427 l 1
 828 410 l 1
 813 392 l 1
 772 385 l 2
 749 381 704 377 672 377 c 2
 613 377 l 1
 601 313 l 2
 595 278 582 207 575 157 c 2
 562 66 l 1
 700 68 l 2
 776 69 888 77 947 85 c 0
 992 91 1036 95 1057 95 c 0
 1063 95 1068 95 1070 94 c 2
 1084 87 l 1
 1076 60 l 1
 1067 34 l 1
 987 21 l 2
 944 14 818 6 707 2 c 2
 545 -4 l 1
 537 -13 529 -18 520 -18 c 0
 513 -18 507 -15 500 -10 c 0
 498 -9 496 1 494 15 c 1
 483 30 l 1
 489 67 l 1
 487 88 488 111 487 135 c 0
 486 210 483 275 481 280 c 0
 478 286 422 289 370 289 c 0
 326 289 285 287 276 282 c 0
 269 278 223 215 175 143 c 0
 92 17 68 -15 44 -15 c 0
 39 -15 33 -14 28 -11 c 0
EndSplineSet
EndChar

StartChar: plusminus
Encoding: 177 177 166
Width: 577
Flags: HW
LayerCount: 2
Fore
SplineSet
131 35 m 0
 113 39 97 49 93 56 c 2
 88 70 l 1
 100 85 l 1
 112 101 l 1
 270 98 l 1
 272 109 274 120 278 132 c 2
 298 210 l 1
 203 207 l 2
 189 206 175 206 162 206 c 0
 126 206 97 208 89 211 c 2
 69 218 l 1
 73 236 l 2
 75 246 85 260 93 266 c 2
 109 277 l 1
 217 280 l 1
 324 283 l 1
 350 392 l 1
 375 501 l 1
 392 512 l 2
 401 518 415 521 423 518 c 2
 439 511 l 1
 437 475 l 2
 436 463 433 439 428 414 c 0
 424 397 419 380 415 364 c 2
 393 289 l 1
 503 291 l 1
 612 293 l 1
 612 274 l 2
 612 271 612 268 611 265 c 0
 606 241 578 233 486 226 c 0
 431 222 383 216 379 213 c 0
 375 210 361 173 347 130 c 0
 344 119 339 107 336 97 c 1
 423 95 490 90 493 86 c 0
 497 81 497 69 493 59 c 2
 485 40 l 1
 427 33 l 2
 390 29 334 27 279 27 c 0
 215 27 153 30 131 35 c 0
EndSplineSet
EndChar

StartChar: Ccedilla
Encoding: 199 199 167
Width: 670
Flags: HW
LayerCount: 2
Fore
SplineSet
321 -26 m 1
 302 -19 284 -11 269 -3 c 2
 212 27 l 1
 172 79 l 1
 132 132 l 1
 113 205 l 1
 93 279 l 1
 98 336 l 1
 103 392 l 1
 127 453 l 2
 181 588 305 727 425 782 c 2
 486 810 l 1
 566 814 l 1
 646 819 l 1
 690 806 l 1
 735 793 l 1
 763 759 l 1
 792 725 l 1
 785 708 l 2
 781 698 770 686 759 680 c 2
 738 669 l 1
 715 696 l 2
 684 733 648 747 575 747 c 2
 513 747 l 1
 469 730 l 2
 401 704 349 665 293 600 c 2
 242 541 l 1
 210 474 l 1
 178 407 l 1
 171 351 l 2
 167 320 172 269 179 238 c 2
 192 181 l 1
 236 127 l 1
 278 72 l 1
 334 49 l 1
 390 25 l 1
 462 24 l 2
 466 24 471 24 475 24 c 0
 513 24 561 28 588 32 c 2
 642 41 l 1
 645 22 l 1
 648 4 l 1
 626 -14 l 1
 604 -32 l 1
 535 -43 l 2
 497 -49 477 -52 458 -52 c 0
 444 -52 430 -50 410 -47 c 1
 425 -52 l 2
 504 -78 536 -97 522 -165 c 2
 514 -203 l 1
 472 -236 l 2
 434 -266 377 -283 330 -283 c 0
 304 -283 280 -278 266 -266 c 0
 253 -256 249 -240 252 -227 c 0
 254 -218 259 -211 269 -208 c 0
 273 -206 282 -206 294 -206 c 0
 306 -206 322 -206 336 -208 c 2
 388 -213 l 1
 417 -196 l 2
 436 -185 449 -170 452 -156 c 0
 454 -147 451 -138 444 -132 c 0
 438 -127 404 -123 367 -123 c 2
 300 -123 l 1
 321 -26 l 1
EndSplineSet
EndChar

StartChar: Euro
Encoding: 164 8364 168
Width: 886
Flags: HW
LayerCount: 2
Fore
SplineSet
554 23 m 0
 484 34 394 69 340 105 c 2
 293 135 l 1
 274 182 l 1
 254 229 l 1
 174 234 l 1
 94 239 l 1
 86 256 l 1
 79 273 l 1
 95 286 l 1
 110 299 l 1
 184 304 l 1
 257 309 l 1
 263 338 l 1
 269 366 l 1
 189 368 l 1
 109 369 l 1
 109 388 l 1
 110 408 l 1
 130 421 l 1
 151 434 l 1
 220 434 l 1
 288 434 l 1
 328 492 l 1
 367 549 l 1
 441 610 l 1
 516 672 l 1
 592 705 l 1
 667 739 l 1
 752 738 l 1
 838 738 l 1
 880 715 l 2
 947 680 989 592 976 529 c 0
 975 526 976 524 975 521 c 2
 965 489 l 1
 941 489 l 1
 917 489 l 1
 909 541 l 1
 901 593 l 1
 872 623 l 2
 842 656 793 673 737 673 c 0
 696 673 652 664 609 645 c 0
 543 616 441 538 400 485 c 2
 368 444 l 1
 420 444 l 2
 448 444 516 449 569 455 c 2
 666 466 l 1
 678 452 l 1
 689 438 l 1
 679 421 l 2
 666 399 652 396 482 381 c 2
 339 369 l 1
 329 341 l 1
 321 313 l 1
 390 321 l 2
 429 325 477 329 496 329 c 2
 531 329 l 1
 525 299 l 1
 518 269 l 1
 428 258 l 2
 379 252 335 245 331 242 c 0
 331 242 330 241 330 240 c 0
 329 235 336 220 345 205 c 0
 369 167 453 122 542 99 c 2
 608 82 l 1
 670 89 l 2
 704 93 746 96 762 97 c 2
 792 99 l 1
 787 74 l 1
 781 49 l 1
 754 37 l 2
 728 26 670 19 617 19 c 0
 594 19 572 20 554 23 c 0
EndSplineSet
EndChar

StartChar: cent
Encoding: 162 162 169
Width: 512
Flags: HW
LayerCount: 2
Fore
SplineSet
316 427 m 1
 287 413 l 1
 249 395 l 1
 210 349 l 2
 188 323 159 277 146 246 c 2
 123 190 l 1
 129 152 l 1
 135 115 l 1
 168 103 l 2
 183 97 213 93 244 91 c 1
 285 280 l 1
 316 427 l 1
156 27 m 0
 111 38 73 68 61 100 c 2
 50 128 l 1
 66 200 l 1
 81 271 l 1
 105 314 l 2
 118 338 147 377 170 401 c 2
 212 446 l 1
 269 473 l 1
 325 501 l 1
 331 501 l 1
 366 665 l 1
 386 669 l 2
 388 669 390 670 392 670 c 0
 401 670 412 666 416 661 c 2
 425 649 l 1
 401 534 l 2
 399 526 397 517 395 506 c 1
 407 507 l 1
 488 512 l 1
 529 490 l 1
 570 467 l 1
 577 438 l 2
 580 427 580 416 578 407 c 0
 577 403 574 399 573 397 c 0
 567 390 559 386 549 386 c 0
 533 386 515 396 503 413 c 2
 484 440 l 1
 404 435 l 1
 380 434 l 1
 364 354 342 247 323 151 c 0
 319 130 315 109 311 89 c 1
 337 89 l 1
 403 108 l 2
 432 116 452 121 465 121 c 0
 482 121 487 113 484 98 c 0
 483 95 482 92 481 88 c 2
 472 64 l 1
 401 41 l 1
 329 18 l 1
 296 18 l 1
 278 -66 264 -124 260 -128 c 0
 255 -135 247 -138 240 -138 c 0
 230 -138 220 -133 213 -122 c 2
 203 -105 l 1
 229 20 l 1
 198 21 168 24 156 27 c 0
EndSplineSet
EndChar

StartChar: oslash
Encoding: 248 248 170
Width: 578
Flags: HW
LayerCount: 2
Fore
SplineSet
321 98 m 0
 347 107 391 126 418 141 c 2
 467 168 l 1
 499 209 l 1
 531 251 l 1
 542 300 l 1
 552 349 l 1
 517 393 l 1
 417 299 313 196 211 87 c 1
 220 85 231 84 241 84 c 0
 265 84 292 89 321 98 c 0
9 -79 m 0
 6 -75 6 -70 7 -63 c 0
 11 -44 37 -11 100 59 c 1
 79 74 l 1
 66 115 l 1
 54 157 l 1
 73 225 l 1
 91 292 l 1
 124 338 l 2
 143 364 180 405 207 429 c 2
 256 472 l 1
 316 497 l 1
 375 522 l 1
 417 522 l 2
 454 522 499 512 534 496 c 1
 565 524 595 551 624 575 c 2
 745 678 l 1
 762 666 l 2
 771 660 778 648 778 639 c 2
 777 623 l 1
 650 513 l 2
 630 495 610 477 589 459 c 1
 600 450 l 1
 611 402 l 1
 623 353 l 1
 611 295 l 1
 598 236 l 1
 565 190 l 2
 525 132 464 87 375 49 c 2
 305 19 l 1
 249 15 l 2
 241 14 233 14 225 14 c 0
 202 14 178 16 168 20 c 0
 164 21 160 24 155 26 c 1
 57 -80 l 1
 36 -83 l 2
 25 -85 12 -83 9 -79 c 0
477 443 m 1
 427 448 l 1
 376 453 l 1
 326 431 l 2
 238 392 153 294 135 208 c 2
 126 166 l 1
 138 138 l 2
 142 130 146 123 152 117 c 1
 261 234 373 346 477 443 c 1
EndSplineSet
EndChar

StartChar: yen
Encoding: 165 165 171
Width: 586
Flags: HW
LayerCount: 2
Fore
SplineSet
299 93 m 2
 289 111 l 1
 322 267 l 1
 271 268 227 271 209 275 c 0
 191 279 175 289 171 296 c 2
 166 310 l 1
 178 325 l 1
 190 341 l 1
 337 339 l 1
 345 377 l 1
 294 378 251 381 233 385 c 0
 215 389 198 399 194 406 c 2
 189 420 l 1
 201 435 l 1
 214 451 l 1
 361 449 l 1
 367 474 l 1
 342 490 l 2
 329 499 299 534 275 568 c 2
 231 630 l 1
 208 707 l 1
 187 785 l 1
 201 802 l 2
 209 811 224 819 234 819 c 2
 253 819 l 1
 276 741 l 1
 299 663 l 1
 344 605 l 2
 369 573 395 548 402 548 c 0
 409 548 465 595 526 651 c 0
 587 707 651 762 667 773 c 2
 697 793 l 1
 713 783 l 2
 723 777 729 767 728 760 c 0
 727 753 668 695 597 630 c 0
 526 565 463 505 456 495 c 0
 452 490 444 472 436 447 c 1
 523 445 592 440 595 436 c 0
 599 431 598 419 594 409 c 2
 586 390 l 1
 528 383 l 2
 499 380 457 378 414 377 c 1
 410 364 407 351 403 337 c 1
 495 335 567 331 571 326 c 0
 575 321 575 309 571 299 c 2
 563 280 l 1
 505 273 l 2
 474 270 429 268 383 267 c 1
 375 236 367 205 362 180 c 0
 360 171 359 162 357 154 c 2
 343 82 l 1
 327 79 l 2
 326 79 324 79 323 79 c 0
 314 79 304 84 299 93 c 2
EndSplineSet
EndChar

StartChar: sterling
Encoding: 163 163 172
Width: 732
Flags: HW
LayerCount: 2
Fore
SplineSet
42 26 m 0
 39 39 37 54 39 64 c 0
 39 66 40 68 41 70 c 2
 50 85 l 1
 92 91 l 2
 186 106 284 161 323 223 c 2
 344 253 l 1
 342 288 l 2
 342 307 338 334 334 349 c 2
 328 377 l 1
 219 377 l 1
 110 377 l 1
 108 393 l 2
 108 397 107 400 108 403 c 0
 112 422 141 433 210 442 c 2
 286 452 l 1
 249 507 l 2
 208 567 191 612 200 653 c 0
 205 675 216 696 236 718 c 0
 252 737 290 764 321 781 c 2
 377 812 l 1
 449 815 l 1
 523 819 l 1
 575 803 l 1
 626 787 l 1
 657 742 l 2
 683 702 692 663 683 621 c 0
 681 613 668 597 655 586 c 2
 629 566 l 1
 618 577 l 2
 611 584 609 604 613 622 c 2
 620 654 l 1
 604 688 l 1
 588 722 l 1
 556 734 l 2
 535 742 496 746 458 746 c 0
 424 746 389 743 370 736 c 0
 354 730 325 713 307 699 c 2
 274 673 l 1
 269 648 l 1
 263 622 l 1
 321 534 l 1
 378 447 l 1
 511 447 l 1
 645 447 l 1
 649 437 l 2
 651 431 648 418 643 407 c 2
 631 387 l 1
 570 387 l 2
 536 387 484 384 455 381 c 2
 402 374 l 1
 409 341 l 2
 413 323 411 284 405 255 c 2
 394 202 l 1
 361 165 l 2
 343 145 328 125 327 122 c 0
 326 119 380 117 446 117 c 2
 567 117 l 1
 640 133 l 2
 671 140 702 144 718 144 c 0
 722 144 725 144 727 143 c 2
 741 137 l 1
 733 115 l 1
 726 92 l 1
 696 79 l 2
 680 72 630 62 586 56 c 2
 506 46 l 1
 417 52 l 1
 329 59 l 1
 242 48 l 2
 195 42 135 28 110 17 c 0
 82 5 69 -1 60 -1 c 0
 50 -1 48 7 42 26 c 0
EndSplineSet
EndChar

StartChar: eth
Encoding: 240 240 173
Width: 794
Flags: HW
LayerCount: 2
Fore
SplineSet
148 302 m 1
 137 211 l 2
 127 130 188 82 277 82 c 0
 298 82 321 84 344 90 c 0
 368 96 414 116 444 135 c 2
 498 169 l 1
 526 208 l 2
 558 253 618 328 622 347 c 0
 622 348 621 349 621 350 c 0
 619 355 623 369 616 369 c 0
 609 369 601 376 600 385 c 2
 597 402 l 1
 617 420 l 1
 626 428 l 1
 615 455 l 2
 602 486 556 508 492 516 c 2
 446 522 l 1
 389 509 l 1
 333 496 l 1
 272 445 l 1
 210 394 l 1
 148 302 l 1
87 315 m 1
 145 400 l 1
 179 467 256 524 329 556 c 2
 391 584 l 1
 471 584 l 2
 556 584 611 569 651 536 c 2
 675 515 l 1
 666 650 l 2
 660 689 655 724 653 726 c 0
 652 726 l 0
 646 726 602 709 549 685 c 2
 478 650 l 1
 461 660 l 1
 443 670 l 1
 450 687 l 1
 457 704 l 1
 533 744 l 2
 593 772 642 798 643 804 c 0
 644 810 638 843 630 879 c 2
 614 943 l 1
 628 961 l 2
 635 971 648 979 656 979 c 0
 673 979 700 919 707 866 c 0
 710 845 716 829 721 829 c 0
 726 829 788 849 858 874 c 2
 931 899 l 1
 946 893 l 1
 961 887 l 1
 956 864 l 1
 951 841 l 1
 900 821 l 2
 872 810 862 807 812 789 c 2
 722 757 l 1
 726 741 l 2
 728 732 733 690 738 649 c 1
 705 374 l 1
 680 310 l 2
 666 275 650 262 628 224 c 1
 574 158 l 1
 520 114 l 2
 441 49 351 14 264 14 c 0
 248 14 232 15 216 18 c 0
 167 26 123 45 96 79 c 0
 80 100 70 125 71 158 c 2
 87 315 l 1
EndSplineSet
EndChar

StartChar: ordfeminine
Encoding: 170 170 174
Width: 390
Flags: HW
LayerCount: 2
Fore
SplineSet
317 669 m 2
 342 696 355 713 358 725 c 0
 360 734 355 740 346 744 c 2
 332 751 l 1
 284 709 l 2
 258 686 235 659 233 648 c 2
 228 627 l 1
 253 627 l 1
 278 627 l 1
 317 669 l 2
174 578 m 1
 152 599 l 1
 158 628 l 2
 172 692 241 772 310 804 c 2
 341 819 l 1
 373 813 l 2
 390 810 415 798 427 786 c 2
 449 764 l 1
 431 698 l 1
 414 632 l 1
 454 632 l 1
 494 632 l 1
 489 608 l 1
 484 583 l 1
 456 570 l 2
 441 563 416 557 401 557 c 2
 373 557 l 1
 357 578 l 1
 341 598 l 1
 304 578 l 1
 266 557 l 1
 231 557 l 1
 196 557 l 1
 174 578 l 1
EndSplineSet
EndChar

StartChar: ordmasculine
Encoding: 186 186 175
Width: 376
Flags: HW
LayerCount: 2
Fore
SplineSet
347 575 m 2
 368 592 379 603 380 610 c 0
 381 615 377 619 369 622 c 0
 362 625 351 643 346 660 c 2
 337 691 l 1
 355 720 l 2
 363 733 368 741 369 747 c 0
 370 752 368 755 363 755 c 0
 357 755 346 752 332 745 c 0
 292 727 246 674 228 626 c 2
 216 591 l 1
 232 570 l 1
 249 549 l 1
 282 549 l 1
 316 549 l 1
 347 575 l 2
208 497 m 0
 191 507 170 530 161 549 c 2
 144 584 l 1
 159 628 l 2
 167 652 191 693 212 721 c 2
 250 771 l 1
 290 795 l 1
 330 819 l 1
 373 819 l 2
 428 819 472 799 492 764 c 2
 508 736 l 1
 499 692 l 2
 487 637 460 593 408 545 c 0
 360 501 314 479 272 479 c 0
 250 479 228 485 208 497 c 0
EndSplineSet
EndChar

StartChar: Oslash
Encoding: 216 216 176
Width: 1079
Flags: HW
LayerCount: 2
Fore
SplineSet
439 339 m 0
 542 435 708 581 805 662 c 0
 900 741 977 808 978 814 c 0
 978 816 947 824 906 829 c 2
 838 839 l 1
 773 828 l 2
 670 812 573 762 446 657 c 0
 311 546 227 430 205 325 c 0
 198 294 197 264 201 236 c 0
 207 197 226 161 240 161 c 0
 241 161 241 161 242 161 c 0
 246 163 336 243 439 339 c 0
554 94 m 0
 621 109 750 164 795 196 c 0
 871 251 1008 416 1038 486 c 2
 1060 538 l 1
 1054 573 l 2
 1050 592 1049 623 1053 641 c 0
 1061 679 1041 759 1024 759 c 0
 992 759 304 142 297 109 c 0
 296 104 327 81 428 81 c 0
 469 81 515 85 554 94 c 0
8 -99 m 0
 2 -92 -1 -86 1 -78 c 0
 4 -63 23 -43 62 -8 c 0
 94 21 134 56 150 71 c 2
 179 97 l 1
 157 140 l 2
 145 164 134 208 131 238 c 2
 126 293 l 1
 146 359 l 2
 181 478 257 579 404 702 c 0
 515 795 614 854 704 880 c 2
 770 899 l 1
 856 899 l 1
 942 899 l 1
 1003 883 l 1
 1063 867 l 1
 1072 876 l 2
 1076 881 1113 908 1154 937 c 2
 1228 989 l 1
 1246 979 l 2
 1256 973 1261 960 1259 950 c 2
 1255 931 l 1
 1172 875 l 1
 1090 818 l 1
 1104 784 l 2
 1111 766 1121 718 1126 678 c 2
 1136 606 l 1
 1121 540 l 1
 1107 474 l 1
 1079 424 l 2
 1045 363 951 254 864 176 c 2
 800 119 l 1
 709 79 l 2
 658 57 583 32 540 23 c 2
 463 7 l 1
 390 13 l 2
 350 16 295 26 270 35 c 2
 225 52 l 1
 132 -30 l 2
 80 -75 33 -111 27 -111 c 0
 21 -111 14 -106 8 -99 c 0
EndSplineSet
EndChar

StartChar: Thorn
Encoding: 222 222 177
Width: 454
Flags: HW
LayerCount: 2
Fore
SplineSet
303 114 m 2
 341 128 l 1
 368 162 l 1
 395 195 l 1
 404 236 l 1
 413 278 l 1
 393 298 l 2
 381 309 360 323 344 330 c 2
 317 342 l 1
 283 333 l 1
 250 325 l 1
 212 288 l 2
 192 268 167 234 159 213 c 0
 151 192 138 167 132 157 c 2
 122 140 l 1
 137 140 l 2
 145 140 170 131 192 120 c 0
 217 107 233 101 250 101 c 0
 265 101 280 105 303 114 c 2
14 -95 m 2
 5 -81 l 1
 72 184 l 1
 138 449 l 1
 154 470 l 2
 164 483 177 489 189 489 c 0
 200 489 210 484 213 472 c 2
 219 453 l 1
 202 414 l 2
 192 392 182 369 181 362 c 2
 178 349 l 1
 225 376 l 1
 272 403 l 1
 319 404 l 1
 366 405 l 1
 410 379 l 1
 454 353 l 1
 470 320 l 1
 485 287 l 1
 474 236 l 1
 463 185 l 1
 435 143 l 1
 407 101 l 1
 359 71 l 1
 312 41 l 1
 268 34 l 1
 225 28 l 1
 184 45 l 2
 161 54 134 64 125 67 c 2
 108 72 l 1
 94 -7 l 2
 92 -17 89 -27 87 -37 c 0
 80 -68 74 -93 70 -98 c 0
 63 -106 54 -110 44 -110 c 0
 32 -110 20 -105 14 -95 c 2
EndSplineSet
EndChar

StartChar: germandbls
Encoding: 223 223 178
Width: 653
Flags: HW
LayerCount: 2
Fore
SplineSet
7 -200 m 2
 -3 -184 l 1
 50 97 l 1
 103 379 l 1
 133 484 l 2
 194 692 231 749 340 800 c 2
 379 818 l 1
 469 819 l 1
 559 819 l 1
 595 805 l 2
 643 787 692 731 698 686 c 2
 703 649 l 1
 684 564 l 1
 666 479 l 1
 642 443 l 2
 629 423 598 388 575 367 c 2
 532 328 l 1
 571 305 l 1
 610 281 l 1
 630 236 l 2
 652 189 658 138 649 96 c 0
 648 89 645 82 643 75 c 0
 626 30 568 -33 516 -63 c 2
 475 -87 l 1
 404 -92 l 1
 334 -98 l 1
 294 -74 l 1
 254 -51 l 1
 239 -16 l 1
 223 18 l 1
 231 44 l 1
 240 69 l 1
 265 69 l 1
 290 69 l 1
 296 43 l 2
 300 29 311 9 320 -1 c 2
 337 -19 l 1
 388 -23 l 1
 439 -27 l 1
 478 -9 l 2
 499 1 530 25 547 44 c 2
 579 79 l 1
 582 116 l 2
 583 136 578 169 570 189 c 2
 556 225 l 1
 519 245 l 1
 484 266 l 1
 420 268 l 1
 357 270 l 1
 344 288 l 1
 330 305 l 1
 358 325 l 2
 373 336 396 344 408 344 c 0
 435 344 513 389 549 425 c 0
 563 439 584 472 597 498 c 2
 619 545 l 1
 624 599 l 2
 631 663 618 705 582 729 c 2
 556 747 l 1
 485 752 l 1
 414 756 l 1
 376 745 l 2
 356 739 325 721 307 706 c 2
 274 678 l 1
 243 608 l 1
 213 539 l 1
 153 284 l 1
 95 29 l 1
 82 -81 l 1
 69 -190 l 1
 55 -203 l 2
 46 -211 38 -215 30 -215 c 0
 21 -215 13 -210 7 -200 c 2
EndSplineSet
EndChar

StartChar: thorn
Encoding: 254 254 179
Width: 619
Flags: HW
LayerCount: 2
Fore
SplineSet
374 140 m 0
 410 159 463 198 494 226 c 2
 551 276 l 1
 577 327 l 2
 593 358 603 385 608 409 c 0
 614 438 612 463 605 491 c 2
 594 533 l 1
 554 555 l 1
 514 577 l 1
 475 571 l 2
 421 563 355 519 286 447 c 2
 226 386 l 1
 204 338 l 2
 191 311 170 250 158 202 c 2
 135 115 l 1
 180 101 l 1
 224 87 l 1
 266 96 l 2
 289 101 338 121 374 140 c 0
-20 -182 m 2
 -21 -180 -20 -176 -18 -168 c 0
 -12 -142 3 -88 21 -29 c 0
 44 47 96 235 135 389 c 2
 206 669 l 1
 223 684 l 1
 241 699 l 1
 256 688 l 1
 271 677 l 1
 247 579 l 1
 223 481 l 1
 293 539 l 1
 362 596 l 1
 418 620 l 2
 449 633 490 644 509 644 c 0
 558 644 629 604 657 562 c 2
 682 527 l 1
 683 475 l 1
 684 423 l 1
 665 369 l 1
 648 315 l 1
 605 255 l 1
 562 195 l 1
 502 149 l 2
 469 124 407 87 367 67 c 2
 293 30 l 1
 218 29 l 2
 177 29 136 33 128 38 c 2
 114 46 l 1
 92 -22 l 2
 80 -60 64 -113 54 -141 c 2
 36 -191 l 1
 10 -194 l 1
 -17 -197 l 1
 -20 -182 l 2
EndSplineSet
EndChar

StartChar: OE
Encoding: 188 338 180
Width: 1181
Flags: HW
LayerCount: 2
Fore
SplineSet
469 45 m 1
 488 61 l 1
 507 135 l 2
 518 176 539 247 555 294 c 0
 571 341 603 455 627 549 c 2
 670 721 l 1
 650 737 l 1
 629 754 l 1
 586 754 l 1
 543 754 l 1
 477 729 l 2
 440 715 393 692 371 678 c 0
 316 642 247 561 212 490 c 2
 184 431 l 1
 167 335 l 1
 151 239 l 1
 164 184 l 2
 171 153 188 111 202 91 c 2
 227 54 l 1
 270 39 l 1
 314 24 l 1
 382 27 l 1
 450 30 l 1
 469 45 l 1
266 -37 m 0
 213 -25 167 4 143 41 c 0
 113 86 88 176 86 243 c 2
 84 297 l 1
 110 393 l 1
 136 489 l 1
 170 547 l 2
 189 579 231 633 264 667 c 2
 324 729 l 1
 422 774 l 1
 520 819 l 1
 598 818 l 1
 676 817 l 1
 697 801 l 1
 719 784 l 1
 1012 780 l 1
 1304 775 l 1
 1311 760 l 1
 1316 744 l 1
 1297 728 l 1
 1277 712 l 1
 1197 707 l 2
 1184 706 1164 706 1140 706 c 0
 1084 706 1006 708 936 713 c 2
 755 725 l 1
 745 717 l 2
 740 712 717 638 695 551 c 2
 655 394 l 1
 754 395 l 2
 808 395 884 399 923 403 c 2
 992 410 l 1
 1006 399 l 2
 1013 393 1014 379 1010 369 c 2
 1003 350 l 1
 967 342 l 2
 947 338 863 332 781 328 c 2
 632 321 l 1
 630 310 l 2
 629 304 614 260 598 211 c 0
 587 177 578 143 573 120 c 0
 571 110 569 102 569 98 c 2
 570 73 l 1
 669 79 l 2
 723 83 831 95 908 105 c 0
 972 113 1031 119 1054 119 c 0
 1059 119 1062 119 1064 118 c 2
 1079 111 l 1
 1070 85 l 1
 1062 59 l 1
 984 47 l 2
 942 40 822 27 718 18 c 2
 529 2 l 1
 492 -18 l 1
 455 -38 l 1
 377 -41 l 2
 366 -42 354 -42 342 -42 c 0
 310 -42 279 -40 266 -37 c 0
EndSplineSet
EndChar

StartChar: periodcentered
Encoding: 183 183 181
Width: 177
Flags: HW
LayerCount: 2
Fore
SplineSet
127 362 m 2
 107 378 l 1
 113 403 l 1
 118 428 l 1
 148 445 l 1
 177 462 l 1
 210 445 l 1
 241 428 l 1
 237 408 l 2
 231 382 190 346 165 346 c 0
 155 346 138 353 127 362 c 2
EndSplineSet
EndChar

StartChar: mu
Encoding: 181 181 182
Width: 442
Flags: HW
LayerCount: 2
Fore
SplineSet
59 81 m 2
 49 97 l 1
 114 394 l 1
 179 690 l 1
 208 744 l 2
 224 774 246 802 257 808 c 2
 277 819 l 1
 290 803 l 1
 301 787 l 1
 272 728 l 1
 241 669 l 1
 225 594 l 1
 209 519 l 1
 220 479 l 1
 231 439 l 1
 268 427 l 2
 283 422 300 419 313 419 c 0
 318 419 321 419 324 420 c 2
 345 426 l 1
 399 503 l 1
 453 579 l 1
 488 684 l 2
 507 742 524 793 528 797 c 0
 532 802 541 804 549 804 c 0
 561 804 574 799 579 791 c 2
 587 778 l 1
 547 654 l 2
 525 586 494 489 479 439 c 2
 452 349 l 1
 426 346 l 1
 398 343 l 1
 397 369 l 1
 397 395 l 1
 371 375 l 1
 344 354 l 1
 296 354 l 2
 269 354 232 361 214 369 c 0
 196 377 181 384 178 384 c 0
 176 384 169 356 160 315 c 0
 155 292 149 266 144 237 c 0
 140 215 136 194 132 175 c 0
 121 122 110 82 106 77 c 0
 99 69 92 65 84 65 c 0
 75 65 66 70 59 81 c 2
EndSplineSet
EndChar

StartChar: Scaron
Encoding: 166 352 183
Width: 603
Flags: HW
LayerCount: 2
Fore
SplineSet
135 41 m 2
 114 51 97 69 95 79 c 2
 91 97 l 1
 110 113 l 1
 129 128 l 1
 167 108 l 1
 207 89 l 1
 279 90 l 2
 319 91 380 98 415 108 c 2
 481 126 l 1
 515 155 l 2
 538 174 550 185 552 196 c 0
 554 207 548 217 536 236 c 0
 510 277 440 312 308 350 c 2
 199 382 l 1
 171 407 l 2
 135 439 122 481 131 524 c 0
 141 570 175 618 232 661 c 0
 293 707 359 737 427 749 c 2
 481 759 l 1
 545 748 l 2
 581 742 621 730 635 721 c 0
 656 707 664 686 660 668 c 0
 657 652 643 637 622 630 c 2
 599 624 l 1
 587 644 l 2
 574 666 518 687 472 687 c 0
 431 687 345 658 295 627 c 0
 244 595 211 556 203 520 c 2
 197 495 l 1
 222 470 l 1
 246 444 l 1
 326 422 l 2
 490 377 587 323 614 262 c 2
 626 236 l 1
 618 196 l 2
 607 144 577 112 513 78 c 0
 440 40 361 22 261 22 c 2
 173 22 l 1
 135 41 l 2
420 847 m 0
 361 884 274 958 251 991 c 0
 241 1005 236 1018 239 1030 c 0
 242 1042 251 1053 266 1061 c 2
 284 1072 l 1
 322 1027 l 2
 344 1002 389 963 422 939 c 2
 480 894 l 1
 498 914 l 2
 508 925 552 968 595 1011 c 2
 671 1089 l 1
 687 1086 l 2
 695 1084 705 1075 709 1066 c 2
 715 1049 l 1
 674 1006 l 2
 651 982 602 931 565 891 c 2
 498 818 l 1
 482 818 l 2
 474 818 446 831 420 847 c 0
EndSplineSet
EndChar

StartChar: scaron
Encoding: 168 353 184
Width: 555
Flags: HW
LayerCount: 2
Fore
SplineSet
371 627 m 0
 312 664 225 738 202 771 c 0
 192 785 187 798 190 810 c 0
 193 822 202 833 217 841 c 2
 235 852 l 1
 274 807 l 2
 296 782 340 743 373 719 c 2
 431 674 l 1
 450 694 l 2
 460 705 503 748 546 791 c 2
 623 869 l 1
 638 866 l 2
 646 864 656 855 660 846 c 2
 666 829 l 1
 625 786 l 2
 602 762 554 711 517 671 c 2
 449 598 l 1
 433 598 l 2
 425 598 397 611 371 627 c 0
201 25 m 2
 164 39 152 56 157 80 c 0
 160 93 169 99 188 99 c 0
 203 99 225 95 254 87 c 2
 319 71 l 1
 379 81 l 2
 412 87 448 100 461 110 c 2
 485 127 l 1
 487 153 l 1
 490 178 l 1
 455 211 l 2
 436 229 377 260 326 282 c 2
 232 321 l 1
 210 349 l 1
 188 377 l 1
 195 407 l 2
 204 448 265 516 317 542 c 2
 360 563 l 1
 414 563 l 1
 470 563 l 1
 490 547 l 1
 509 531 l 1
 499 493 l 1
 487 456 l 1
 462 452 l 1
 437 449 l 1
 436 470 l 1
 437 492 l 1
 414 498 l 1
 389 504 l 1
 349 485 l 2
 327 475 297 454 285 439 c 2
 263 411 l 1
 272 396 l 2
 277 388 308 371 340 358 c 0
 372 345 428 319 462 299 c 2
 524 263 l 1
 546 227 l 1
 568 190 l 1
 559 148 l 1
 550 105 l 1
 522 77 l 2
 507 61 473 40 448 30 c 2
 402 11 l 1
 320 11 l 1
 238 11 l 1
 201 25 l 2
EndSplineSet
EndChar

StartChar: Ydieresis
Encoding: 190 376 185
Width: 586
Flags: HW
LayerCount: 2
Fore
SplineSet
286 43 m 2
 276 61 l 1
 314 242 l 1
 354 424 l 1
 330 440 l 2
 317 449 286 484 262 518 c 2
 218 580 l 1
 196 657 l 1
 174 735 l 1
 189 752 l 2
 197 761 211 769 221 769 c 2
 240 769 l 1
 263 691 l 1
 286 613 l 1
 331 555 l 2
 356 523 383 498 390 498 c 0
 397 498 453 545 514 601 c 0
 575 657 639 712 655 723 c 2
 684 743 l 1
 701 733 l 2
 711 727 716 717 715 710 c 0
 714 703 655 645 584 580 c 0
 513 515 451 455 444 445 c 0
 429 425 371 231 349 127 c 0
 347 119 345 111 344 104 c 2
 331 32 l 1
 314 29 l 2
 313 29 311 29 310 29 c 0
 301 29 291 34 286 43 c 2
318 832 m 2
 298 848 l 1
 304 873 l 1
 309 898 l 1
 338 915 l 1
 368 932 l 1
 400 915 l 1
 432 898 l 1
 428 878 l 2
 422 852 380 816 355 816 c 0
 345 816 329 823 318 832 c 2
568 832 m 2
 548 848 l 1
 554 873 l 1
 559 898 l 1
 588 915 l 1
 618 932 l 1
 650 915 l 1
 682 898 l 1
 678 878 l 2
 672 852 630 816 605 816 c 0
 595 816 579 823 568 832 c 2
EndSplineSet
EndChar

StartChar: macron
Encoding: 175 175 186
Width: 926
Flags: HW
LayerCount: 2
Fore
SplineSet
194 699 m 2
 177 703 l 1
 186 729 l 2
 191 743 203 759 212 763 c 0
 221 767 412 776 635 782 c 2
 1041 792 l 1
 1053 781 l 2
 1059 776 1060 765 1058 754 c 0
 1058 752 1057 750 1057 748 c 2
 1049 727 l 1
 678 715 l 2
 474 708 285 701 259 699 c 0
 246 698 232 698 220 698 c 0
 208 698 199 698 194 699 c 2
EndSplineSet
EndChar

StartChar: logicalnot
Encoding: 172 172 187
Width: 934
Flags: HW
LayerCount: 2
Fore
SplineSet
114 339 m 2
 98 343 l 1
 106 369 l 2
 111 383 124 399 133 403 c 0
 142 407 333 416 556 422 c 2
 962 432 l 1
 972 423 l 2
 975 422 976 420 978 418 c 2
 987 406 l 1
 963 291 l 2
 950 228 968 306 939 158 c 0
 931 118 926 92 922 74 c 0
 915 43 913 39 912 39 c 0
 912 39 912 40 911 40 c 0
 911 40 909 40 909 39 c 0
 904 32 896 29 889 29 c 0
 879 29 870 34 863 45 c 2
 852 62 l 1
 900 287 l 1
 917 365 l 1
 598 355 l 2
 394 348 205 341 179 339 c 0
 166 338 152 338 140 338 c 0
 128 338 119 338 114 339 c 2
EndSplineSet
EndChar

StartChar: paragraph
Encoding: 182 182 188
Width: 701
Flags: HW
LayerCount: 2
Fore
SplineSet
276 -114 m 2
 267 -103 l 1
 293 21 l 2
 307 89 344 279 376 443 c 2
 434 741 l 1
 389 728 l 2
 325 710 283 686 250 650 c 2
 221 618 l 1
 214 584 l 2
 210 565 212 541 217 531 c 2
 226 512 l 1
 290 508 l 1
 353 503 l 1
 352 489 l 2
 351 481 346 469 340 462 c 2
 329 448 l 1
 281 444 l 1
 233 439 l 1
 195 458 l 1
 157 477 l 1
 148 512 l 1
 138 548 l 1
 153 599 l 1
 168 650 l 1
 205 690 l 1
 241 730 l 1
 317 764 l 1
 395 799 l 1
 467 809 l 2
 507 815 591 819 654 819 c 2
 770 818 l 1
 800 807 l 2
 817 801 832 788 836 779 c 2
 843 762 l 1
 821 748 l 1
 800 734 l 1
 786 740 l 2
 779 743 746 748 713 751 c 2
 653 756 l 1
 591 459 l 2
 557 296 521 109 510 44 c 0
 505 12 499 -20 494 -44 c 0
 489 -68 485 -87 482 -91 c 0
 476 -101 465 -106 455 -106 c 0
 445 -106 435 -101 429 -92 c 2
 421 -78 l 1
 505 338 l 1
 588 754 l 1
 549 751 l 1
 509 749 l 1
 419 323 l 2
 369 89 323 -108 318 -114 c 0
 311 -122 303 -125 296 -125 c 0
 289 -125 282 -122 276 -114 c 2
EndSplineSet
EndChar

StartChar: exclamdown
Encoding: 161 161 189
Width: 172
Flags: HW
LayerCount: 2
Fore
SplineSet
159 262 m 2
 167 250 l 1
 107 -63 l 1
 47 -376 l 1
 29 -395 l 1
 12 -413 l 1
 -7 -409 l 1
 -26 -406 l 1
 40 -79 l 1
 108 247 l 1
 121 261 l 2
 130 270 137 274 143 274 c 0
 149 274 155 270 159 262 c 2
218 443 m 2
 238 428 l 1
 233 403 l 1
 227 378 l 1
 198 361 l 1
 168 344 l 1
 136 360 l 1
 104 377 l 1
 109 398 l 2
 115 424 156 459 181 459 c 0
 191 459 207 452 218 443 c 2
EndSplineSet
EndChar

StartChar: questiondown
Encoding: 191 191 190
Width: 558
Flags: HWO
LayerCount: 2
Fore
SplineSet
365 264 m 5
 381 243 l 5
 373 207 l 6
 362 156 325 109 215 6 c 4
 93 -109 60 -149 50 -194 c 4
 37 -256 83 -312 159 -325 c 6
 195 -332 l 5
 253 -309 l 5
 310 -286 l 5
 354 -246 l 5
 397 -205 l 5
 425 -143 l 5
 452 -81 l 5
 470 -71 l 5
 489 -60 l 5
 503 -74 l 5
 517 -89 l 5
 500 -135 l 6
 463 -240 388 -322 286 -367 c 6
 223 -395 l 5
 165 -395 l 5
 107 -395 l 5
 62 -370 l 5
 16 -346 l 5
 -5 -307 l 5
 -28 -269 l 5
 -21 -213 l 5
 -13 -156 l 5
 24 -102 l 6
 45 -72 109 -5 165 47 c 4
 272 146 294 170 299 195 c 6
 303 210 l 5
 274 221 l 6
 254 228 248 240 250 251 c 4
 254 268 278 284 315 284 c 6
 349 284 l 5
 365 264 l 5
387 473 m 6
 406 457 l 5
 401 432 l 5
 396 407 l 5
 366 390 l 5
 336 373 l 5
 304 390 l 5
 273 407 l 5
 277 427 l 6
 283 453 324 489 349 489 c 4
 359 489 376 482 387 473 c 6
EndSplineSet
EndChar
